<?xml version="1.0" encoding="utf-8" standalone="no"?>
<!DOCTYPE svg PUBLIC "-//W3C//DTD SVG 1.1//EN"
  "http://www.w3.org/Graphics/SVG/1.1/DTD/svg11.dtd">
<!-- Created with matplotlib (https://matplotlib.org/) -->
<svg height="720pt" version="1.1" viewBox="0 0 1080 720" width="1080pt" xmlns="http://www.w3.org/2000/svg" xmlns:xlink="http://www.w3.org/1999/xlink">
 <metadata>
  <rdf:RDF xmlns:cc="http://creativecommons.org/ns#" xmlns:dc="http://purl.org/dc/elements/1.1/" xmlns:rdf="http://www.w3.org/1999/02/22-rdf-syntax-ns#">
   <cc:Work>
    <dc:type rdf:resource="http://purl.org/dc/dcmitype/StillImage"/>
    <dc:date>2021-04-28T10:19:12.828387</dc:date>
    <dc:format>image/svg+xml</dc:format>
    <dc:creator>
     <cc:Agent>
      <dc:title>Matplotlib v3.3.2, https://matplotlib.org/</dc:title>
     </cc:Agent>
    </dc:creator>
   </cc:Work>
  </rdf:RDF>
 </metadata>
 <defs>
  <style type="text/css">*{stroke-linecap:butt;stroke-linejoin:round;}</style>
 </defs>
 <g id="figure_1">
  <g id="patch_1">
   <path d="M 0 720 
L 1080 720 
L 1080 0 
L 0 0 
z
" style="fill:#ffffff;"/>
  </g>
  <g id="axes_1">
   <g id="patch_2">
    <path d="M 135 640.8 
L 972 640.8 
L 972 86.4 
L 135 86.4 
z
" style="fill:#ffffff;"/>
   </g>
   <g id="matplotlib.axis_1">
    <g id="xtick_1">
     <g id="line2d_1">
      <defs>
       <path d="M 0 0 
L 0 3.5 
" id="m766fb66cbe" style="stroke:#000000;stroke-width:0.8;"/>
      </defs>
      <g>
       <use style="stroke:#000000;stroke-width:0.8;" x="173.045455" xlink:href="#m766fb66cbe" y="640.8"/>
      </g>
     </g>
     <g id="text_1">
      <!-- 0 -->
      <g transform="translate(169.864205 655.398438)scale(0.1 -0.1)">
       <defs>
        <path d="M 31.78125 66.40625 
Q 24.171875 66.40625 20.328125 58.90625 
Q 16.5 51.421875 16.5 36.375 
Q 16.5 21.390625 20.328125 13.890625 
Q 24.171875 6.390625 31.78125 6.390625 
Q 39.453125 6.390625 43.28125 13.890625 
Q 47.125 21.390625 47.125 36.375 
Q 47.125 51.421875 43.28125 58.90625 
Q 39.453125 66.40625 31.78125 66.40625 
z
M 31.78125 74.21875 
Q 44.046875 74.21875 50.515625 64.515625 
Q 56.984375 54.828125 56.984375 36.375 
Q 56.984375 17.96875 50.515625 8.265625 
Q 44.046875 -1.421875 31.78125 -1.421875 
Q 19.53125 -1.421875 13.0625 8.265625 
Q 6.59375 17.96875 6.59375 36.375 
Q 6.59375 54.828125 13.0625 64.515625 
Q 19.53125 74.21875 31.78125 74.21875 
z
" id="DejaVuSans-48"/>
       </defs>
       <use xlink:href="#DejaVuSans-48"/>
      </g>
     </g>
    </g>
    <g id="xtick_2">
     <g id="line2d_2">
      <g>
       <use style="stroke:#000000;stroke-width:0.8;" x="299.863636" xlink:href="#m766fb66cbe" y="640.8"/>
      </g>
     </g>
     <g id="text_2">
      <!-- 10 -->
      <g transform="translate(293.501136 655.398438)scale(0.1 -0.1)">
       <defs>
        <path d="M 12.40625 8.296875 
L 28.515625 8.296875 
L 28.515625 63.921875 
L 10.984375 60.40625 
L 10.984375 69.390625 
L 28.421875 72.90625 
L 38.28125 72.90625 
L 38.28125 8.296875 
L 54.390625 8.296875 
L 54.390625 0 
L 12.40625 0 
z
" id="DejaVuSans-49"/>
       </defs>
       <use xlink:href="#DejaVuSans-49"/>
       <use x="63.623047" xlink:href="#DejaVuSans-48"/>
      </g>
     </g>
    </g>
    <g id="xtick_3">
     <g id="line2d_3">
      <g>
       <use style="stroke:#000000;stroke-width:0.8;" x="426.681818" xlink:href="#m766fb66cbe" y="640.8"/>
      </g>
     </g>
     <g id="text_3">
      <!-- 20 -->
      <g transform="translate(420.319318 655.398438)scale(0.1 -0.1)">
       <defs>
        <path d="M 19.1875 8.296875 
L 53.609375 8.296875 
L 53.609375 0 
L 7.328125 0 
L 7.328125 8.296875 
Q 12.9375 14.109375 22.625 23.890625 
Q 32.328125 33.6875 34.8125 36.53125 
Q 39.546875 41.84375 41.421875 45.53125 
Q 43.3125 49.21875 43.3125 52.78125 
Q 43.3125 58.59375 39.234375 62.25 
Q 35.15625 65.921875 28.609375 65.921875 
Q 23.96875 65.921875 18.8125 64.3125 
Q 13.671875 62.703125 7.8125 59.421875 
L 7.8125 69.390625 
Q 13.765625 71.78125 18.9375 73 
Q 24.125 74.21875 28.421875 74.21875 
Q 39.75 74.21875 46.484375 68.546875 
Q 53.21875 62.890625 53.21875 53.421875 
Q 53.21875 48.921875 51.53125 44.890625 
Q 49.859375 40.875 45.40625 35.40625 
Q 44.1875 33.984375 37.640625 27.21875 
Q 31.109375 20.453125 19.1875 8.296875 
z
" id="DejaVuSans-50"/>
       </defs>
       <use xlink:href="#DejaVuSans-50"/>
       <use x="63.623047" xlink:href="#DejaVuSans-48"/>
      </g>
     </g>
    </g>
    <g id="xtick_4">
     <g id="line2d_4">
      <g>
       <use style="stroke:#000000;stroke-width:0.8;" x="553.5" xlink:href="#m766fb66cbe" y="640.8"/>
      </g>
     </g>
     <g id="text_4">
      <!-- 30 -->
      <g transform="translate(547.1375 655.398438)scale(0.1 -0.1)">
       <defs>
        <path d="M 40.578125 39.3125 
Q 47.65625 37.796875 51.625 33 
Q 55.609375 28.21875 55.609375 21.1875 
Q 55.609375 10.40625 48.1875 4.484375 
Q 40.765625 -1.421875 27.09375 -1.421875 
Q 22.515625 -1.421875 17.65625 -0.515625 
Q 12.796875 0.390625 7.625 2.203125 
L 7.625 11.71875 
Q 11.71875 9.328125 16.59375 8.109375 
Q 21.484375 6.890625 26.8125 6.890625 
Q 36.078125 6.890625 40.9375 10.546875 
Q 45.796875 14.203125 45.796875 21.1875 
Q 45.796875 27.640625 41.28125 31.265625 
Q 36.765625 34.90625 28.71875 34.90625 
L 20.21875 34.90625 
L 20.21875 43.015625 
L 29.109375 43.015625 
Q 36.375 43.015625 40.234375 45.921875 
Q 44.09375 48.828125 44.09375 54.296875 
Q 44.09375 59.90625 40.109375 62.90625 
Q 36.140625 65.921875 28.71875 65.921875 
Q 24.65625 65.921875 20.015625 65.03125 
Q 15.375 64.15625 9.8125 62.3125 
L 9.8125 71.09375 
Q 15.4375 72.65625 20.34375 73.4375 
Q 25.25 74.21875 29.59375 74.21875 
Q 40.828125 74.21875 47.359375 69.109375 
Q 53.90625 64.015625 53.90625 55.328125 
Q 53.90625 49.265625 50.4375 45.09375 
Q 46.96875 40.921875 40.578125 39.3125 
z
" id="DejaVuSans-51"/>
       </defs>
       <use xlink:href="#DejaVuSans-51"/>
       <use x="63.623047" xlink:href="#DejaVuSans-48"/>
      </g>
     </g>
    </g>
    <g id="xtick_5">
     <g id="line2d_5">
      <g>
       <use style="stroke:#000000;stroke-width:0.8;" x="680.318182" xlink:href="#m766fb66cbe" y="640.8"/>
      </g>
     </g>
     <g id="text_5">
      <!-- 40 -->
      <g transform="translate(673.955682 655.398438)scale(0.1 -0.1)">
       <defs>
        <path d="M 37.796875 64.3125 
L 12.890625 25.390625 
L 37.796875 25.390625 
z
M 35.203125 72.90625 
L 47.609375 72.90625 
L 47.609375 25.390625 
L 58.015625 25.390625 
L 58.015625 17.1875 
L 47.609375 17.1875 
L 47.609375 0 
L 37.796875 0 
L 37.796875 17.1875 
L 4.890625 17.1875 
L 4.890625 26.703125 
z
" id="DejaVuSans-52"/>
       </defs>
       <use xlink:href="#DejaVuSans-52"/>
       <use x="63.623047" xlink:href="#DejaVuSans-48"/>
      </g>
     </g>
    </g>
    <g id="xtick_6">
     <g id="line2d_6">
      <g>
       <use style="stroke:#000000;stroke-width:0.8;" x="807.136364" xlink:href="#m766fb66cbe" y="640.8"/>
      </g>
     </g>
     <g id="text_6">
      <!-- 50 -->
      <g transform="translate(800.773864 655.398438)scale(0.1 -0.1)">
       <defs>
        <path d="M 10.796875 72.90625 
L 49.515625 72.90625 
L 49.515625 64.59375 
L 19.828125 64.59375 
L 19.828125 46.734375 
Q 21.96875 47.46875 24.109375 47.828125 
Q 26.265625 48.1875 28.421875 48.1875 
Q 40.625 48.1875 47.75 41.5 
Q 54.890625 34.8125 54.890625 23.390625 
Q 54.890625 11.625 47.5625 5.09375 
Q 40.234375 -1.421875 26.90625 -1.421875 
Q 22.3125 -1.421875 17.546875 -0.640625 
Q 12.796875 0.140625 7.71875 1.703125 
L 7.71875 11.625 
Q 12.109375 9.234375 16.796875 8.0625 
Q 21.484375 6.890625 26.703125 6.890625 
Q 35.15625 6.890625 40.078125 11.328125 
Q 45.015625 15.765625 45.015625 23.390625 
Q 45.015625 31 40.078125 35.4375 
Q 35.15625 39.890625 26.703125 39.890625 
Q 22.75 39.890625 18.8125 39.015625 
Q 14.890625 38.140625 10.796875 36.28125 
z
" id="DejaVuSans-53"/>
       </defs>
       <use xlink:href="#DejaVuSans-53"/>
       <use x="63.623047" xlink:href="#DejaVuSans-48"/>
      </g>
     </g>
    </g>
    <g id="xtick_7">
     <g id="line2d_7">
      <g>
       <use style="stroke:#000000;stroke-width:0.8;" x="933.954545" xlink:href="#m766fb66cbe" y="640.8"/>
      </g>
     </g>
     <g id="text_7">
      <!-- 60 -->
      <g transform="translate(927.592045 655.398438)scale(0.1 -0.1)">
       <defs>
        <path d="M 33.015625 40.375 
Q 26.375 40.375 22.484375 35.828125 
Q 18.609375 31.296875 18.609375 23.390625 
Q 18.609375 15.53125 22.484375 10.953125 
Q 26.375 6.390625 33.015625 6.390625 
Q 39.65625 6.390625 43.53125 10.953125 
Q 47.40625 15.53125 47.40625 23.390625 
Q 47.40625 31.296875 43.53125 35.828125 
Q 39.65625 40.375 33.015625 40.375 
z
M 52.59375 71.296875 
L 52.59375 62.3125 
Q 48.875 64.0625 45.09375 64.984375 
Q 41.3125 65.921875 37.59375 65.921875 
Q 27.828125 65.921875 22.671875 59.328125 
Q 17.53125 52.734375 16.796875 39.40625 
Q 19.671875 43.65625 24.015625 45.921875 
Q 28.375 48.1875 33.59375 48.1875 
Q 44.578125 48.1875 50.953125 41.515625 
Q 57.328125 34.859375 57.328125 23.390625 
Q 57.328125 12.15625 50.6875 5.359375 
Q 44.046875 -1.421875 33.015625 -1.421875 
Q 20.359375 -1.421875 13.671875 8.265625 
Q 6.984375 17.96875 6.984375 36.375 
Q 6.984375 53.65625 15.1875 63.9375 
Q 23.390625 74.21875 37.203125 74.21875 
Q 40.921875 74.21875 44.703125 73.484375 
Q 48.484375 72.75 52.59375 71.296875 
z
" id="DejaVuSans-54"/>
       </defs>
       <use xlink:href="#DejaVuSans-54"/>
       <use x="63.623047" xlink:href="#DejaVuSans-48"/>
      </g>
     </g>
    </g>
    <g id="text_8">
     <!-- time -->
     <g transform="translate(530.907812 676.675)scale(0.2 -0.2)">
      <defs>
       <path d="M 18.3125 70.21875 
L 18.3125 54.6875 
L 36.8125 54.6875 
L 36.8125 47.703125 
L 18.3125 47.703125 
L 18.3125 18.015625 
Q 18.3125 11.328125 20.140625 9.421875 
Q 21.96875 7.515625 27.59375 7.515625 
L 36.8125 7.515625 
L 36.8125 0 
L 27.59375 0 
Q 17.1875 0 13.234375 3.875 
Q 9.28125 7.765625 9.28125 18.015625 
L 9.28125 47.703125 
L 2.6875 47.703125 
L 2.6875 54.6875 
L 9.28125 54.6875 
L 9.28125 70.21875 
z
" id="DejaVuSans-116"/>
       <path d="M 9.421875 54.6875 
L 18.40625 54.6875 
L 18.40625 0 
L 9.421875 0 
z
M 9.421875 75.984375 
L 18.40625 75.984375 
L 18.40625 64.59375 
L 9.421875 64.59375 
z
" id="DejaVuSans-105"/>
       <path d="M 52 44.1875 
Q 55.375 50.25 60.0625 53.125 
Q 64.75 56 71.09375 56 
Q 79.640625 56 84.28125 50.015625 
Q 88.921875 44.046875 88.921875 33.015625 
L 88.921875 0 
L 79.890625 0 
L 79.890625 32.71875 
Q 79.890625 40.578125 77.09375 44.375 
Q 74.3125 48.1875 68.609375 48.1875 
Q 61.625 48.1875 57.5625 43.546875 
Q 53.515625 38.921875 53.515625 30.90625 
L 53.515625 0 
L 44.484375 0 
L 44.484375 32.71875 
Q 44.484375 40.625 41.703125 44.40625 
Q 38.921875 48.1875 33.109375 48.1875 
Q 26.21875 48.1875 22.15625 43.53125 
Q 18.109375 38.875 18.109375 30.90625 
L 18.109375 0 
L 9.078125 0 
L 9.078125 54.6875 
L 18.109375 54.6875 
L 18.109375 46.1875 
Q 21.1875 51.21875 25.484375 53.609375 
Q 29.78125 56 35.6875 56 
Q 41.65625 56 45.828125 52.96875 
Q 50 49.953125 52 44.1875 
z
" id="DejaVuSans-109"/>
       <path d="M 56.203125 29.59375 
L 56.203125 25.203125 
L 14.890625 25.203125 
Q 15.484375 15.921875 20.484375 11.0625 
Q 25.484375 6.203125 34.421875 6.203125 
Q 39.59375 6.203125 44.453125 7.46875 
Q 49.3125 8.734375 54.109375 11.28125 
L 54.109375 2.78125 
Q 49.265625 0.734375 44.1875 -0.34375 
Q 39.109375 -1.421875 33.890625 -1.421875 
Q 20.796875 -1.421875 13.15625 6.1875 
Q 5.515625 13.8125 5.515625 26.8125 
Q 5.515625 40.234375 12.765625 48.109375 
Q 20.015625 56 32.328125 56 
Q 43.359375 56 49.78125 48.890625 
Q 56.203125 41.796875 56.203125 29.59375 
z
M 47.21875 32.234375 
Q 47.125 39.59375 43.09375 43.984375 
Q 39.0625 48.390625 32.421875 48.390625 
Q 24.90625 48.390625 20.390625 44.140625 
Q 15.875 39.890625 15.1875 32.171875 
z
" id="DejaVuSans-101"/>
      </defs>
      <use xlink:href="#DejaVuSans-116"/>
      <use x="39.208984" xlink:href="#DejaVuSans-105"/>
      <use x="66.992188" xlink:href="#DejaVuSans-109"/>
      <use x="164.404297" xlink:href="#DejaVuSans-101"/>
     </g>
    </g>
   </g>
   <g id="matplotlib.axis_2">
    <g id="ytick_1">
     <g id="line2d_8">
      <defs>
       <path d="M 0 0 
L -3.5 0 
" id="mb6ae56ecbf" style="stroke:#000000;stroke-width:0.8;"/>
      </defs>
      <g>
       <use style="stroke:#000000;stroke-width:0.8;" x="135" xlink:href="#mb6ae56ecbf" y="637.520361"/>
      </g>
     </g>
     <g id="text_9">
      <!-- 0 -->
      <g transform="translate(121.6375 641.319579)scale(0.1 -0.1)">
       <use xlink:href="#DejaVuSans-48"/>
      </g>
     </g>
    </g>
    <g id="ytick_2">
     <g id="line2d_9">
      <g>
       <use style="stroke:#000000;stroke-width:0.8;" x="135" xlink:href="#mb6ae56ecbf" y="553.373103"/>
      </g>
     </g>
     <g id="text_10">
      <!-- 20 -->
      <g transform="translate(115.275 557.172322)scale(0.1 -0.1)">
       <use xlink:href="#DejaVuSans-50"/>
       <use x="63.623047" xlink:href="#DejaVuSans-48"/>
      </g>
     </g>
    </g>
    <g id="ytick_3">
     <g id="line2d_10">
      <g>
       <use style="stroke:#000000;stroke-width:0.8;" x="135" xlink:href="#mb6ae56ecbf" y="469.225845"/>
      </g>
     </g>
     <g id="text_11">
      <!-- 40 -->
      <g transform="translate(115.275 473.025064)scale(0.1 -0.1)">
       <use xlink:href="#DejaVuSans-52"/>
       <use x="63.623047" xlink:href="#DejaVuSans-48"/>
      </g>
     </g>
    </g>
    <g id="ytick_4">
     <g id="line2d_11">
      <g>
       <use style="stroke:#000000;stroke-width:0.8;" x="135" xlink:href="#mb6ae56ecbf" y="385.078588"/>
      </g>
     </g>
     <g id="text_12">
      <!-- 60 -->
      <g transform="translate(115.275 388.877806)scale(0.1 -0.1)">
       <use xlink:href="#DejaVuSans-54"/>
       <use x="63.623047" xlink:href="#DejaVuSans-48"/>
      </g>
     </g>
    </g>
    <g id="ytick_5">
     <g id="line2d_12">
      <g>
       <use style="stroke:#000000;stroke-width:0.8;" x="135" xlink:href="#mb6ae56ecbf" y="300.93133"/>
      </g>
     </g>
     <g id="text_13">
      <!-- 80 -->
      <g transform="translate(115.275 304.730549)scale(0.1 -0.1)">
       <defs>
        <path d="M 31.78125 34.625 
Q 24.75 34.625 20.71875 30.859375 
Q 16.703125 27.09375 16.703125 20.515625 
Q 16.703125 13.921875 20.71875 10.15625 
Q 24.75 6.390625 31.78125 6.390625 
Q 38.8125 6.390625 42.859375 10.171875 
Q 46.921875 13.96875 46.921875 20.515625 
Q 46.921875 27.09375 42.890625 30.859375 
Q 38.875 34.625 31.78125 34.625 
z
M 21.921875 38.8125 
Q 15.578125 40.375 12.03125 44.71875 
Q 8.5 49.078125 8.5 55.328125 
Q 8.5 64.0625 14.71875 69.140625 
Q 20.953125 74.21875 31.78125 74.21875 
Q 42.671875 74.21875 48.875 69.140625 
Q 55.078125 64.0625 55.078125 55.328125 
Q 55.078125 49.078125 51.53125 44.71875 
Q 48 40.375 41.703125 38.8125 
Q 48.828125 37.15625 52.796875 32.3125 
Q 56.78125 27.484375 56.78125 20.515625 
Q 56.78125 9.90625 50.3125 4.234375 
Q 43.84375 -1.421875 31.78125 -1.421875 
Q 19.734375 -1.421875 13.25 4.234375 
Q 6.78125 9.90625 6.78125 20.515625 
Q 6.78125 27.484375 10.78125 32.3125 
Q 14.796875 37.15625 21.921875 38.8125 
z
M 18.3125 54.390625 
Q 18.3125 48.734375 21.84375 45.5625 
Q 25.390625 42.390625 31.78125 42.390625 
Q 38.140625 42.390625 41.71875 45.5625 
Q 45.3125 48.734375 45.3125 54.390625 
Q 45.3125 60.0625 41.71875 63.234375 
Q 38.140625 66.40625 31.78125 66.40625 
Q 25.390625 66.40625 21.84375 63.234375 
Q 18.3125 60.0625 18.3125 54.390625 
z
" id="DejaVuSans-56"/>
       </defs>
       <use xlink:href="#DejaVuSans-56"/>
       <use x="63.623047" xlink:href="#DejaVuSans-48"/>
      </g>
     </g>
    </g>
    <g id="ytick_6">
     <g id="line2d_13">
      <g>
       <use style="stroke:#000000;stroke-width:0.8;" x="135" xlink:href="#mb6ae56ecbf" y="216.784072"/>
      </g>
     </g>
     <g id="text_14">
      <!-- 100 -->
      <g transform="translate(108.9125 220.583291)scale(0.1 -0.1)">
       <use xlink:href="#DejaVuSans-49"/>
       <use x="63.623047" xlink:href="#DejaVuSans-48"/>
       <use x="127.246094" xlink:href="#DejaVuSans-48"/>
      </g>
     </g>
    </g>
    <g id="ytick_7">
     <g id="line2d_14">
      <g>
       <use style="stroke:#000000;stroke-width:0.8;" x="135" xlink:href="#mb6ae56ecbf" y="132.636814"/>
      </g>
     </g>
     <g id="text_15">
      <!-- 120 -->
      <g transform="translate(108.9125 136.436033)scale(0.1 -0.1)">
       <use xlink:href="#DejaVuSans-49"/>
       <use x="63.623047" xlink:href="#DejaVuSans-50"/>
       <use x="127.246094" xlink:href="#DejaVuSans-48"/>
      </g>
     </g>
    </g>
    <g id="text_16">
     <!-- bandwidth -->
     <g transform="translate(100.753125 416.325)rotate(-90)scale(0.2 -0.2)">
      <defs>
       <path d="M 48.6875 27.296875 
Q 48.6875 37.203125 44.609375 42.84375 
Q 40.53125 48.484375 33.40625 48.484375 
Q 26.265625 48.484375 22.1875 42.84375 
Q 18.109375 37.203125 18.109375 27.296875 
Q 18.109375 17.390625 22.1875 11.75 
Q 26.265625 6.109375 33.40625 6.109375 
Q 40.53125 6.109375 44.609375 11.75 
Q 48.6875 17.390625 48.6875 27.296875 
z
M 18.109375 46.390625 
Q 20.953125 51.265625 25.265625 53.625 
Q 29.59375 56 35.59375 56 
Q 45.5625 56 51.78125 48.09375 
Q 58.015625 40.1875 58.015625 27.296875 
Q 58.015625 14.40625 51.78125 6.484375 
Q 45.5625 -1.421875 35.59375 -1.421875 
Q 29.59375 -1.421875 25.265625 0.953125 
Q 20.953125 3.328125 18.109375 8.203125 
L 18.109375 0 
L 9.078125 0 
L 9.078125 75.984375 
L 18.109375 75.984375 
z
" id="DejaVuSans-98"/>
       <path d="M 34.28125 27.484375 
Q 23.390625 27.484375 19.1875 25 
Q 14.984375 22.515625 14.984375 16.5 
Q 14.984375 11.71875 18.140625 8.90625 
Q 21.296875 6.109375 26.703125 6.109375 
Q 34.1875 6.109375 38.703125 11.40625 
Q 43.21875 16.703125 43.21875 25.484375 
L 43.21875 27.484375 
z
M 52.203125 31.203125 
L 52.203125 0 
L 43.21875 0 
L 43.21875 8.296875 
Q 40.140625 3.328125 35.546875 0.953125 
Q 30.953125 -1.421875 24.3125 -1.421875 
Q 15.921875 -1.421875 10.953125 3.296875 
Q 6 8.015625 6 15.921875 
Q 6 25.140625 12.171875 29.828125 
Q 18.359375 34.515625 30.609375 34.515625 
L 43.21875 34.515625 
L 43.21875 35.40625 
Q 43.21875 41.609375 39.140625 45 
Q 35.0625 48.390625 27.6875 48.390625 
Q 23 48.390625 18.546875 47.265625 
Q 14.109375 46.140625 10.015625 43.890625 
L 10.015625 52.203125 
Q 14.9375 54.109375 19.578125 55.046875 
Q 24.21875 56 28.609375 56 
Q 40.484375 56 46.34375 49.84375 
Q 52.203125 43.703125 52.203125 31.203125 
z
" id="DejaVuSans-97"/>
       <path d="M 54.890625 33.015625 
L 54.890625 0 
L 45.90625 0 
L 45.90625 32.71875 
Q 45.90625 40.484375 42.875 44.328125 
Q 39.84375 48.1875 33.796875 48.1875 
Q 26.515625 48.1875 22.3125 43.546875 
Q 18.109375 38.921875 18.109375 30.90625 
L 18.109375 0 
L 9.078125 0 
L 9.078125 54.6875 
L 18.109375 54.6875 
L 18.109375 46.1875 
Q 21.34375 51.125 25.703125 53.5625 
Q 30.078125 56 35.796875 56 
Q 45.21875 56 50.046875 50.171875 
Q 54.890625 44.34375 54.890625 33.015625 
z
" id="DejaVuSans-110"/>
       <path d="M 45.40625 46.390625 
L 45.40625 75.984375 
L 54.390625 75.984375 
L 54.390625 0 
L 45.40625 0 
L 45.40625 8.203125 
Q 42.578125 3.328125 38.25 0.953125 
Q 33.9375 -1.421875 27.875 -1.421875 
Q 17.96875 -1.421875 11.734375 6.484375 
Q 5.515625 14.40625 5.515625 27.296875 
Q 5.515625 40.1875 11.734375 48.09375 
Q 17.96875 56 27.875 56 
Q 33.9375 56 38.25 53.625 
Q 42.578125 51.265625 45.40625 46.390625 
z
M 14.796875 27.296875 
Q 14.796875 17.390625 18.875 11.75 
Q 22.953125 6.109375 30.078125 6.109375 
Q 37.203125 6.109375 41.296875 11.75 
Q 45.40625 17.390625 45.40625 27.296875 
Q 45.40625 37.203125 41.296875 42.84375 
Q 37.203125 48.484375 30.078125 48.484375 
Q 22.953125 48.484375 18.875 42.84375 
Q 14.796875 37.203125 14.796875 27.296875 
z
" id="DejaVuSans-100"/>
       <path d="M 4.203125 54.6875 
L 13.1875 54.6875 
L 24.421875 12.015625 
L 35.59375 54.6875 
L 46.1875 54.6875 
L 57.421875 12.015625 
L 68.609375 54.6875 
L 77.59375 54.6875 
L 63.28125 0 
L 52.6875 0 
L 40.921875 44.828125 
L 29.109375 0 
L 18.5 0 
z
" id="DejaVuSans-119"/>
       <path d="M 54.890625 33.015625 
L 54.890625 0 
L 45.90625 0 
L 45.90625 32.71875 
Q 45.90625 40.484375 42.875 44.328125 
Q 39.84375 48.1875 33.796875 48.1875 
Q 26.515625 48.1875 22.3125 43.546875 
Q 18.109375 38.921875 18.109375 30.90625 
L 18.109375 0 
L 9.078125 0 
L 9.078125 75.984375 
L 18.109375 75.984375 
L 18.109375 46.1875 
Q 21.34375 51.125 25.703125 53.5625 
Q 30.078125 56 35.796875 56 
Q 45.21875 56 50.046875 50.171875 
Q 54.890625 44.34375 54.890625 33.015625 
z
" id="DejaVuSans-104"/>
      </defs>
      <use xlink:href="#DejaVuSans-98"/>
      <use x="63.476562" xlink:href="#DejaVuSans-97"/>
      <use x="124.755859" xlink:href="#DejaVuSans-110"/>
      <use x="188.134766" xlink:href="#DejaVuSans-100"/>
      <use x="251.611328" xlink:href="#DejaVuSans-119"/>
      <use x="333.398438" xlink:href="#DejaVuSans-105"/>
      <use x="361.181641" xlink:href="#DejaVuSans-100"/>
      <use x="424.658203" xlink:href="#DejaVuSans-116"/>
      <use x="463.867188" xlink:href="#DejaVuSans-104"/>
     </g>
    </g>
   </g>
   <g id="line2d_15">
    <path clip-path="url(#pec2dba4e34)" d="M 173.045455 489.841923 
L 174.313636 571.8855 
L 175.581818 549.586476 
L 176.85 615.6 
L 178.118182 593.763787 
L 181.922727 593.763787 
L 183.190909 615.6 
L 184.459091 593.763787 
L 186.995455 593.763787 
L 188.263636 615.6 
L 189.531818 593.763787 
L 193.336364 593.763787 
L 194.604545 615.6 
L 195.872727 593.763787 
L 198.409091 593.763787 
L 199.677273 571.8855 
L 200.945455 615.6 
L 202.213636 593.763787 
L 206.018182 593.763787 
L 207.286364 615.6 
L 208.554545 593.763787 
L 209.822727 593.763787 
L 211.090909 615.6 
L 212.359091 593.763787 
L 214.895455 593.763787 
L 216.163636 615.6 
L 217.431818 593.763787 
L 218.7 593.763787 
L 219.968182 571.8855 
L 221.236364 615.6 
L 222.504545 593.763787 
L 223.772727 593.763787 
L 225.040909 615.6 
L 226.309091 593.763787 
L 228.845455 593.763787 
L 230.113636 615.6 
L 231.381818 571.8855 
L 232.65 593.763787 
L 235.186364 571.8855 
L 236.454545 593.763787 
L 237.722727 593.763787 
L 238.990909 615.6 
L 240.259091 593.763787 
L 244.063636 593.763787 
L 245.331818 615.6 
L 246.6 593.763787 
L 250.404545 593.763787 
L 251.672727 615.6 
L 252.940909 593.763787 
L 254.209091 593.763787 
L 255.477273 571.8855 
L 256.745455 615.6 
L 258.013636 593.763787 
L 260.55 593.763787 
L 261.818182 615.6 
L 263.086364 593.763787 
L 264.354545 593.763787 
L 265.622727 615.6 
L 266.890909 593.763787 
L 269.427273 593.763787 
L 270.695455 571.8855 
L 271.963636 615.6 
L 273.231818 593.763787 
L 277.036364 593.763787 
L 278.304545 615.6 
L 279.572727 593.763787 
L 282.109091 593.763787 
L 283.377273 615.6 
L 284.645455 593.763787 
L 287.181818 593.763787 
L 288.45 615.6 
L 289.718182 593.763787 
L 296.059091 593.763787 
L 297.327273 615.6 
L 298.595455 593.763787 
L 301.131818 593.763787 
L 302.4 615.6 
L 303.668182 593.763787 
L 306.204545 593.763787 
L 307.472727 615.6 
L 308.740909 593.763787 
L 312.545455 593.763787 
L 313.813636 615.6 
L 315.081818 571.8855 
L 316.35 593.763787 
L 317.618182 593.763787 
L 318.886364 615.6 
L 320.154545 593.763787 
L 322.690909 593.763787 
L 323.959091 615.6 
L 325.227273 593.763787 
L 327.763636 593.763787 
L 329.031818 615.6 
L 330.3 593.763787 
L 331.568182 593.763787 
L 332.836364 615.6 
L 334.104545 593.763787 
L 341.713636 593.763787 
L 342.981818 615.6 
L 344.25 593.763787 
L 346.786364 593.763787 
L 348.054545 615.6 
L 349.322727 593.763787 
L 353.127273 593.763787 
L 354.395455 615.6 
L 355.663636 593.763787 
L 358.2 593.763787 
L 359.468182 615.6 
L 362.004545 571.8855 
L 364.540909 615.6 
L 365.809091 593.763787 
L 367.077273 615.6 
L 368.345455 593.763787 
L 372.15 593.763787 
L 373.418182 615.6 
L 374.686364 593.763787 
L 382.295455 593.763787 
L 383.563636 615.6 
L 384.831818 593.763787 
L 386.1 593.763787 
L 387.368182 615.6 
L 388.636364 593.763787 
L 391.172727 593.763787 
L 392.440909 615.6 
L 394.977273 571.8855 
L 397.513636 615.6 
L 398.781818 593.763787 
L 401.318182 593.763787 
L 402.586364 615.6 
L 403.854545 593.763787 
L 406.390909 593.763787 
L 407.659091 615.6 
L 408.927273 593.763787 
L 410.195455 593.763787 
L 411.463636 571.8855 
L 412.731818 615.6 
L 414 593.763787 
L 415.268182 593.763787 
L 416.536364 615.6 
L 417.804545 593.763787 
L 419.072727 593.763787 
L 420.340909 615.6 
L 421.609091 571.8855 
L 422.877273 593.763787 
L 424.145455 593.763787 
L 426.681818 571.8855 
L 427.95 593.763787 
L 429.218182 593.763787 
L 430.486364 615.6 
L 431.754545 593.763787 
L 433.022727 593.763787 
L 434.290909 615.6 
L 435.559091 593.763787 
L 436.827273 593.763787 
L 438.095455 571.8855 
L 439.363636 615.6 
L 440.631818 593.763787 
L 443.168182 593.763787 
L 444.436364 615.6 
L 445.704545 593.763787 
L 448.240909 593.763787 
L 449.509091 615.6 
L 450.777273 593.763787 
L 453.313636 593.763787 
L 454.581818 615.6 
L 455.85 571.8855 
L 457.118182 593.763787 
L 458.386364 593.763787 
L 459.654545 615.6 
L 460.922727 593.763787 
L 462.190909 615.6 
L 463.459091 571.8855 
L 464.727273 615.6 
L 465.995455 593.763787 
L 469.8 593.763787 
L 471.068182 615.6 
L 472.336364 593.763787 
L 473.604545 593.763787 
L 474.872727 615.6 
L 477.409091 571.8855 
L 479.945455 615.6 
L 481.213636 593.763787 
L 483.75 593.763787 
L 485.018182 615.6 
L 486.286364 593.763787 
L 488.822727 593.763787 
L 490.090909 615.6 
L 491.359091 593.763787 
L 495.163636 593.763787 
L 496.431818 615.6 
L 497.7 593.763787 
L 500.236364 593.763787 
L 501.504545 571.8855 
L 502.772727 615.6 
L 504.040909 593.763787 
L 505.309091 593.763787 
L 506.577273 615.6 
L 507.845455 593.763787 
L 510.381818 593.763787 
L 511.65 615.6 
L 512.918182 593.763787 
L 514.186364 593.763787 
L 515.454545 615.6 
L 516.722727 571.8855 
L 517.990909 593.763787 
L 519.259091 593.763787 
L 520.527273 615.6 
L 521.795455 593.763787 
L 523.063636 593.763787 
L 524.331818 615.6 
L 525.6 593.763787 
L 531.940909 593.763787 
L 533.209091 615.6 
L 534.477273 593.763787 
L 538.281818 593.763787 
L 539.55 615.6 
L 540.818182 593.763787 
L 543.354545 593.763787 
L 544.622727 615.6 
L 545.890909 593.763787 
L 547.159091 593.763787 
L 548.427273 615.6 
L 550.963636 571.8855 
L 552.231818 593.763787 
L 553.5 593.763787 
L 554.768182 615.6 
L 556.036364 593.763787 
L 558.572727 593.763787 
L 559.840909 615.6 
L 561.109091 593.763787 
L 562.377273 593.763787 
L 563.645455 615.6 
L 566.181818 571.8855 
L 568.718182 615.6 
L 569.986364 593.763787 
L 572.522727 593.763787 
L 573.790909 615.6 
L 575.059091 593.763787 
L 583.936364 593.763787 
L 585.204545 615.6 
L 586.472727 593.763787 
L 587.740909 593.763787 
L 589.009091 615.6 
L 590.277273 593.763787 
L 594.081818 593.763787 
L 595.35 615.6 
L 596.618182 571.8855 
L 597.886364 615.6 
L 599.154545 593.763787 
L 601.690909 593.763787 
L 602.959091 615.6 
L 604.227273 593.763787 
L 611.836364 593.763787 
L 613.104545 615.6 
L 614.372727 593.763787 
L 616.909091 593.763787 
L 618.177273 615.6 
L 619.445455 593.763787 
L 620.713636 593.763787 
L 621.981818 615.6 
L 623.25 593.763787 
L 624.518182 593.763787 
L 625.786364 571.8855 
L 627.054545 615.6 
L 628.322727 593.763787 
L 629.590909 593.763787 
L 630.859091 615.6 
L 632.127273 593.763787 
L 633.395455 593.763787 
L 634.663636 571.8855 
L 635.931818 615.6 
L 637.2 593.763787 
L 639.736364 593.763787 
L 641.004545 615.6 
L 642.272727 593.763787 
L 644.809091 593.763787 
L 646.077273 615.6 
L 647.345455 593.763787 
L 648.613636 593.763787 
L 649.881818 615.6 
L 651.15 593.763787 
L 652.418182 593.763787 
L 653.686364 571.8855 
L 654.954545 615.6 
L 656.222727 593.763787 
L 658.759091 593.763787 
L 660.027273 615.6 
L 661.295455 593.763787 
L 663.831818 593.763787 
L 665.1 615.6 
L 666.368182 593.763787 
L 667.636364 593.763787 
L 668.904545 571.8855 
L 670.172727 615.6 
L 671.440909 593.763787 
L 675.245455 593.763787 
L 676.513636 615.6 
L 677.781818 593.763787 
L 680.318182 593.763787 
L 681.586364 615.6 
L 682.854545 593.763787 
L 685.390909 593.763787 
L 686.659091 615.6 
L 687.927273 593.763787 
L 690.463636 593.763787 
L 691.731818 615.6 
L 693 571.8855 
L 694.268182 593.763787 
L 695.536364 593.763787 
L 696.804545 615.6 
L 698.072727 593.763787 
L 699.340909 593.763787 
L 700.609091 615.6 
L 701.877273 593.763787 
L 704.413636 593.763787 
L 705.681818 615.6 
L 706.95 593.763787 
L 710.754545 593.763787 
L 712.022727 615.6 
L 713.290909 571.8855 
L 715.827273 615.6 
L 717.095455 593.763787 
L 719.631818 593.763787 
L 720.9 615.6 
L 722.168182 593.763787 
L 729.777273 593.763787 
L 731.045455 615.6 
L 732.313636 593.763787 
L 734.85 593.763787 
L 736.118182 615.6 
L 737.386364 593.763787 
L 739.922727 593.763787 
L 741.190909 615.6 
L 742.459091 571.8855 
L 744.995455 615.6 
L 746.263636 593.763787 
L 747.531818 615.6 
L 748.8 571.8855 
L 750.068182 615.6 
L 751.336364 593.763787 
L 752.604545 593.763787 
L 753.872727 615.6 
L 755.140909 593.763787 
L 756.409091 593.763787 
L 757.677273 571.8855 
L 758.945455 615.6 
L 760.213636 593.763787 
L 762.75 593.763787 
L 764.018182 615.6 
L 765.286364 593.763787 
L 767.822727 593.763787 
L 769.090909 615.6 
L 770.359091 593.763787 
L 771.627273 593.763787 
L 772.895455 571.8855 
L 774.163636 615.6 
L 775.431818 593.763787 
L 777.968182 593.763787 
L 779.236364 615.6 
L 780.504545 593.763787 
L 784.309091 593.763787 
L 785.577273 615.6 
L 786.845455 593.763787 
L 789.381818 593.763787 
L 790.65 615.6 
L 791.918182 593.763787 
L 794.454545 593.763787 
L 795.722727 615.6 
L 796.990909 571.8855 
L 799.527273 615.6 
L 800.795455 593.763787 
L 804.6 593.763787 
L 805.868182 615.6 
L 807.136364 593.763787 
L 809.672727 593.763787 
L 810.940909 615.6 
L 812.209091 593.763787 
L 814.745455 593.763787 
L 816.013636 615.6 
L 818.55 571.8855 
L 821.086364 615.6 
L 822.354545 593.763787 
L 823.622727 593.763787 
L 824.890909 615.6 
L 826.159091 593.763787 
L 833.768182 593.763787 
L 835.036364 615.6 
L 836.304545 593.763787 
L 838.840909 593.763787 
L 840.109091 615.6 
L 841.377273 593.763787 
L 843.913636 593.763787 
L 845.181818 615.6 
L 846.45 571.8855 
L 848.986364 615.6 
L 850.254545 593.763787 
L 854.059091 593.763787 
L 855.327273 615.6 
L 856.595455 593.763787 
L 857.863636 593.763787 
L 859.131818 615.6 
L 860.4 593.763787 
L 864.204545 593.763787 
L 865.472727 615.6 
L 868.009091 571.8855 
L 870.545455 615.6 
L 871.813636 593.763787 
L 874.35 593.763787 
L 875.618182 615.6 
L 876.886364 593.763787 
L 879.422727 593.763787 
L 880.690909 615.6 
L 881.959091 593.763787 
L 885.763636 593.763787 
L 887.031818 615.6 
L 888.3 593.763787 
L 889.568182 593.763787 
L 890.836364 615.6 
L 892.104545 571.8855 
L 893.372727 593.763787 
L 894.640909 593.763787 
L 895.909091 615.6 
L 897.177273 593.763787 
L 899.713636 593.763787 
L 900.981818 615.6 
L 902.25 593.763787 
L 906.054545 593.763787 
L 907.322727 615.6 
L 908.590909 571.8855 
L 911.127273 615.6 
L 912.395455 593.763787 
L 914.931818 593.763787 
L 916.2 615.6 
L 917.468182 593.763787 
L 920.004545 593.763787 
L 921.272727 615.6 
L 923.809091 571.8855 
L 926.345455 615.6 
L 927.613636 593.763787 
L 930.15 593.763787 
L 931.418182 615.6 
L 932.686364 593.763787 
L 932.686364 593.763787 
" style="fill:none;stroke:#ff7f50;stroke-linecap:square;stroke-width:1.5;"/>
   </g>
   <g id="line2d_16">
    <path clip-path="url(#pec2dba4e34)" d="M 173.045455 467.963636 
L 174.313636 416.213073 
L 175.581818 418.316754 
L 176.85 220.991435 
L 178.118182 483.951615 
L 179.386364 352.261157 
L 180.654545 308.504583 
L 181.922727 483.951615 
L 183.190909 593.763787 
L 188.263636 615.6 
L 189.531818 571.8855 
L 190.8 615.6 
L 193.336364 615.6 
L 194.604545 352.261157 
L 195.872727 593.763787 
L 198.409091 593.763787 
L 200.945455 527.708189 
L 202.213636 615.6 
L 204.75 571.8855 
L 207.286364 615.6 
L 208.554545 593.763787 
L 211.090909 593.763787 
L 212.359091 615.6 
L 213.627273 593.763787 
L 216.163636 593.763787 
L 217.431818 615.6 
L 218.7 593.763787 
L 219.968182 593.763787 
L 221.236364 571.8855 
L 222.504545 615.6 
L 223.772727 593.763787 
L 225.040909 593.763787 
L 226.309091 615.6 
L 227.577273 593.763787 
L 230.113636 593.763787 
L 231.381818 615.6 
L 232.65 593.763787 
L 236.454545 593.763787 
L 237.722727 615.6 
L 240.259091 571.8855 
L 242.795455 615.6 
L 244.063636 593.763787 
L 247.868182 593.763787 
L 249.136364 615.6 
L 250.404545 593.763787 
L 251.672727 593.763787 
L 252.940909 615.6 
L 255.477273 571.8855 
L 258.013636 615.6 
L 259.281818 593.763787 
L 261.818182 593.763787 
L 263.086364 615.6 
L 264.354545 593.763787 
L 266.890909 593.763787 
L 268.159091 615.6 
L 269.427273 593.763787 
L 270.695455 593.763787 
L 271.963636 571.8855 
L 273.231818 615.6 
L 274.5 593.763787 
L 277.036364 593.763787 
L 278.304545 615.6 
L 279.572727 593.763787 
L 282.109091 593.763787 
L 283.377273 615.6 
L 284.645455 571.8855 
L 285.913636 593.763787 
L 287.181818 593.763787 
L 288.45 615.6 
L 289.718182 593.763787 
L 290.986364 593.763787 
L 292.254545 615.6 
L 293.522727 593.763787 
L 296.059091 593.763787 
L 297.327273 615.6 
L 299.863636 571.8855 
L 301.131818 593.763787 
L 302.4 593.763787 
L 303.668182 615.6 
L 304.936364 593.763787 
L 307.472727 593.763787 
L 308.740909 615.6 
L 310.009091 593.763787 
L 312.545455 593.763787 
L 313.813636 615.6 
L 315.081818 593.763787 
L 321.422727 593.763787 
L 322.690909 615.6 
L 323.959091 593.763787 
L 326.495455 593.763787 
L 327.763636 615.6 
L 329.031818 593.763787 
L 330.3 593.763787 
L 331.568182 571.8855 
L 332.836364 615.6 
L 334.104545 593.763787 
L 335.372727 593.763787 
L 336.640909 615.6 
L 337.909091 593.763787 
L 340.445455 593.763787 
L 341.713636 615.6 
L 344.25 571.8855 
L 346.786364 615.6 
L 348.054545 593.763787 
L 351.859091 593.763787 
L 353.127273 615.6 
L 354.395455 593.763787 
L 356.931818 593.763787 
L 358.2 615.6 
L 359.468182 593.763787 
L 363.272727 593.763787 
L 364.540909 615.6 
L 365.809091 571.8855 
L 367.077273 593.763787 
L 368.345455 593.763787 
L 369.613636 615.6 
L 370.881818 593.763787 
L 372.15 593.763787 
L 373.418182 615.6 
L 374.686364 593.763787 
L 378.490909 593.763787 
L 379.759091 615.6 
L 382.295455 571.8855 
L 383.563636 615.6 
L 384.831818 593.763787 
L 388.636364 593.763787 
L 389.904545 615.6 
L 391.172727 593.763787 
L 392.440909 593.763787 
L 393.709091 615.6 
L 394.977273 571.8855 
L 396.245455 593.763787 
L 397.513636 593.763787 
L 398.781818 615.6 
L 400.05 593.763787 
L 401.318182 593.763787 
L 402.586364 615.6 
L 403.854545 593.763787 
L 411.463636 593.763787 
L 412.731818 615.6 
L 414 593.763787 
L 416.536364 593.763787 
L 417.804545 615.6 
L 419.072727 571.8855 
L 421.609091 615.6 
L 422.877273 593.763787 
L 424.145455 593.763787 
L 425.413636 615.6 
L 426.681818 593.763787 
L 429.218182 593.763787 
L 430.486364 615.6 
L 431.754545 571.8855 
L 433.022727 593.763787 
L 434.290909 593.763787 
L 435.559091 615.6 
L 436.827273 593.763787 
L 440.631818 593.763787 
L 441.9 615.6 
L 443.168182 593.763787 
L 444.436364 593.763787 
L 445.704545 615.6 
L 446.972727 571.8855 
L 448.240909 593.763787 
L 449.509091 593.763787 
L 450.777273 615.6 
L 452.045455 593.763787 
L 454.581818 593.763787 
L 455.85 615.6 
L 457.118182 593.763787 
L 463.459091 593.763787 
L 464.727273 615.6 
L 465.995455 593.763787 
L 469.8 593.763787 
L 471.068182 615.6 
L 472.336364 593.763787 
L 473.604545 593.763787 
L 474.872727 615.6 
L 476.140909 571.8855 
L 477.409091 593.763787 
L 478.677273 593.763787 
L 479.945455 615.6 
L 481.213636 593.763787 
L 483.75 593.763787 
L 487.554545 505.829902 
L 488.822727 571.8855 
L 490.090909 615.6 
L 491.359091 593.763787 
L 493.895455 593.763787 
L 495.163636 615.6 
L 496.431818 593.763787 
L 498.968182 593.763787 
L 500.236364 615.6 
L 501.504545 593.763787 
L 509.113636 593.763787 
L 510.381818 615.6 
L 511.65 593.763787 
L 514.186364 593.763787 
L 515.454545 615.6 
L 516.722727 593.763787 
L 519.259091 593.763787 
L 520.527273 615.6 
L 521.795455 571.8855 
L 523.063636 593.763787 
L 524.331818 593.763787 
L 525.6 615.6 
L 526.868182 593.763787 
L 530.672727 593.763787 
L 531.940909 615.6 
L 533.209091 593.763787 
L 535.745455 593.763787 
L 537.013636 615.6 
L 538.281818 593.763787 
L 545.890909 593.763787 
L 547.159091 615.6 
L 548.427273 593.763787 
L 550.963636 593.763787 
L 552.231818 615.6 
L 553.5 593.763787 
L 556.036364 593.763787 
L 557.304545 615.6 
L 559.840909 571.8855 
L 562.377273 615.6 
L 563.645455 593.763787 
L 566.181818 593.763787 
L 567.45 615.6 
L 568.718182 593.763787 
L 571.254545 593.763787 
L 572.522727 615.6 
L 575.059091 571.8855 
L 577.595455 615.6 
L 578.863636 593.763787 
L 581.4 593.763787 
L 582.668182 615.6 
L 583.936364 593.763787 
L 586.472727 593.763787 
L 587.740909 615.6 
L 589.009091 593.763787 
L 590.277273 593.763787 
L 591.545455 571.8855 
L 594.081818 571.8855 
L 595.35 593.763787 
L 596.618182 593.763787 
L 597.886364 615.6 
L 599.154545 593.763787 
L 602.959091 593.763787 
L 604.227273 615.6 
L 605.495455 593.763787 
L 608.031818 593.763787 
L 609.3 615.6 
L 610.568182 593.763787 
L 611.836364 593.763787 
L 613.104545 571.8855 
L 615.640909 615.6 
L 616.909091 593.763787 
L 619.445455 593.763787 
L 620.713636 615.6 
L 621.981818 593.763787 
L 623.25 593.763787 
L 624.518182 615.6 
L 625.786364 571.8855 
L 627.054545 593.763787 
L 628.322727 593.763787 
L 629.590909 615.6 
L 630.859091 593.763787 
L 633.395455 593.763787 
L 634.663636 615.6 
L 635.931818 593.763787 
L 638.468182 593.763787 
L 639.736364 615.6 
L 641.004545 593.763787 
L 643.540909 593.763787 
L 644.809091 615.6 
L 646.077273 571.8855 
L 647.345455 593.763787 
L 648.613636 593.763787 
L 649.881818 615.6 
L 651.15 593.763787 
L 652.418182 593.763787 
L 653.686364 615.6 
L 654.954545 571.8855 
L 656.222727 593.763787 
L 657.490909 593.763787 
L 658.759091 615.6 
L 660.027273 593.763787 
L 663.831818 593.763787 
L 665.1 615.6 
L 666.368182 593.763787 
L 667.636364 593.763787 
L 668.904545 615.6 
L 670.172727 593.763787 
L 671.440909 593.763787 
L 672.709091 571.8855 
L 673.977273 615.6 
L 675.245455 593.763787 
L 677.781818 593.763787 
L 679.05 615.6 
L 680.318182 593.763787 
L 682.854545 593.763787 
L 684.122727 615.6 
L 685.390909 571.8855 
L 687.927273 615.6 
L 689.195455 593.763787 
L 691.731818 593.763787 
L 693 615.6 
L 694.268182 593.763787 
L 695.536364 593.763787 
L 696.804545 571.8855 
L 698.072727 615.6 
L 699.340909 593.763787 
L 701.877273 593.763787 
L 703.145455 615.6 
L 704.413636 593.763787 
L 708.218182 593.763787 
L 709.486364 615.6 
L 710.754545 593.763787 
L 713.290909 593.763787 
L 714.559091 615.6 
L 715.827273 593.763787 
L 717.095455 593.763787 
L 718.363636 571.8855 
L 719.631818 615.6 
L 720.9 593.763787 
L 722.168182 593.763787 
L 723.436364 615.6 
L 724.704545 593.763787 
L 727.240909 593.763787 
L 728.509091 615.6 
L 731.045455 571.8855 
L 733.581818 615.6 
L 734.85 593.763787 
L 737.386364 593.763787 
L 741.190909 527.708189 
L 742.459091 571.8855 
L 743.727273 593.763787 
L 746.263636 593.763787 
L 747.531818 615.6 
L 748.8 593.763787 
L 750.068182 593.763787 
L 751.336364 615.6 
L 752.604545 593.763787 
L 760.213636 593.763787 
L 761.481818 615.6 
L 762.75 593.763787 
L 765.286364 593.763787 
L 766.554545 615.6 
L 767.822727 593.763787 
L 770.359091 593.763787 
L 771.627273 615.6 
L 774.163636 571.8855 
L 776.7 615.6 
L 777.968182 593.763787 
L 779.236364 593.763787 
L 780.504545 615.6 
L 781.772727 593.763787 
L 785.577273 593.763787 
L 786.845455 615.6 
L 788.113636 571.8855 
L 789.381818 593.763787 
L 790.65 593.763787 
L 791.918182 615.6 
L 793.186364 593.763787 
L 794.454545 593.763787 
L 795.722727 615.6 
L 796.990909 593.763787 
L 804.6 593.763787 
L 805.868182 615.6 
L 807.136364 593.763787 
L 808.404545 593.763787 
L 809.672727 615.6 
L 812.209091 571.8855 
L 814.745455 615.6 
L 816.013636 593.763787 
L 817.281818 593.763787 
L 818.55 615.6 
L 819.818182 593.763787 
L 821.086364 593.763787 
L 822.354545 571.8855 
L 823.622727 615.6 
L 824.890909 593.763787 
L 826.159091 593.763787 
L 827.427273 615.6 
L 828.695455 593.763787 
L 831.231818 593.763787 
L 832.5 615.6 
L 833.768182 593.763787 
L 835.036364 593.763787 
L 836.304545 571.8855 
L 837.572727 615.6 
L 838.840909 593.763787 
L 841.377273 593.763787 
L 842.645455 615.6 
L 843.913636 593.763787 
L 846.45 593.763787 
L 847.718182 615.6 
L 848.986364 593.763787 
L 852.790909 593.763787 
L 854.059091 615.6 
L 856.595455 571.8855 
L 859.131818 615.6 
L 860.4 593.763787 
L 862.936364 593.763787 
L 864.204545 615.6 
L 865.472727 593.763787 
L 868.009091 593.763787 
L 869.277273 615.6 
L 870.545455 593.763787 
L 871.813636 593.763787 
L 873.081818 571.8855 
L 874.35 615.6 
L 875.618182 593.763787 
L 878.154545 593.763787 
L 879.422727 615.6 
L 880.690909 593.763787 
L 883.227273 593.763787 
L 884.495455 615.6 
L 885.763636 593.763787 
L 887.031818 593.763787 
L 888.3 571.8855 
L 889.568182 615.6 
L 890.836364 593.763787 
L 893.372727 593.763787 
L 894.640909 615.6 
L 895.909091 593.763787 
L 897.177273 593.763787 
L 898.445455 615.6 
L 900.981818 571.8855 
L 903.518182 615.6 
L 904.786364 593.763787 
L 908.590909 593.763787 
L 909.859091 615.6 
L 911.127273 593.763787 
L 913.663636 593.763787 
L 914.931818 615.6 
L 916.2 593.763787 
L 917.468182 593.763787 
L 918.736364 571.8855 
L 920.004545 615.6 
L 921.272727 593.763787 
L 923.809091 593.763787 
L 925.077273 615.6 
L 926.345455 593.763787 
L 927.613636 593.763787 
L 928.881818 615.6 
L 930.15 593.763787 
L 932.686364 593.763787 
L 932.686364 593.763787 
" style="fill:none;stroke:#6a5acd;stroke-linecap:square;stroke-width:1.5;"/>
   </g>
   <g id="line2d_17">
    <path clip-path="url(#pec2dba4e34)" d="M 173.045455 467.963636 
L 174.313636 350.157476 
L 175.581818 418.316754 
L 176.85 418.316754 
L 178.118182 352.261157 
L 179.386364 352.261157 
L 180.654545 286.626296 
L 181.922727 483.951615 
L 183.190909 330.38287 
L 184.459091 330.38287 
L 185.727273 352.261157 
L 186.995455 483.951615 
L 188.263636 440.195041 
L 189.531818 242.869722 
L 190.8 440.195041 
L 207.286364 593.763787 
L 208.554545 462.073328 
L 211.090909 571.8855 
L 213.627273 483.951615 
L 218.7 111.6 
L 219.968182 593.763787 
L 223.772727 527.708189 
L 225.040909 593.763787 
L 226.309091 615.6 
L 228.845455 571.8855 
L 230.113636 593.763787 
L 231.381818 527.708189 
L 233.918182 615.6 
L 235.186364 593.763787 
L 236.454545 593.763787 
L 237.722727 571.8855 
L 238.990909 615.6 
L 240.259091 593.763787 
L 242.795455 593.763787 
L 244.063636 615.6 
L 245.331818 593.763787 
L 247.868182 593.763787 
L 249.136364 615.6 
L 250.404545 593.763787 
L 254.209091 593.763787 
L 255.477273 615.6 
L 258.013636 571.8855 
L 260.55 615.6 
L 261.818182 593.763787 
L 264.354545 593.763787 
L 265.622727 615.6 
L 266.890909 593.763787 
L 270.695455 593.763787 
L 271.963636 615.6 
L 274.5 571.8855 
L 277.036364 615.6 
L 278.304545 593.763787 
L 279.572727 593.763787 
L 280.840909 615.6 
L 282.109091 593.763787 
L 284.645455 593.763787 
L 285.913636 615.6 
L 287.181818 593.763787 
L 288.45 593.763787 
L 289.718182 571.8855 
L 290.986364 615.6 
L 292.254545 593.763787 
L 294.790909 593.763787 
L 296.059091 615.6 
L 297.327273 593.763787 
L 301.131818 593.763787 
L 302.4 615.6 
L 304.936364 571.8855 
L 306.204545 615.6 
L 307.472727 593.763787 
L 310.009091 593.763787 
L 311.277273 615.6 
L 312.545455 593.763787 
L 316.35 593.763787 
L 317.618182 615.6 
L 318.886364 593.763787 
L 322.690909 593.763787 
L 323.959091 615.6 
L 325.227273 571.8855 
L 327.763636 615.6 
L 329.031818 593.763787 
L 331.568182 593.763787 
L 332.836364 615.6 
L 334.104545 593.763787 
L 336.640909 593.763787 
L 337.909091 615.6 
L 339.177273 571.8855 
L 340.445455 593.763787 
L 341.713636 593.763787 
L 342.981818 615.6 
L 344.25 593.763787 
L 348.054545 593.763787 
L 349.322727 615.6 
L 350.590909 593.763787 
L 351.859091 593.763787 
L 353.127273 615.6 
L 355.663636 571.8855 
L 358.2 615.6 
L 359.468182 593.763787 
L 362.004545 593.763787 
L 363.272727 615.6 
L 364.540909 593.763787 
L 370.881818 593.763787 
L 372.15 615.6 
L 373.418182 593.763787 
L 377.222727 593.763787 
L 378.490909 615.6 
L 379.759091 593.763787 
L 382.295455 593.763787 
L 383.563636 615.6 
L 386.1 571.8855 
L 388.636364 615.6 
L 389.904545 593.763787 
L 392.440909 593.763787 
L 393.709091 615.6 
L 394.977273 593.763787 
L 396.245455 593.763787 
L 397.513636 615.6 
L 400.05 571.8855 
L 401.318182 593.763787 
L 402.586364 593.763787 
L 403.854545 615.6 
L 405.122727 593.763787 
L 407.659091 593.763787 
L 408.927273 615.6 
L 410.195455 593.763787 
L 412.731818 593.763787 
L 414 615.6 
L 416.536364 571.8855 
L 417.804545 615.6 
L 419.072727 593.763787 
L 422.877273 593.763787 
L 424.145455 615.6 
L 425.413636 593.763787 
L 427.95 593.763787 
L 429.218182 615.6 
L 430.486364 571.8855 
L 433.022727 615.6 
L 434.290909 593.763787 
L 438.095455 593.763787 
L 439.363636 615.6 
L 440.631818 593.763787 
L 443.168182 593.763787 
L 444.436364 615.6 
L 445.704545 593.763787 
L 448.240909 593.763787 
L 449.509091 615.6 
L 450.777273 571.8855 
L 452.045455 593.763787 
L 453.313636 593.763787 
L 454.581818 615.6 
L 455.85 593.763787 
L 457.118182 593.763787 
L 458.386364 615.6 
L 459.654545 593.763787 
L 462.190909 593.763787 
L 463.459091 571.8855 
L 464.727273 615.6 
L 465.995455 593.763787 
L 467.263636 593.763787 
L 468.531818 615.6 
L 469.8 593.763787 
L 472.336364 593.763787 
L 473.604545 615.6 
L 474.872727 593.763787 
L 476.140909 593.763787 
L 477.409091 571.8855 
L 478.677273 615.6 
L 479.945455 593.763787 
L 483.75 593.763787 
L 485.018182 615.6 
L 486.286364 593.763787 
L 488.822727 593.763787 
L 490.090909 615.6 
L 491.359091 593.763787 
L 495.163636 593.763787 
L 496.431818 615.6 
L 497.7 571.8855 
L 500.236364 615.6 
L 501.504545 593.763787 
L 504.040909 593.763787 
L 505.309091 615.6 
L 506.577273 593.763787 
L 507.845455 593.763787 
L 509.113636 615.6 
L 510.381818 571.8855 
L 511.65 593.763787 
L 512.918182 593.763787 
L 514.186364 615.6 
L 515.454545 593.763787 
L 517.990909 593.763787 
L 519.259091 615.6 
L 520.527273 593.763787 
L 528.136364 593.763787 
L 529.404545 615.6 
L 530.672727 593.763787 
L 531.940909 593.763787 
L 533.209091 615.6 
L 534.477273 593.763787 
L 535.745455 593.763787 
L 537.013636 571.8855 
L 538.281818 615.6 
L 539.55 593.763787 
L 543.354545 593.763787 
L 544.622727 615.6 
L 545.890909 593.763787 
L 548.427273 593.763787 
L 549.695455 615.6 
L 552.231818 571.8855 
L 554.768182 615.6 
L 556.036364 593.763787 
L 558.572727 593.763787 
L 559.840909 615.6 
L 561.109091 593.763787 
L 563.645455 593.763787 
L 564.913636 615.6 
L 566.181818 593.763787 
L 573.790909 593.763787 
L 575.059091 615.6 
L 576.327273 593.763787 
L 578.863636 593.763787 
L 580.131818 615.6 
L 581.4 593.763787 
L 583.936364 593.763787 
L 585.204545 615.6 
L 587.740909 571.8855 
L 590.277273 615.6 
L 591.545455 593.763787 
L 592.813636 593.763787 
L 594.081818 615.6 
L 595.35 593.763787 
L 602.959091 593.763787 
L 604.227273 615.6 
L 605.495455 593.763787 
L 609.3 593.763787 
L 610.568182 615.6 
L 611.836364 593.763787 
L 614.372727 593.763787 
L 615.640909 615.6 
L 616.909091 571.8855 
L 619.445455 615.6 
L 620.713636 593.763787 
L 624.518182 593.763787 
L 625.786364 615.6 
L 627.054545 593.763787 
L 628.322727 593.763787 
L 629.590909 615.6 
L 632.127273 571.8855 
L 634.663636 615.6 
L 635.931818 593.763787 
L 638.468182 593.763787 
L 639.736364 615.6 
L 641.004545 593.763787 
L 643.540909 593.763787 
L 644.809091 615.6 
L 646.077273 571.8855 
L 647.345455 593.763787 
L 648.613636 593.763787 
L 649.881818 615.6 
L 651.15 593.763787 
L 653.686364 593.763787 
L 654.954545 615.6 
L 656.222727 593.763787 
L 658.759091 593.763787 
L 660.027273 615.6 
L 661.295455 571.8855 
L 662.563636 593.763787 
L 663.831818 593.763787 
L 665.1 615.6 
L 666.368182 593.763787 
L 668.904545 593.763787 
L 670.172727 615.6 
L 671.440909 593.763787 
L 673.977273 593.763787 
L 675.245455 615.6 
L 676.513636 593.763787 
L 677.781818 593.763787 
L 679.05 571.8855 
L 680.318182 615.6 
L 681.586364 593.763787 
L 684.122727 593.763787 
L 685.390909 615.6 
L 686.659091 593.763787 
L 689.195455 593.763787 
L 690.463636 615.6 
L 693 571.8855 
L 695.536364 615.6 
L 696.804545 593.763787 
L 699.340909 593.763787 
L 700.609091 615.6 
L 701.877273 593.763787 
L 704.413636 593.763787 
L 705.681818 615.6 
L 706.95 593.763787 
L 708.218182 593.763787 
L 709.486364 571.8855 
L 710.754545 615.6 
L 712.022727 593.763787 
L 715.827273 593.763787 
L 717.095455 615.6 
L 718.363636 593.763787 
L 719.631818 593.763787 
L 720.9 615.6 
L 722.168182 571.8855 
L 724.704545 615.6 
L 725.972727 593.763787 
L 728.509091 593.763787 
L 729.777273 615.6 
L 731.045455 593.763787 
L 738.654545 593.763787 
L 739.922727 615.6 
L 741.190909 593.763787 
L 742.459091 593.763787 
L 743.727273 615.6 
L 746.263636 571.8855 
L 748.8 615.6 
L 750.068182 593.763787 
L 752.604545 593.763787 
L 753.872727 615.6 
L 755.140909 593.763787 
L 757.677273 593.763787 
L 758.945455 615.6 
L 760.213636 571.8855 
L 762.75 615.6 
L 764.018182 593.763787 
L 767.822727 593.763787 
L 769.090909 615.6 
L 770.359091 593.763787 
L 774.163636 593.763787 
L 775.431818 615.6 
L 777.968182 571.8855 
L 779.236364 615.6 
L 780.504545 593.763787 
L 784.309091 593.763787 
L 785.577273 615.6 
L 786.845455 593.763787 
L 789.381818 593.763787 
L 790.65 615.6 
L 791.918182 593.763787 
L 794.454545 593.763787 
L 795.722727 615.6 
L 798.259091 571.8855 
L 800.795455 615.6 
L 802.063636 593.763787 
L 804.6 593.763787 
L 805.868182 615.6 
L 808.404545 571.8855 
L 809.672727 615.6 
L 810.940909 593.763787 
L 813.477273 593.763787 
L 814.745455 615.6 
L 816.013636 593.763787 
L 818.55 593.763787 
L 819.818182 615.6 
L 821.086364 571.8855 
L 822.354545 593.763787 
L 823.622727 593.763787 
L 824.890909 615.6 
L 826.159091 593.763787 
L 827.427273 593.763787 
L 828.695455 615.6 
L 829.963636 593.763787 
L 832.5 593.763787 
L 833.768182 615.6 
L 835.036364 593.763787 
L 837.572727 593.763787 
L 838.840909 571.8855 
L 840.109091 615.6 
L 841.377273 593.763787 
L 842.645455 593.763787 
L 843.913636 615.6 
L 845.181818 593.763787 
L 847.718182 593.763787 
L 848.986364 615.6 
L 850.254545 571.8855 
L 852.790909 615.6 
L 854.059091 593.763787 
L 856.595455 593.763787 
L 857.863636 615.6 
L 859.131818 593.763787 
L 866.740909 593.763787 
L 868.009091 615.6 
L 869.277273 593.763787 
L 871.813636 593.763787 
L 873.081818 615.6 
L 874.35 593.763787 
L 876.886364 593.763787 
L 878.154545 615.6 
L 880.690909 571.8855 
L 883.227273 615.6 
L 884.495455 593.763787 
L 887.031818 593.763787 
L 888.3 615.6 
L 889.568182 593.763787 
L 892.104545 593.763787 
L 893.372727 615.6 
L 894.640909 571.8855 
L 895.909091 593.763787 
L 897.177273 593.763787 
L 898.445455 615.6 
L 899.713636 593.763787 
L 902.25 593.763787 
L 903.518182 615.6 
L 904.786364 593.763787 
L 907.322727 593.763787 
L 908.590909 615.6 
L 911.127273 571.8855 
L 913.663636 615.6 
L 914.931818 593.763787 
L 916.2 593.763787 
L 917.468182 615.6 
L 918.736364 593.763787 
L 920.004545 593.763787 
L 921.272727 571.8855 
L 922.540909 615.6 
L 923.809091 593.763787 
L 926.345455 593.763787 
L 927.613636 615.6 
L 928.881818 593.763787 
L 932.686364 593.763787 
L 933.954545 615.6 
L 933.954545 615.6 
" style="fill:none;stroke:#32cd32;stroke-linecap:square;stroke-width:1.5;"/>
   </g>
   <g id="patch_3">
    <path d="M 135 640.8 
L 135 86.4 
" style="fill:none;stroke:#000000;stroke-linecap:square;stroke-linejoin:miter;stroke-width:0.8;"/>
   </g>
   <g id="patch_4">
    <path d="M 972 640.8 
L 972 86.4 
" style="fill:none;stroke:#000000;stroke-linecap:square;stroke-linejoin:miter;stroke-width:0.8;"/>
   </g>
   <g id="patch_5">
    <path d="M 135 640.8 
L 972 640.8 
" style="fill:none;stroke:#000000;stroke-linecap:square;stroke-linejoin:miter;stroke-width:0.8;"/>
   </g>
   <g id="patch_6">
    <path d="M 135 86.4 
L 972 86.4 
" style="fill:none;stroke:#000000;stroke-linecap:square;stroke-linejoin:miter;stroke-width:0.8;"/>
   </g>
   <g id="legend_1">
    <g id="patch_7">
     <path d="M 771.778125 138.434375 
L 965 138.434375 
Q 967 138.434375 967 136.434375 
L 967 93.4 
Q 967 91.4 965 91.4 
L 771.778125 91.4 
Q 769.778125 91.4 769.778125 93.4 
L 769.778125 136.434375 
Q 769.778125 138.434375 771.778125 138.434375 
z
" style="fill:#ffffff;opacity:0.8;stroke:#cccccc;stroke-linejoin:miter;"/>
    </g>
    <g id="line2d_18">
     <path d="M 773.778125 99.498437 
L 793.778125 99.498437 
" style="fill:none;stroke:#ff7f50;stroke-linecap:square;stroke-width:1.5;"/>
    </g>
    <g id="line2d_19"/>
    <g id="text_17">
     <!-- qlen = 10 bandwidth=0:0.50% -->
     <g transform="translate(801.778125 102.998437)scale(0.1 -0.1)">
      <defs>
       <path d="M 14.796875 27.296875 
Q 14.796875 17.390625 18.875 11.75 
Q 22.953125 6.109375 30.078125 6.109375 
Q 37.203125 6.109375 41.296875 11.75 
Q 45.40625 17.390625 45.40625 27.296875 
Q 45.40625 37.203125 41.296875 42.84375 
Q 37.203125 48.484375 30.078125 48.484375 
Q 22.953125 48.484375 18.875 42.84375 
Q 14.796875 37.203125 14.796875 27.296875 
z
M 45.40625 8.203125 
Q 42.578125 3.328125 38.25 0.953125 
Q 33.9375 -1.421875 27.875 -1.421875 
Q 17.96875 -1.421875 11.734375 6.484375 
Q 5.515625 14.40625 5.515625 27.296875 
Q 5.515625 40.1875 11.734375 48.09375 
Q 17.96875 56 27.875 56 
Q 33.9375 56 38.25 53.625 
Q 42.578125 51.265625 45.40625 46.390625 
L 45.40625 54.6875 
L 54.390625 54.6875 
L 54.390625 -20.796875 
L 45.40625 -20.796875 
z
" id="DejaVuSans-113"/>
       <path d="M 9.421875 75.984375 
L 18.40625 75.984375 
L 18.40625 0 
L 9.421875 0 
z
" id="DejaVuSans-108"/>
       <path id="DejaVuSans-32"/>
       <path d="M 10.59375 45.40625 
L 73.1875 45.40625 
L 73.1875 37.203125 
L 10.59375 37.203125 
z
M 10.59375 25.484375 
L 73.1875 25.484375 
L 73.1875 17.1875 
L 10.59375 17.1875 
z
" id="DejaVuSans-61"/>
       <path d="M 11.71875 12.40625 
L 22.015625 12.40625 
L 22.015625 0 
L 11.71875 0 
z
M 11.71875 51.703125 
L 22.015625 51.703125 
L 22.015625 39.3125 
L 11.71875 39.3125 
z
" id="DejaVuSans-58"/>
       <path d="M 10.6875 12.40625 
L 21 12.40625 
L 21 0 
L 10.6875 0 
z
" id="DejaVuSans-46"/>
       <path d="M 72.703125 32.078125 
Q 68.453125 32.078125 66.03125 28.46875 
Q 63.625 24.859375 63.625 18.40625 
Q 63.625 12.0625 66.03125 8.421875 
Q 68.453125 4.78125 72.703125 4.78125 
Q 76.859375 4.78125 79.265625 8.421875 
Q 81.6875 12.0625 81.6875 18.40625 
Q 81.6875 24.8125 79.265625 28.4375 
Q 76.859375 32.078125 72.703125 32.078125 
z
M 72.703125 38.28125 
Q 80.421875 38.28125 84.953125 32.90625 
Q 89.5 27.546875 89.5 18.40625 
Q 89.5 9.28125 84.9375 3.921875 
Q 80.375 -1.421875 72.703125 -1.421875 
Q 64.890625 -1.421875 60.34375 3.921875 
Q 55.8125 9.28125 55.8125 18.40625 
Q 55.8125 27.59375 60.375 32.9375 
Q 64.9375 38.28125 72.703125 38.28125 
z
M 22.3125 68.015625 
Q 18.109375 68.015625 15.6875 64.375 
Q 13.28125 60.75 13.28125 54.390625 
Q 13.28125 47.953125 15.671875 44.328125 
Q 18.0625 40.71875 22.3125 40.71875 
Q 26.5625 40.71875 28.96875 44.328125 
Q 31.390625 47.953125 31.390625 54.390625 
Q 31.390625 60.6875 28.953125 64.34375 
Q 26.515625 68.015625 22.3125 68.015625 
z
M 66.40625 74.21875 
L 74.21875 74.21875 
L 28.609375 -1.421875 
L 20.796875 -1.421875 
z
M 22.3125 74.21875 
Q 30.03125 74.21875 34.609375 68.875 
Q 39.203125 63.53125 39.203125 54.390625 
Q 39.203125 45.171875 34.640625 39.84375 
Q 30.078125 34.515625 22.3125 34.515625 
Q 14.546875 34.515625 10.03125 39.859375 
Q 5.515625 45.21875 5.515625 54.390625 
Q 5.515625 63.484375 10.046875 68.84375 
Q 14.59375 74.21875 22.3125 74.21875 
z
" id="DejaVuSans-37"/>
      </defs>
      <use xlink:href="#DejaVuSans-113"/>
      <use x="63.476562" xlink:href="#DejaVuSans-108"/>
      <use x="91.259766" xlink:href="#DejaVuSans-101"/>
      <use x="152.783203" xlink:href="#DejaVuSans-110"/>
      <use x="216.162109" xlink:href="#DejaVuSans-32"/>
      <use x="247.949219" xlink:href="#DejaVuSans-61"/>
      <use x="331.738281" xlink:href="#DejaVuSans-32"/>
      <use x="363.525391" xlink:href="#DejaVuSans-49"/>
      <use x="427.148438" xlink:href="#DejaVuSans-48"/>
      <use x="490.771484" xlink:href="#DejaVuSans-32"/>
      <use x="522.558594" xlink:href="#DejaVuSans-98"/>
      <use x="586.035156" xlink:href="#DejaVuSans-97"/>
      <use x="647.314453" xlink:href="#DejaVuSans-110"/>
      <use x="710.693359" xlink:href="#DejaVuSans-100"/>
      <use x="774.169922" xlink:href="#DejaVuSans-119"/>
      <use x="855.957031" xlink:href="#DejaVuSans-105"/>
      <use x="883.740234" xlink:href="#DejaVuSans-100"/>
      <use x="947.216797" xlink:href="#DejaVuSans-116"/>
      <use x="986.425781" xlink:href="#DejaVuSans-104"/>
      <use x="1049.804688" xlink:href="#DejaVuSans-61"/>
      <use x="1133.59375" xlink:href="#DejaVuSans-48"/>
      <use x="1197.216797" xlink:href="#DejaVuSans-58"/>
      <use x="1230.908203" xlink:href="#DejaVuSans-48"/>
      <use x="1294.53125" xlink:href="#DejaVuSans-46"/>
      <use x="1326.318359" xlink:href="#DejaVuSans-53"/>
      <use x="1389.941406" xlink:href="#DejaVuSans-48"/>
      <use x="1453.564453" xlink:href="#DejaVuSans-37"/>
     </g>
    </g>
    <g id="line2d_20">
     <path d="M 773.778125 114.176562 
L 793.778125 114.176562 
" style="fill:none;stroke:#6a5acd;stroke-linecap:square;stroke-width:1.5;"/>
    </g>
    <g id="line2d_21"/>
    <g id="text_18">
     <!-- qlen = 100 bandwidth=0:1.50% -->
     <g transform="translate(801.778125 117.676562)scale(0.1 -0.1)">
      <use xlink:href="#DejaVuSans-113"/>
      <use x="63.476562" xlink:href="#DejaVuSans-108"/>
      <use x="91.259766" xlink:href="#DejaVuSans-101"/>
      <use x="152.783203" xlink:href="#DejaVuSans-110"/>
      <use x="216.162109" xlink:href="#DejaVuSans-32"/>
      <use x="247.949219" xlink:href="#DejaVuSans-61"/>
      <use x="331.738281" xlink:href="#DejaVuSans-32"/>
      <use x="363.525391" xlink:href="#DejaVuSans-49"/>
      <use x="427.148438" xlink:href="#DejaVuSans-48"/>
      <use x="490.771484" xlink:href="#DejaVuSans-48"/>
      <use x="554.394531" xlink:href="#DejaVuSans-32"/>
      <use x="586.181641" xlink:href="#DejaVuSans-98"/>
      <use x="649.658203" xlink:href="#DejaVuSans-97"/>
      <use x="710.9375" xlink:href="#DejaVuSans-110"/>
      <use x="774.316406" xlink:href="#DejaVuSans-100"/>
      <use x="837.792969" xlink:href="#DejaVuSans-119"/>
      <use x="919.580078" xlink:href="#DejaVuSans-105"/>
      <use x="947.363281" xlink:href="#DejaVuSans-100"/>
      <use x="1010.839844" xlink:href="#DejaVuSans-116"/>
      <use x="1050.048828" xlink:href="#DejaVuSans-104"/>
      <use x="1113.427734" xlink:href="#DejaVuSans-61"/>
      <use x="1197.216797" xlink:href="#DejaVuSans-48"/>
      <use x="1260.839844" xlink:href="#DejaVuSans-58"/>
      <use x="1294.53125" xlink:href="#DejaVuSans-49"/>
      <use x="1358.154297" xlink:href="#DejaVuSans-46"/>
      <use x="1389.941406" xlink:href="#DejaVuSans-53"/>
      <use x="1453.564453" xlink:href="#DejaVuSans-48"/>
      <use x="1517.1875" xlink:href="#DejaVuSans-37"/>
     </g>
    </g>
    <g id="line2d_22">
     <path d="M 773.778125 128.854687 
L 793.778125 128.854687 
" style="fill:none;stroke:#32cd32;stroke-linecap:square;stroke-width:1.5;"/>
    </g>
    <g id="line2d_23"/>
    <g id="text_19">
     <!-- qlen = 200 bandwidth=0:3.33% -->
     <g transform="translate(801.778125 132.354687)scale(0.1 -0.1)">
      <use xlink:href="#DejaVuSans-113"/>
      <use x="63.476562" xlink:href="#DejaVuSans-108"/>
      <use x="91.259766" xlink:href="#DejaVuSans-101"/>
      <use x="152.783203" xlink:href="#DejaVuSans-110"/>
      <use x="216.162109" xlink:href="#DejaVuSans-32"/>
      <use x="247.949219" xlink:href="#DejaVuSans-61"/>
      <use x="331.738281" xlink:href="#DejaVuSans-32"/>
      <use x="363.525391" xlink:href="#DejaVuSans-50"/>
      <use x="427.148438" xlink:href="#DejaVuSans-48"/>
      <use x="490.771484" xlink:href="#DejaVuSans-48"/>
      <use x="554.394531" xlink:href="#DejaVuSans-32"/>
      <use x="586.181641" xlink:href="#DejaVuSans-98"/>
      <use x="649.658203" xlink:href="#DejaVuSans-97"/>
      <use x="710.9375" xlink:href="#DejaVuSans-110"/>
      <use x="774.316406" xlink:href="#DejaVuSans-100"/>
      <use x="837.792969" xlink:href="#DejaVuSans-119"/>
      <use x="919.580078" xlink:href="#DejaVuSans-105"/>
      <use x="947.363281" xlink:href="#DejaVuSans-100"/>
      <use x="1010.839844" xlink:href="#DejaVuSans-116"/>
      <use x="1050.048828" xlink:href="#DejaVuSans-104"/>
      <use x="1113.427734" xlink:href="#DejaVuSans-61"/>
      <use x="1197.216797" xlink:href="#DejaVuSans-48"/>
      <use x="1260.839844" xlink:href="#DejaVuSans-58"/>
      <use x="1294.53125" xlink:href="#DejaVuSans-51"/>
      <use x="1358.154297" xlink:href="#DejaVuSans-46"/>
      <use x="1389.941406" xlink:href="#DejaVuSans-51"/>
      <use x="1453.564453" xlink:href="#DejaVuSans-51"/>
      <use x="1517.1875" xlink:href="#DejaVuSans-37"/>
     </g>
    </g>
   </g>
  </g>
 </g>
 <defs>
  <clipPath id="pec2dba4e34">
   <rect height="554.4" width="837" x="135" y="86.4"/>
  </clipPath>
 </defs>
</svg>
