<?xml version="1.0" encoding="utf-8" standalone="no"?>
<!DOCTYPE svg PUBLIC "-//W3C//DTD SVG 1.1//EN"
  "http://www.w3.org/Graphics/SVG/1.1/DTD/svg11.dtd">
<!-- Created with matplotlib (https://matplotlib.org/) -->
<svg height="720pt" version="1.1" viewBox="0 0 1080 720" width="1080pt" xmlns="http://www.w3.org/2000/svg" xmlns:xlink="http://www.w3.org/1999/xlink">
 <metadata>
  <rdf:RDF xmlns:cc="http://creativecommons.org/ns#" xmlns:dc="http://purl.org/dc/elements/1.1/" xmlns:rdf="http://www.w3.org/1999/02/22-rdf-syntax-ns#">
   <cc:Work>
    <dc:type rdf:resource="http://purl.org/dc/dcmitype/StillImage"/>
    <dc:date>2021-04-26T10:50:38.349531</dc:date>
    <dc:format>image/svg+xml</dc:format>
    <dc:creator>
     <cc:Agent>
      <dc:title>Matplotlib v3.3.2, https://matplotlib.org/</dc:title>
     </cc:Agent>
    </dc:creator>
   </cc:Work>
  </rdf:RDF>
 </metadata>
 <defs>
  <style type="text/css">*{stroke-linecap:butt;stroke-linejoin:round;}</style>
 </defs>
 <g id="figure_1">
  <g id="patch_1">
   <path d="M 0 720 
L 1080 720 
L 1080 0 
L 0 0 
z
" style="fill:#ffffff;"/>
  </g>
  <g id="axes_1">
   <g id="patch_2">
    <path d="M 135 640.8 
L 972 640.8 
L 972 86.4 
L 135 86.4 
z
" style="fill:#ffffff;"/>
   </g>
   <g id="matplotlib.axis_1">
    <g id="xtick_1">
     <g id="line2d_1">
      <defs>
       <path d="M 0 0 
L 0 3.5 
" id="m4fa059623e" style="stroke:#000000;stroke-width:0.8;"/>
      </defs>
      <g>
       <use style="stroke:#000000;stroke-width:0.8;" x="173.045455" xlink:href="#m4fa059623e" y="640.8"/>
      </g>
     </g>
     <g id="text_1">
      <!-- 0 -->
      <g transform="translate(169.864205 655.398438)scale(0.1 -0.1)">
       <defs>
        <path d="M 31.78125 66.40625 
Q 24.171875 66.40625 20.328125 58.90625 
Q 16.5 51.421875 16.5 36.375 
Q 16.5 21.390625 20.328125 13.890625 
Q 24.171875 6.390625 31.78125 6.390625 
Q 39.453125 6.390625 43.28125 13.890625 
Q 47.125 21.390625 47.125 36.375 
Q 47.125 51.421875 43.28125 58.90625 
Q 39.453125 66.40625 31.78125 66.40625 
z
M 31.78125 74.21875 
Q 44.046875 74.21875 50.515625 64.515625 
Q 56.984375 54.828125 56.984375 36.375 
Q 56.984375 17.96875 50.515625 8.265625 
Q 44.046875 -1.421875 31.78125 -1.421875 
Q 19.53125 -1.421875 13.0625 8.265625 
Q 6.59375 17.96875 6.59375 36.375 
Q 6.59375 54.828125 13.0625 64.515625 
Q 19.53125 74.21875 31.78125 74.21875 
z
" id="DejaVuSans-48"/>
       </defs>
       <use xlink:href="#DejaVuSans-48"/>
      </g>
     </g>
    </g>
    <g id="xtick_2">
     <g id="line2d_2">
      <g>
       <use style="stroke:#000000;stroke-width:0.8;" x="301.359182" xlink:href="#m4fa059623e" y="640.8"/>
      </g>
     </g>
     <g id="text_2">
      <!-- 10 -->
      <g transform="translate(294.996682 655.398438)scale(0.1 -0.1)">
       <defs>
        <path d="M 12.40625 8.296875 
L 28.515625 8.296875 
L 28.515625 63.921875 
L 10.984375 60.40625 
L 10.984375 69.390625 
L 28.421875 72.90625 
L 38.28125 72.90625 
L 38.28125 8.296875 
L 54.390625 8.296875 
L 54.390625 0 
L 12.40625 0 
z
" id="DejaVuSans-49"/>
       </defs>
       <use xlink:href="#DejaVuSans-49"/>
       <use x="63.623047" xlink:href="#DejaVuSans-48"/>
      </g>
     </g>
    </g>
    <g id="xtick_3">
     <g id="line2d_3">
      <g>
       <use style="stroke:#000000;stroke-width:0.8;" x="429.672909" xlink:href="#m4fa059623e" y="640.8"/>
      </g>
     </g>
     <g id="text_3">
      <!-- 20 -->
      <g transform="translate(423.310409 655.398438)scale(0.1 -0.1)">
       <defs>
        <path d="M 19.1875 8.296875 
L 53.609375 8.296875 
L 53.609375 0 
L 7.328125 0 
L 7.328125 8.296875 
Q 12.9375 14.109375 22.625 23.890625 
Q 32.328125 33.6875 34.8125 36.53125 
Q 39.546875 41.84375 41.421875 45.53125 
Q 43.3125 49.21875 43.3125 52.78125 
Q 43.3125 58.59375 39.234375 62.25 
Q 35.15625 65.921875 28.609375 65.921875 
Q 23.96875 65.921875 18.8125 64.3125 
Q 13.671875 62.703125 7.8125 59.421875 
L 7.8125 69.390625 
Q 13.765625 71.78125 18.9375 73 
Q 24.125 74.21875 28.421875 74.21875 
Q 39.75 74.21875 46.484375 68.546875 
Q 53.21875 62.890625 53.21875 53.421875 
Q 53.21875 48.921875 51.53125 44.890625 
Q 49.859375 40.875 45.40625 35.40625 
Q 44.1875 33.984375 37.640625 27.21875 
Q 31.109375 20.453125 19.1875 8.296875 
z
" id="DejaVuSans-50"/>
       </defs>
       <use xlink:href="#DejaVuSans-50"/>
       <use x="63.623047" xlink:href="#DejaVuSans-48"/>
      </g>
     </g>
    </g>
    <g id="xtick_4">
     <g id="line2d_4">
      <g>
       <use style="stroke:#000000;stroke-width:0.8;" x="557.986637" xlink:href="#m4fa059623e" y="640.8"/>
      </g>
     </g>
     <g id="text_4">
      <!-- 30 -->
      <g transform="translate(551.624137 655.398438)scale(0.1 -0.1)">
       <defs>
        <path d="M 40.578125 39.3125 
Q 47.65625 37.796875 51.625 33 
Q 55.609375 28.21875 55.609375 21.1875 
Q 55.609375 10.40625 48.1875 4.484375 
Q 40.765625 -1.421875 27.09375 -1.421875 
Q 22.515625 -1.421875 17.65625 -0.515625 
Q 12.796875 0.390625 7.625 2.203125 
L 7.625 11.71875 
Q 11.71875 9.328125 16.59375 8.109375 
Q 21.484375 6.890625 26.8125 6.890625 
Q 36.078125 6.890625 40.9375 10.546875 
Q 45.796875 14.203125 45.796875 21.1875 
Q 45.796875 27.640625 41.28125 31.265625 
Q 36.765625 34.90625 28.71875 34.90625 
L 20.21875 34.90625 
L 20.21875 43.015625 
L 29.109375 43.015625 
Q 36.375 43.015625 40.234375 45.921875 
Q 44.09375 48.828125 44.09375 54.296875 
Q 44.09375 59.90625 40.109375 62.90625 
Q 36.140625 65.921875 28.71875 65.921875 
Q 24.65625 65.921875 20.015625 65.03125 
Q 15.375 64.15625 9.8125 62.3125 
L 9.8125 71.09375 
Q 15.4375 72.65625 20.34375 73.4375 
Q 25.25 74.21875 29.59375 74.21875 
Q 40.828125 74.21875 47.359375 69.109375 
Q 53.90625 64.015625 53.90625 55.328125 
Q 53.90625 49.265625 50.4375 45.09375 
Q 46.96875 40.921875 40.578125 39.3125 
z
" id="DejaVuSans-51"/>
       </defs>
       <use xlink:href="#DejaVuSans-51"/>
       <use x="63.623047" xlink:href="#DejaVuSans-48"/>
      </g>
     </g>
    </g>
    <g id="xtick_5">
     <g id="line2d_5">
      <g>
       <use style="stroke:#000000;stroke-width:0.8;" x="686.300364" xlink:href="#m4fa059623e" y="640.8"/>
      </g>
     </g>
     <g id="text_5">
      <!-- 40 -->
      <g transform="translate(679.937864 655.398438)scale(0.1 -0.1)">
       <defs>
        <path d="M 37.796875 64.3125 
L 12.890625 25.390625 
L 37.796875 25.390625 
z
M 35.203125 72.90625 
L 47.609375 72.90625 
L 47.609375 25.390625 
L 58.015625 25.390625 
L 58.015625 17.1875 
L 47.609375 17.1875 
L 47.609375 0 
L 37.796875 0 
L 37.796875 17.1875 
L 4.890625 17.1875 
L 4.890625 26.703125 
z
" id="DejaVuSans-52"/>
       </defs>
       <use xlink:href="#DejaVuSans-52"/>
       <use x="63.623047" xlink:href="#DejaVuSans-48"/>
      </g>
     </g>
    </g>
    <g id="xtick_6">
     <g id="line2d_6">
      <g>
       <use style="stroke:#000000;stroke-width:0.8;" x="814.614091" xlink:href="#m4fa059623e" y="640.8"/>
      </g>
     </g>
     <g id="text_6">
      <!-- 50 -->
      <g transform="translate(808.251591 655.398438)scale(0.1 -0.1)">
       <defs>
        <path d="M 10.796875 72.90625 
L 49.515625 72.90625 
L 49.515625 64.59375 
L 19.828125 64.59375 
L 19.828125 46.734375 
Q 21.96875 47.46875 24.109375 47.828125 
Q 26.265625 48.1875 28.421875 48.1875 
Q 40.625 48.1875 47.75 41.5 
Q 54.890625 34.8125 54.890625 23.390625 
Q 54.890625 11.625 47.5625 5.09375 
Q 40.234375 -1.421875 26.90625 -1.421875 
Q 22.3125 -1.421875 17.546875 -0.640625 
Q 12.796875 0.140625 7.71875 1.703125 
L 7.71875 11.625 
Q 12.109375 9.234375 16.796875 8.0625 
Q 21.484375 6.890625 26.703125 6.890625 
Q 35.15625 6.890625 40.078125 11.328125 
Q 45.015625 15.765625 45.015625 23.390625 
Q 45.015625 31 40.078125 35.4375 
Q 35.15625 39.890625 26.703125 39.890625 
Q 22.75 39.890625 18.8125 39.015625 
Q 14.890625 38.140625 10.796875 36.28125 
z
" id="DejaVuSans-53"/>
       </defs>
       <use xlink:href="#DejaVuSans-53"/>
       <use x="63.623047" xlink:href="#DejaVuSans-48"/>
      </g>
     </g>
    </g>
    <g id="xtick_7">
     <g id="line2d_7">
      <g>
       <use style="stroke:#000000;stroke-width:0.8;" x="942.927819" xlink:href="#m4fa059623e" y="640.8"/>
      </g>
     </g>
     <g id="text_7">
      <!-- 60 -->
      <g transform="translate(936.565319 655.398438)scale(0.1 -0.1)">
       <defs>
        <path d="M 33.015625 40.375 
Q 26.375 40.375 22.484375 35.828125 
Q 18.609375 31.296875 18.609375 23.390625 
Q 18.609375 15.53125 22.484375 10.953125 
Q 26.375 6.390625 33.015625 6.390625 
Q 39.65625 6.390625 43.53125 10.953125 
Q 47.40625 15.53125 47.40625 23.390625 
Q 47.40625 31.296875 43.53125 35.828125 
Q 39.65625 40.375 33.015625 40.375 
z
M 52.59375 71.296875 
L 52.59375 62.3125 
Q 48.875 64.0625 45.09375 64.984375 
Q 41.3125 65.921875 37.59375 65.921875 
Q 27.828125 65.921875 22.671875 59.328125 
Q 17.53125 52.734375 16.796875 39.40625 
Q 19.671875 43.65625 24.015625 45.921875 
Q 28.375 48.1875 33.59375 48.1875 
Q 44.578125 48.1875 50.953125 41.515625 
Q 57.328125 34.859375 57.328125 23.390625 
Q 57.328125 12.15625 50.6875 5.359375 
Q 44.046875 -1.421875 33.015625 -1.421875 
Q 20.359375 -1.421875 13.671875 8.265625 
Q 6.984375 17.96875 6.984375 36.375 
Q 6.984375 53.65625 15.1875 63.9375 
Q 23.390625 74.21875 37.203125 74.21875 
Q 40.921875 74.21875 44.703125 73.484375 
Q 48.484375 72.75 52.59375 71.296875 
z
" id="DejaVuSans-54"/>
       </defs>
       <use xlink:href="#DejaVuSans-54"/>
       <use x="63.623047" xlink:href="#DejaVuSans-48"/>
      </g>
     </g>
    </g>
    <g id="text_8">
     <!-- time -->
     <g transform="translate(530.907812 676.675)scale(0.2 -0.2)">
      <defs>
       <path d="M 18.3125 70.21875 
L 18.3125 54.6875 
L 36.8125 54.6875 
L 36.8125 47.703125 
L 18.3125 47.703125 
L 18.3125 18.015625 
Q 18.3125 11.328125 20.140625 9.421875 
Q 21.96875 7.515625 27.59375 7.515625 
L 36.8125 7.515625 
L 36.8125 0 
L 27.59375 0 
Q 17.1875 0 13.234375 3.875 
Q 9.28125 7.765625 9.28125 18.015625 
L 9.28125 47.703125 
L 2.6875 47.703125 
L 2.6875 54.6875 
L 9.28125 54.6875 
L 9.28125 70.21875 
z
" id="DejaVuSans-116"/>
       <path d="M 9.421875 54.6875 
L 18.40625 54.6875 
L 18.40625 0 
L 9.421875 0 
z
M 9.421875 75.984375 
L 18.40625 75.984375 
L 18.40625 64.59375 
L 9.421875 64.59375 
z
" id="DejaVuSans-105"/>
       <path d="M 52 44.1875 
Q 55.375 50.25 60.0625 53.125 
Q 64.75 56 71.09375 56 
Q 79.640625 56 84.28125 50.015625 
Q 88.921875 44.046875 88.921875 33.015625 
L 88.921875 0 
L 79.890625 0 
L 79.890625 32.71875 
Q 79.890625 40.578125 77.09375 44.375 
Q 74.3125 48.1875 68.609375 48.1875 
Q 61.625 48.1875 57.5625 43.546875 
Q 53.515625 38.921875 53.515625 30.90625 
L 53.515625 0 
L 44.484375 0 
L 44.484375 32.71875 
Q 44.484375 40.625 41.703125 44.40625 
Q 38.921875 48.1875 33.109375 48.1875 
Q 26.21875 48.1875 22.15625 43.53125 
Q 18.109375 38.875 18.109375 30.90625 
L 18.109375 0 
L 9.078125 0 
L 9.078125 54.6875 
L 18.109375 54.6875 
L 18.109375 46.1875 
Q 21.1875 51.21875 25.484375 53.609375 
Q 29.78125 56 35.6875 56 
Q 41.65625 56 45.828125 52.96875 
Q 50 49.953125 52 44.1875 
z
" id="DejaVuSans-109"/>
       <path d="M 56.203125 29.59375 
L 56.203125 25.203125 
L 14.890625 25.203125 
Q 15.484375 15.921875 20.484375 11.0625 
Q 25.484375 6.203125 34.421875 6.203125 
Q 39.59375 6.203125 44.453125 7.46875 
Q 49.3125 8.734375 54.109375 11.28125 
L 54.109375 2.78125 
Q 49.265625 0.734375 44.1875 -0.34375 
Q 39.109375 -1.421875 33.890625 -1.421875 
Q 20.796875 -1.421875 13.15625 6.1875 
Q 5.515625 13.8125 5.515625 26.8125 
Q 5.515625 40.234375 12.765625 48.109375 
Q 20.015625 56 32.328125 56 
Q 43.359375 56 49.78125 48.890625 
Q 56.203125 41.796875 56.203125 29.59375 
z
M 47.21875 32.234375 
Q 47.125 39.59375 43.09375 43.984375 
Q 39.0625 48.390625 32.421875 48.390625 
Q 24.90625 48.390625 20.390625 44.140625 
Q 15.875 39.890625 15.1875 32.171875 
z
" id="DejaVuSans-101"/>
      </defs>
      <use xlink:href="#DejaVuSans-116"/>
      <use x="39.208984" xlink:href="#DejaVuSans-105"/>
      <use x="66.992188" xlink:href="#DejaVuSans-109"/>
      <use x="164.404297" xlink:href="#DejaVuSans-101"/>
     </g>
    </g>
   </g>
   <g id="matplotlib.axis_2">
    <g id="ytick_1">
     <g id="line2d_8">
      <defs>
       <path d="M 0 0 
L -3.5 0 
" id="m7b7da581f0" style="stroke:#000000;stroke-width:0.8;"/>
      </defs>
      <g>
       <use style="stroke:#000000;stroke-width:0.8;" x="135" xlink:href="#m7b7da581f0" y="631.461467"/>
      </g>
     </g>
     <g id="text_9">
      <!-- 0 -->
      <g transform="translate(121.6375 635.260685)scale(0.1 -0.1)">
       <use xlink:href="#DejaVuSans-48"/>
      </g>
     </g>
    </g>
    <g id="ytick_2">
     <g id="line2d_9">
      <g>
       <use style="stroke:#000000;stroke-width:0.8;" x="135" xlink:href="#m7b7da581f0" y="555.569282"/>
      </g>
     </g>
     <g id="text_10">
      <!-- 100 -->
      <g transform="translate(108.9125 559.3685)scale(0.1 -0.1)">
       <use xlink:href="#DejaVuSans-49"/>
       <use x="63.623047" xlink:href="#DejaVuSans-48"/>
       <use x="127.246094" xlink:href="#DejaVuSans-48"/>
      </g>
     </g>
    </g>
    <g id="ytick_3">
     <g id="line2d_10">
      <g>
       <use style="stroke:#000000;stroke-width:0.8;" x="135" xlink:href="#m7b7da581f0" y="479.677097"/>
      </g>
     </g>
     <g id="text_11">
      <!-- 200 -->
      <g transform="translate(108.9125 483.476316)scale(0.1 -0.1)">
       <use xlink:href="#DejaVuSans-50"/>
       <use x="63.623047" xlink:href="#DejaVuSans-48"/>
       <use x="127.246094" xlink:href="#DejaVuSans-48"/>
      </g>
     </g>
    </g>
    <g id="ytick_4">
     <g id="line2d_11">
      <g>
       <use style="stroke:#000000;stroke-width:0.8;" x="135" xlink:href="#m7b7da581f0" y="403.784912"/>
      </g>
     </g>
     <g id="text_12">
      <!-- 300 -->
      <g transform="translate(108.9125 407.584131)scale(0.1 -0.1)">
       <use xlink:href="#DejaVuSans-51"/>
       <use x="63.623047" xlink:href="#DejaVuSans-48"/>
       <use x="127.246094" xlink:href="#DejaVuSans-48"/>
      </g>
     </g>
    </g>
    <g id="ytick_5">
     <g id="line2d_12">
      <g>
       <use style="stroke:#000000;stroke-width:0.8;" x="135" xlink:href="#m7b7da581f0" y="327.892727"/>
      </g>
     </g>
     <g id="text_13">
      <!-- 400 -->
      <g transform="translate(108.9125 331.691946)scale(0.1 -0.1)">
       <use xlink:href="#DejaVuSans-52"/>
       <use x="63.623047" xlink:href="#DejaVuSans-48"/>
       <use x="127.246094" xlink:href="#DejaVuSans-48"/>
      </g>
     </g>
    </g>
    <g id="ytick_6">
     <g id="line2d_13">
      <g>
       <use style="stroke:#000000;stroke-width:0.8;" x="135" xlink:href="#m7b7da581f0" y="252.000542"/>
      </g>
     </g>
     <g id="text_14">
      <!-- 500 -->
      <g transform="translate(108.9125 255.799761)scale(0.1 -0.1)">
       <use xlink:href="#DejaVuSans-53"/>
       <use x="63.623047" xlink:href="#DejaVuSans-48"/>
       <use x="127.246094" xlink:href="#DejaVuSans-48"/>
      </g>
     </g>
    </g>
    <g id="ytick_7">
     <g id="line2d_14">
      <g>
       <use style="stroke:#000000;stroke-width:0.8;" x="135" xlink:href="#m7b7da581f0" y="176.108357"/>
      </g>
     </g>
     <g id="text_15">
      <!-- 600 -->
      <g transform="translate(108.9125 179.907576)scale(0.1 -0.1)">
       <use xlink:href="#DejaVuSans-54"/>
       <use x="63.623047" xlink:href="#DejaVuSans-48"/>
       <use x="127.246094" xlink:href="#DejaVuSans-48"/>
      </g>
     </g>
    </g>
    <g id="ytick_8">
     <g id="line2d_15">
      <g>
       <use style="stroke:#000000;stroke-width:0.8;" x="135" xlink:href="#m7b7da581f0" y="100.216172"/>
      </g>
     </g>
     <g id="text_16">
      <!-- 700 -->
      <g transform="translate(108.9125 104.015391)scale(0.1 -0.1)">
       <defs>
        <path d="M 8.203125 72.90625 
L 55.078125 72.90625 
L 55.078125 68.703125 
L 28.609375 0 
L 18.3125 0 
L 43.21875 64.59375 
L 8.203125 64.59375 
z
" id="DejaVuSans-55"/>
       </defs>
       <use xlink:href="#DejaVuSans-55"/>
       <use x="63.623047" xlink:href="#DejaVuSans-48"/>
       <use x="127.246094" xlink:href="#DejaVuSans-48"/>
      </g>
     </g>
    </g>
    <g id="text_17">
     <!-- rtt -->
     <g transform="translate(100.753125 375.551562)rotate(-90)scale(0.2 -0.2)">
      <defs>
       <path d="M 41.109375 46.296875 
Q 39.59375 47.171875 37.8125 47.578125 
Q 36.03125 48 33.890625 48 
Q 26.265625 48 22.1875 43.046875 
Q 18.109375 38.09375 18.109375 28.8125 
L 18.109375 0 
L 9.078125 0 
L 9.078125 54.6875 
L 18.109375 54.6875 
L 18.109375 46.1875 
Q 20.953125 51.171875 25.484375 53.578125 
Q 30.03125 56 36.53125 56 
Q 37.453125 56 38.578125 55.875 
Q 39.703125 55.765625 41.0625 55.515625 
z
" id="DejaVuSans-114"/>
      </defs>
      <use xlink:href="#DejaVuSans-114"/>
      <use x="41.113281" xlink:href="#DejaVuSans-116"/>
      <use x="80.322266" xlink:href="#DejaVuSans-116"/>
     </g>
    </g>
   </g>
   <g id="line2d_16">
    <path clip-path="url(#pb64f1cbe97)" d="M 173.045455 603.760819 
L 304.712853 601.71173 
L 306.588092 614.613402 
L 308.238606 610.135763 
L 309.97238 604.292064 
L 311.79876 603.305466 
L 313.643422 611.957175 
L 315.339038 608.086674 
L 317.095191 605.961693 
L 318.894573 601.484054 
L 320.778537 613.019666 
L 322.464095 610.894685 
L 324.17847 605.126878 
L 325.989321 602.39476 
L 327.85277 614.158048 
L 329.510608 611.046469 
L 331.220762 605.202771 
L 462.719633 609.832194 
L 464.462786 604.975094 
L 466.286395 602.698329 
L 468.146151 611.805391 
L 469.845203 610.439331 
L 471.575511 606.189369 
L 603.074835 608.31435 
L 604.834462 603.45725 
L 736.363926 608.693811 
L 738.133924 604.367957 
L 739.973288 601.939407 
L 741.827244 613.019666 
L 743.508102 610.211655 
L 745.232252 605.658124 
L 747.022407 602.318868 
L 748.881996 614.309833 
L 750.523332 609.68041 
L 752.242403 605.278663 
L 754.051205 600.801024 
L 755.917591 615.6 
L 757.540709 610.667008 
L 759.226508 606.265261 
L 761.015994 602.698329 
L 762.858361 614.91697 
L 764.51321 609.604517 
L 766.262859 605.430447 
L 768.073915 602.622436 
L 769.904853 615.068755 
L 771.514637 608.769703 
L 773.246437 603.609035 
L 775.074754 602.242975 
L 776.921613 613.778588 
L 778.571252 609.983978 
L 780.296518 604.595633 
L 782.100302 602.091191 
L 783.966303 614.006264 
L 785.634331 609.604517 
L 787.373559 604.216172 
L 789.221792 602.39476 
L 791.084277 614.537509 
L 792.740129 610.667008 
L 794.453269 607.327752 
L 796.22677 601.635838 
L 798.110658 611.577714 
L 799.816323 610.667008 
L 801.548197 604.14028 
L 803.386175 603.001897 
L 805.232765 613.85448 
L 806.905528 608.99738 
L 808.669173 605.809908 
L 810.477923 603.077789 
L 812.327412 615.220539 
L 813.972328 609.528625 
L 815.710724 606.56883 
L 817.503921 603.760819 
L 819.346683 613.323234 
L 821.01706 611.577714 
L 822.723041 605.961693 
L 824.535998 602.470652 
L 826.391159 614.461617 
L 828.045855 608.921488 
L 829.800377 605.961693 
L 831.606624 601.863515 
L 833.500356 614.158048 
L 835.176571 610.211655 
" style="fill:none;stroke:#ff7f50;stroke-linecap:square;stroke-width:1.5;"/>
   </g>
   <g id="line2d_17">
    <path clip-path="url(#pb64f1cbe97)" d="M 173.045455 597.993013 
L 175.115362 564.52456 
L 177.619569 413.650896 
L 182.682842 349.901461 
L 188.835743 489.543081 
L 192.62631 513.82858 
L 196.003565 517.623189 
L 199.291373 518.382111 
L 202.580568 563.537961 
L 205.103653 559.819244 
L 207.688314 558.529077 
L 210.305874 555.569282 
L 212.970042 554.81036 
L 215.635797 553.292516 
L 221.061208 548.738985 
L 223.824238 547.980063 
L 226.615438 545.703298 
L 229.456928 542.66761 
L 232.330296 540.390845 
L 235.261149 539.631923 
L 238.182097 538.114079 
L 241.125882 535.837314 
L 244.12455 534.31947 
L 247.142271 532.042704 
L 250.19026 532.801626 
L 253.236349 529.765939 
L 256.32472 529.765939 
L 259.416991 527.489173 
L 262.54151 524.453486 
L 268.923795 521.417799 
L 272.168337 518.382111 
L 278.739154 516.864267 
L 285.391849 513.82858 
L 288.73555 511.551814 
L 292.144896 510.033971 
L 295.564034 511.551814 
L 298.967568 508.516127 
L 302.423341 506.239362 
L 305.932938 506.239362 
L 309.432167 502.444752 
L 312.98311 500.926909 
L 316.552106 500.167987 
L 320.137921 497.132299 
L 323.788231 497.132299 
L 327.423666 494.855534 
L 334.797264 493.33769 
L 338.498963 491.819846 
L 342.215466 489.543081 
L 345.997938 488.784159 
L 349.768424 485.748472 
L 353.595393 486.507393 
L 357.43141 484.230628 
L 361.293689 484.230628 
L 365.149892 480.436019 
L 369.082358 480.436019 
L 373.015265 478.159253 
L 376.982956 478.918175 
L 380.932453 475.123566 
L 384.932684 473.605722 
L 388.988001 473.605722 
L 393.033515 471.328956 
L 397.121115 470.570035 
L 401.210551 469.052191 
L 405.335566 466.775425 
L 409.491816 467.534347 
L 413.641341 464.49866 
L 417.827911 465.257582 
L 422.014414 460.704051 
L 426.279793 461.462972 
L 430.522631 459.186207 
L 434.824476 459.186207 
L 439.112141 456.909441 
L 443.423574 456.15052 
L 447.786766 452.35591 
L 456.604321 450.838067 
L 474.455838 444.766692 
L 479.008895 445.525614 
L 483.522176 444.766692 
L 488.041322 443.248848 
L 492.593535 442.489926 
L 497.192915 536.596236 
L 500.167072 535.078392 
L 503.168393 532.801626 
L 506.223687 531.283783 
L 509.279015 531.283783 
L 512.341569 529.007017 
L 515.449057 528.248095 
L 518.558239 525.212408 
L 521.743475 524.453486 
L 524.932623 521.417799 
L 528.157109 519.899955 
L 531.419767 519.899955 
L 534.700414 516.864267 
L 538.013758 516.105346 
L 541.331091 514.587502 
L 544.686818 510.792893 
L 554.947204 508.516127 
L 561.863226 505.48044 
L 565.369027 502.444752 
L 568.922763 500.926909 
L 572.510878 500.926909 
L 576.094166 497.891221 
L 579.713771 498.650143 
L 583.326825 494.096612 
L 590.734353 494.096612 
L 594.432675 491.060925 
L 598.178861 488.784159 
L 601.95739 489.543081 
L 605.717367 488.784159 
L 609.498977 485.748472 
L 613.353781 483.471706 
L 617.216999 482.712784 
L 621.108548 480.436019 
L 625.039861 478.918175 
L 628.987278 478.918175 
L 632.936751 478.159253 
L 640.875534 475.123566 
L 644.891227 472.8468 
L 648.950419 474.364644 
L 652.987453 469.811113 
L 661.230171 466.775425 
L 665.396878 466.016504 
L 677.995042 461.462972 
L 682.240119 460.704051 
L 686.504216 458.427285 
L 690.800521 457.668363 
L 695.117827 456.15052 
L 699.45165 453.873754 
L 703.824427 453.114832 
L 708.207816 453.873754 
L 712.578105 452.35591 
L 716.97493 451.596988 
L 725.81513 447.043457 
L 730.290571 445.525614 
L 734.804981 443.248848 
L 739.360155 442.489926 
L 743.93132 440.972083 
L 748.528467 481.953862 
L 752.435441 535.837314 
L 755.418029 532.801626 
L 761.508993 531.283783 
L 764.574536 527.489173 
L 767.698987 526.730251 
L 770.836462 525.212408 
L 774.005159 525.97133 
L 777.158814 522.17672 
L 780.369263 520.658877 
L 783.616317 520.658877 
L 786.86222 519.141033 
L 793.436785 514.587502 
L 796.788785 515.346424 
L 800.126524 511.551814 
L 810.386757 506.998283 
L 813.8627 504.721518 
L 824.515293 500.167987 
L 828.102995 501.68583 
L 831.671501 497.132299 
L 835.339646 497.891221 
L 842.658649 491.819846 
L 850.131112 490.302003 
L 853.884405 490.302003 
L 857.641636 487.266315 
L 861.438336 486.507393 
L 865.266051 486.507393 
L 869.091188 482.712784 
L 872.995145 481.953862 
L 884.776257 477.400331 
L 888.746144 477.400331 
L 892.736531 475.123566 
L 896.744077 474.364644 
L 900.773935 471.328956 
L 908.949138 469.811113 
L 913.046669 467.534347 
L 917.206703 467.534347 
L 925.520215 462.980816 
L 929.747971 463.739738 
L 933.954545 462.221894 
L 933.954545 462.221894 
" style="fill:none;stroke:#6a5acd;stroke-linecap:square;stroke-width:1.5;"/>
   </g>
   <g id="line2d_18">
    <path clip-path="url(#pb64f1cbe97)" d="M 173.045455 604.519741 
L 174.945345 564.828128 
L 177.446474 414.409818 
L 182.519424 111.6 
L 322.357428 462.980816 
L 326.58483 462.980816 
L 330.807324 461.462972 
L 335.045849 460.704051 
L 339.30413 458.427285 
L 343.604721 456.909441 
L 347.920874 456.909441 
L 352.245752 454.632676 
L 356.596303 454.632676 
L 360.952621 452.35591 
L 365.356616 451.596988 
L 369.767193 450.079145 
L 374.192903 448.561301 
L 378.657362 447.043457 
L 383.140476 444.766692 
L 387.659071 445.525614 
L 392.171914 443.248848 
L 396.713591 441.731004 
L 401.294212 439.454239 
L 405.908014 437.936395 
L 410.551508 436.418551 
L 415.22807 437.936395 
L 419.887063 436.418551 
L 424.544645 432.623942 
L 429.290676 433.382864 
L 434.026966 430.347177 
L 438.817084 429.588255 
L 443.602172 429.588255 
L 448.396181 425.793646 
L 453.24287 425.034724 
L 458.121036 425.034724 
L 462.98151 423.51688 
L 467.882993 421.999036 
L 472.802978 421.999036 
L 477.704446 420.481193 
L 482.639767 417.445505 
L 487.624675 417.445505 
L 492.615705 414.409818 
L 497.665968 414.409818 
L 502.711829 412.891974 
L 507.782518 413.650896 
L 512.836217 409.097365 
L 517.972013 409.097365 
L 523.108002 408.338443 
L 528.265635 406.820599 
L 533.434394 405.302756 
L 538.636145 403.02599 
L 543.865376 403.02599 
L 549.097511 400.749225 
L 554.37413 399.231381 
L 559.664723 399.231381 
L 564.953763 398.472459 
L 570.259717 397.713537 
L 575.612425 395.436772 
L 580.981996 396.195693 
L 586.326646 390.88324 
L 591.760005 391.642162 
L 597.199697 392.401084 
L 602.606003 390.88324 
L 608.043336 389.365397 
L 613.502996 387.847553 
L 618.98634 385.570788 
L 624.519626 383.294022 
L 630.076125 384.811866 
L 635.615609 383.294022 
L 641.181448 381.776178 
L 646.788076 379.499413 
L 652.411925 380.258335 
L 658.027024 377.981569 
L 663.681823 377.222647 
L 669.349147 376.463725 
L 675.023231 373.428038 
L 680.749396 371.910194 
L 686.520449 370.392351 
L 692.293181 369.633429 
L 698.108281 369.633429 
L 703.902557 368.115585 
L 709.722866 364.320976 
L 715.600638 364.320976 
L 721.486645 366.597741 
L 727.344831 363.562054 
L 733.240068 362.04421 
L 739.172229 359.767445 
L 745.126898 359.767445 
L 751.091894 358.249601 
L 757.081374 358.249601 
L 763.068813 354.454992 
L 769.128428 353.69607 
L 775.184605 353.69607 
L 781.258657 351.419304 
L 787.375615 350.660382 
L 793.49138 349.142539 
L 799.628651 349.142539 
L 805.79151 346.106851 
L 812.006 346.106851 
L 818.218026 344.589008 
L 824.429695 345.34793 
L 830.63873 342.312242 
L 836.906882 340.035477 
L 843.198684 340.035477 
L 849.492099 339.276555 
L 855.816632 339.276555 
L 862.125086 336.240867 
L 868.482044 334.723024 
L 874.866548 333.20518 
L 881.287983 333.964102 
" style="fill:none;stroke:#32cd32;stroke-linecap:square;stroke-width:1.5;"/>
   </g>
   <g id="patch_3">
    <path d="M 135 640.8 
L 135 86.4 
" style="fill:none;stroke:#000000;stroke-linecap:square;stroke-linejoin:miter;stroke-width:0.8;"/>
   </g>
   <g id="patch_4">
    <path d="M 972 640.8 
L 972 86.4 
" style="fill:none;stroke:#000000;stroke-linecap:square;stroke-linejoin:miter;stroke-width:0.8;"/>
   </g>
   <g id="patch_5">
    <path d="M 135 640.8 
L 972 640.8 
" style="fill:none;stroke:#000000;stroke-linecap:square;stroke-linejoin:miter;stroke-width:0.8;"/>
   </g>
   <g id="patch_6">
    <path d="M 135 86.4 
L 972 86.4 
" style="fill:none;stroke:#000000;stroke-linecap:square;stroke-linejoin:miter;stroke-width:0.8;"/>
   </g>
   <g id="legend_1">
    <g id="patch_7">
     <path d="M 877.559375 138.434375 
L 965 138.434375 
Q 967 138.434375 967 136.434375 
L 967 93.4 
Q 967 91.4 965 91.4 
L 877.559375 91.4 
Q 875.559375 91.4 875.559375 93.4 
L 875.559375 136.434375 
Q 875.559375 138.434375 877.559375 138.434375 
z
" style="fill:#ffffff;opacity:0.8;stroke:#cccccc;stroke-linejoin:miter;"/>
    </g>
    <g id="line2d_19">
     <path d="M 879.559375 99.498437 
L 899.559375 99.498437 
" style="fill:none;stroke:#ff7f50;stroke-linecap:square;stroke-width:1.5;"/>
    </g>
    <g id="line2d_20"/>
    <g id="text_18">
     <!-- qlen = 10 -->
     <g transform="translate(907.559375 102.998437)scale(0.1 -0.1)">
      <defs>
       <path d="M 14.796875 27.296875 
Q 14.796875 17.390625 18.875 11.75 
Q 22.953125 6.109375 30.078125 6.109375 
Q 37.203125 6.109375 41.296875 11.75 
Q 45.40625 17.390625 45.40625 27.296875 
Q 45.40625 37.203125 41.296875 42.84375 
Q 37.203125 48.484375 30.078125 48.484375 
Q 22.953125 48.484375 18.875 42.84375 
Q 14.796875 37.203125 14.796875 27.296875 
z
M 45.40625 8.203125 
Q 42.578125 3.328125 38.25 0.953125 
Q 33.9375 -1.421875 27.875 -1.421875 
Q 17.96875 -1.421875 11.734375 6.484375 
Q 5.515625 14.40625 5.515625 27.296875 
Q 5.515625 40.1875 11.734375 48.09375 
Q 17.96875 56 27.875 56 
Q 33.9375 56 38.25 53.625 
Q 42.578125 51.265625 45.40625 46.390625 
L 45.40625 54.6875 
L 54.390625 54.6875 
L 54.390625 -20.796875 
L 45.40625 -20.796875 
z
" id="DejaVuSans-113"/>
       <path d="M 9.421875 75.984375 
L 18.40625 75.984375 
L 18.40625 0 
L 9.421875 0 
z
" id="DejaVuSans-108"/>
       <path d="M 54.890625 33.015625 
L 54.890625 0 
L 45.90625 0 
L 45.90625 32.71875 
Q 45.90625 40.484375 42.875 44.328125 
Q 39.84375 48.1875 33.796875 48.1875 
Q 26.515625 48.1875 22.3125 43.546875 
Q 18.109375 38.921875 18.109375 30.90625 
L 18.109375 0 
L 9.078125 0 
L 9.078125 54.6875 
L 18.109375 54.6875 
L 18.109375 46.1875 
Q 21.34375 51.125 25.703125 53.5625 
Q 30.078125 56 35.796875 56 
Q 45.21875 56 50.046875 50.171875 
Q 54.890625 44.34375 54.890625 33.015625 
z
" id="DejaVuSans-110"/>
       <path id="DejaVuSans-32"/>
       <path d="M 10.59375 45.40625 
L 73.1875 45.40625 
L 73.1875 37.203125 
L 10.59375 37.203125 
z
M 10.59375 25.484375 
L 73.1875 25.484375 
L 73.1875 17.1875 
L 10.59375 17.1875 
z
" id="DejaVuSans-61"/>
      </defs>
      <use xlink:href="#DejaVuSans-113"/>
      <use x="63.476562" xlink:href="#DejaVuSans-108"/>
      <use x="91.259766" xlink:href="#DejaVuSans-101"/>
      <use x="152.783203" xlink:href="#DejaVuSans-110"/>
      <use x="216.162109" xlink:href="#DejaVuSans-32"/>
      <use x="247.949219" xlink:href="#DejaVuSans-61"/>
      <use x="331.738281" xlink:href="#DejaVuSans-32"/>
      <use x="363.525391" xlink:href="#DejaVuSans-49"/>
      <use x="427.148438" xlink:href="#DejaVuSans-48"/>
     </g>
    </g>
    <g id="line2d_21">
     <path d="M 879.559375 114.176562 
L 899.559375 114.176562 
" style="fill:none;stroke:#6a5acd;stroke-linecap:square;stroke-width:1.5;"/>
    </g>
    <g id="line2d_22"/>
    <g id="text_19">
     <!-- qlen = 100 -->
     <g transform="translate(907.559375 117.676562)scale(0.1 -0.1)">
      <use xlink:href="#DejaVuSans-113"/>
      <use x="63.476562" xlink:href="#DejaVuSans-108"/>
      <use x="91.259766" xlink:href="#DejaVuSans-101"/>
      <use x="152.783203" xlink:href="#DejaVuSans-110"/>
      <use x="216.162109" xlink:href="#DejaVuSans-32"/>
      <use x="247.949219" xlink:href="#DejaVuSans-61"/>
      <use x="331.738281" xlink:href="#DejaVuSans-32"/>
      <use x="363.525391" xlink:href="#DejaVuSans-49"/>
      <use x="427.148438" xlink:href="#DejaVuSans-48"/>
      <use x="490.771484" xlink:href="#DejaVuSans-48"/>
     </g>
    </g>
    <g id="line2d_23">
     <path d="M 879.559375 128.854687 
L 899.559375 128.854687 
" style="fill:none;stroke:#32cd32;stroke-linecap:square;stroke-width:1.5;"/>
    </g>
    <g id="line2d_24"/>
    <g id="text_20">
     <!-- qlen = 200 -->
     <g transform="translate(907.559375 132.354687)scale(0.1 -0.1)">
      <use xlink:href="#DejaVuSans-113"/>
      <use x="63.476562" xlink:href="#DejaVuSans-108"/>
      <use x="91.259766" xlink:href="#DejaVuSans-101"/>
      <use x="152.783203" xlink:href="#DejaVuSans-110"/>
      <use x="216.162109" xlink:href="#DejaVuSans-32"/>
      <use x="247.949219" xlink:href="#DejaVuSans-61"/>
      <use x="331.738281" xlink:href="#DejaVuSans-32"/>
      <use x="363.525391" xlink:href="#DejaVuSans-50"/>
      <use x="427.148438" xlink:href="#DejaVuSans-48"/>
      <use x="490.771484" xlink:href="#DejaVuSans-48"/>
     </g>
    </g>
   </g>
  </g>
 </g>
 <defs>
  <clipPath id="pb64f1cbe97">
   <rect height="554.4" width="837" x="135" y="86.4"/>
  </clipPath>
 </defs>
</svg>
