<?xml version="1.0" encoding="utf-8" standalone="no"?>
<!DOCTYPE svg PUBLIC "-//W3C//DTD SVG 1.1//EN"
  "http://www.w3.org/Graphics/SVG/1.1/DTD/svg11.dtd">
<!-- Created with matplotlib (https://matplotlib.org/) -->
<svg height="720pt" version="1.1" viewBox="0 0 1080 720" width="1080pt" xmlns="http://www.w3.org/2000/svg" xmlns:xlink="http://www.w3.org/1999/xlink">
 <metadata>
  <rdf:RDF xmlns:cc="http://creativecommons.org/ns#" xmlns:dc="http://purl.org/dc/elements/1.1/" xmlns:rdf="http://www.w3.org/1999/02/22-rdf-syntax-ns#">
   <cc:Work>
    <dc:type rdf:resource="http://purl.org/dc/dcmitype/StillImage"/>
    <dc:date>2021-04-26T10:50:48.068241</dc:date>
    <dc:format>image/svg+xml</dc:format>
    <dc:creator>
     <cc:Agent>
      <dc:title>Matplotlib v3.3.2, https://matplotlib.org/</dc:title>
     </cc:Agent>
    </dc:creator>
   </cc:Work>
  </rdf:RDF>
 </metadata>
 <defs>
  <style type="text/css">*{stroke-linecap:butt;stroke-linejoin:round;}</style>
 </defs>
 <g id="figure_1">
  <g id="patch_1">
   <path d="M 0 720 
L 1080 720 
L 1080 0 
L 0 0 
z
" style="fill:#ffffff;"/>
  </g>
  <g id="axes_1">
   <g id="patch_2">
    <path d="M 135 640.8 
L 972 640.8 
L 972 86.4 
L 135 86.4 
z
" style="fill:#ffffff;"/>
   </g>
   <g id="matplotlib.axis_1">
    <g id="xtick_1">
     <g id="line2d_1">
      <defs>
       <path d="M 0 0 
L 0 3.5 
" id="mb108a9489e" style="stroke:#000000;stroke-width:0.8;"/>
      </defs>
      <g>
       <use style="stroke:#000000;stroke-width:0.8;" x="173.045455" xlink:href="#mb108a9489e" y="640.8"/>
      </g>
     </g>
     <g id="text_1">
      <!-- 0 -->
      <g transform="translate(169.864205 655.398438)scale(0.1 -0.1)">
       <defs>
        <path d="M 31.78125 66.40625 
Q 24.171875 66.40625 20.328125 58.90625 
Q 16.5 51.421875 16.5 36.375 
Q 16.5 21.390625 20.328125 13.890625 
Q 24.171875 6.390625 31.78125 6.390625 
Q 39.453125 6.390625 43.28125 13.890625 
Q 47.125 21.390625 47.125 36.375 
Q 47.125 51.421875 43.28125 58.90625 
Q 39.453125 66.40625 31.78125 66.40625 
z
M 31.78125 74.21875 
Q 44.046875 74.21875 50.515625 64.515625 
Q 56.984375 54.828125 56.984375 36.375 
Q 56.984375 17.96875 50.515625 8.265625 
Q 44.046875 -1.421875 31.78125 -1.421875 
Q 19.53125 -1.421875 13.0625 8.265625 
Q 6.59375 17.96875 6.59375 36.375 
Q 6.59375 54.828125 13.0625 64.515625 
Q 19.53125 74.21875 31.78125 74.21875 
z
" id="DejaVuSans-48"/>
       </defs>
       <use xlink:href="#DejaVuSans-48"/>
      </g>
     </g>
    </g>
    <g id="xtick_2">
     <g id="line2d_2">
      <g>
       <use style="stroke:#000000;stroke-width:0.8;" x="301.43208" xlink:href="#mb108a9489e" y="640.8"/>
      </g>
     </g>
     <g id="text_2">
      <!-- 10 -->
      <g transform="translate(295.06958 655.398438)scale(0.1 -0.1)">
       <defs>
        <path d="M 12.40625 8.296875 
L 28.515625 8.296875 
L 28.515625 63.921875 
L 10.984375 60.40625 
L 10.984375 69.390625 
L 28.421875 72.90625 
L 38.28125 72.90625 
L 38.28125 8.296875 
L 54.390625 8.296875 
L 54.390625 0 
L 12.40625 0 
z
" id="DejaVuSans-49"/>
       </defs>
       <use xlink:href="#DejaVuSans-49"/>
       <use x="63.623047" xlink:href="#DejaVuSans-48"/>
      </g>
     </g>
    </g>
    <g id="xtick_3">
     <g id="line2d_3">
      <g>
       <use style="stroke:#000000;stroke-width:0.8;" x="429.818706" xlink:href="#mb108a9489e" y="640.8"/>
      </g>
     </g>
     <g id="text_3">
      <!-- 20 -->
      <g transform="translate(423.456206 655.398438)scale(0.1 -0.1)">
       <defs>
        <path d="M 19.1875 8.296875 
L 53.609375 8.296875 
L 53.609375 0 
L 7.328125 0 
L 7.328125 8.296875 
Q 12.9375 14.109375 22.625 23.890625 
Q 32.328125 33.6875 34.8125 36.53125 
Q 39.546875 41.84375 41.421875 45.53125 
Q 43.3125 49.21875 43.3125 52.78125 
Q 43.3125 58.59375 39.234375 62.25 
Q 35.15625 65.921875 28.609375 65.921875 
Q 23.96875 65.921875 18.8125 64.3125 
Q 13.671875 62.703125 7.8125 59.421875 
L 7.8125 69.390625 
Q 13.765625 71.78125 18.9375 73 
Q 24.125 74.21875 28.421875 74.21875 
Q 39.75 74.21875 46.484375 68.546875 
Q 53.21875 62.890625 53.21875 53.421875 
Q 53.21875 48.921875 51.53125 44.890625 
Q 49.859375 40.875 45.40625 35.40625 
Q 44.1875 33.984375 37.640625 27.21875 
Q 31.109375 20.453125 19.1875 8.296875 
z
" id="DejaVuSans-50"/>
       </defs>
       <use xlink:href="#DejaVuSans-50"/>
       <use x="63.623047" xlink:href="#DejaVuSans-48"/>
      </g>
     </g>
    </g>
    <g id="xtick_4">
     <g id="line2d_4">
      <g>
       <use style="stroke:#000000;stroke-width:0.8;" x="558.205332" xlink:href="#mb108a9489e" y="640.8"/>
      </g>
     </g>
     <g id="text_4">
      <!-- 30 -->
      <g transform="translate(551.842832 655.398438)scale(0.1 -0.1)">
       <defs>
        <path d="M 40.578125 39.3125 
Q 47.65625 37.796875 51.625 33 
Q 55.609375 28.21875 55.609375 21.1875 
Q 55.609375 10.40625 48.1875 4.484375 
Q 40.765625 -1.421875 27.09375 -1.421875 
Q 22.515625 -1.421875 17.65625 -0.515625 
Q 12.796875 0.390625 7.625 2.203125 
L 7.625 11.71875 
Q 11.71875 9.328125 16.59375 8.109375 
Q 21.484375 6.890625 26.8125 6.890625 
Q 36.078125 6.890625 40.9375 10.546875 
Q 45.796875 14.203125 45.796875 21.1875 
Q 45.796875 27.640625 41.28125 31.265625 
Q 36.765625 34.90625 28.71875 34.90625 
L 20.21875 34.90625 
L 20.21875 43.015625 
L 29.109375 43.015625 
Q 36.375 43.015625 40.234375 45.921875 
Q 44.09375 48.828125 44.09375 54.296875 
Q 44.09375 59.90625 40.109375 62.90625 
Q 36.140625 65.921875 28.71875 65.921875 
Q 24.65625 65.921875 20.015625 65.03125 
Q 15.375 64.15625 9.8125 62.3125 
L 9.8125 71.09375 
Q 15.4375 72.65625 20.34375 73.4375 
Q 25.25 74.21875 29.59375 74.21875 
Q 40.828125 74.21875 47.359375 69.109375 
Q 53.90625 64.015625 53.90625 55.328125 
Q 53.90625 49.265625 50.4375 45.09375 
Q 46.96875 40.921875 40.578125 39.3125 
z
" id="DejaVuSans-51"/>
       </defs>
       <use xlink:href="#DejaVuSans-51"/>
       <use x="63.623047" xlink:href="#DejaVuSans-48"/>
      </g>
     </g>
    </g>
    <g id="xtick_5">
     <g id="line2d_5">
      <g>
       <use style="stroke:#000000;stroke-width:0.8;" x="686.591958" xlink:href="#mb108a9489e" y="640.8"/>
      </g>
     </g>
     <g id="text_5">
      <!-- 40 -->
      <g transform="translate(680.229458 655.398438)scale(0.1 -0.1)">
       <defs>
        <path d="M 37.796875 64.3125 
L 12.890625 25.390625 
L 37.796875 25.390625 
z
M 35.203125 72.90625 
L 47.609375 72.90625 
L 47.609375 25.390625 
L 58.015625 25.390625 
L 58.015625 17.1875 
L 47.609375 17.1875 
L 47.609375 0 
L 37.796875 0 
L 37.796875 17.1875 
L 4.890625 17.1875 
L 4.890625 26.703125 
z
" id="DejaVuSans-52"/>
       </defs>
       <use xlink:href="#DejaVuSans-52"/>
       <use x="63.623047" xlink:href="#DejaVuSans-48"/>
      </g>
     </g>
    </g>
    <g id="xtick_6">
     <g id="line2d_6">
      <g>
       <use style="stroke:#000000;stroke-width:0.8;" x="814.978583" xlink:href="#mb108a9489e" y="640.8"/>
      </g>
     </g>
     <g id="text_6">
      <!-- 50 -->
      <g transform="translate(808.616083 655.398438)scale(0.1 -0.1)">
       <defs>
        <path d="M 10.796875 72.90625 
L 49.515625 72.90625 
L 49.515625 64.59375 
L 19.828125 64.59375 
L 19.828125 46.734375 
Q 21.96875 47.46875 24.109375 47.828125 
Q 26.265625 48.1875 28.421875 48.1875 
Q 40.625 48.1875 47.75 41.5 
Q 54.890625 34.8125 54.890625 23.390625 
Q 54.890625 11.625 47.5625 5.09375 
Q 40.234375 -1.421875 26.90625 -1.421875 
Q 22.3125 -1.421875 17.546875 -0.640625 
Q 12.796875 0.140625 7.71875 1.703125 
L 7.71875 11.625 
Q 12.109375 9.234375 16.796875 8.0625 
Q 21.484375 6.890625 26.703125 6.890625 
Q 35.15625 6.890625 40.078125 11.328125 
Q 45.015625 15.765625 45.015625 23.390625 
Q 45.015625 31 40.078125 35.4375 
Q 35.15625 39.890625 26.703125 39.890625 
Q 22.75 39.890625 18.8125 39.015625 
Q 14.890625 38.140625 10.796875 36.28125 
z
" id="DejaVuSans-53"/>
       </defs>
       <use xlink:href="#DejaVuSans-53"/>
       <use x="63.623047" xlink:href="#DejaVuSans-48"/>
      </g>
     </g>
    </g>
    <g id="xtick_7">
     <g id="line2d_7">
      <g>
       <use style="stroke:#000000;stroke-width:0.8;" x="943.365209" xlink:href="#mb108a9489e" y="640.8"/>
      </g>
     </g>
     <g id="text_7">
      <!-- 60 -->
      <g transform="translate(937.002709 655.398438)scale(0.1 -0.1)">
       <defs>
        <path d="M 33.015625 40.375 
Q 26.375 40.375 22.484375 35.828125 
Q 18.609375 31.296875 18.609375 23.390625 
Q 18.609375 15.53125 22.484375 10.953125 
Q 26.375 6.390625 33.015625 6.390625 
Q 39.65625 6.390625 43.53125 10.953125 
Q 47.40625 15.53125 47.40625 23.390625 
Q 47.40625 31.296875 43.53125 35.828125 
Q 39.65625 40.375 33.015625 40.375 
z
M 52.59375 71.296875 
L 52.59375 62.3125 
Q 48.875 64.0625 45.09375 64.984375 
Q 41.3125 65.921875 37.59375 65.921875 
Q 27.828125 65.921875 22.671875 59.328125 
Q 17.53125 52.734375 16.796875 39.40625 
Q 19.671875 43.65625 24.015625 45.921875 
Q 28.375 48.1875 33.59375 48.1875 
Q 44.578125 48.1875 50.953125 41.515625 
Q 57.328125 34.859375 57.328125 23.390625 
Q 57.328125 12.15625 50.6875 5.359375 
Q 44.046875 -1.421875 33.015625 -1.421875 
Q 20.359375 -1.421875 13.671875 8.265625 
Q 6.984375 17.96875 6.984375 36.375 
Q 6.984375 53.65625 15.1875 63.9375 
Q 23.390625 74.21875 37.203125 74.21875 
Q 40.921875 74.21875 44.703125 73.484375 
Q 48.484375 72.75 52.59375 71.296875 
z
" id="DejaVuSans-54"/>
       </defs>
       <use xlink:href="#DejaVuSans-54"/>
       <use x="63.623047" xlink:href="#DejaVuSans-48"/>
      </g>
     </g>
    </g>
    <g id="text_8">
     <!-- time -->
     <g transform="translate(530.907812 676.675)scale(0.2 -0.2)">
      <defs>
       <path d="M 18.3125 70.21875 
L 18.3125 54.6875 
L 36.8125 54.6875 
L 36.8125 47.703125 
L 18.3125 47.703125 
L 18.3125 18.015625 
Q 18.3125 11.328125 20.140625 9.421875 
Q 21.96875 7.515625 27.59375 7.515625 
L 36.8125 7.515625 
L 36.8125 0 
L 27.59375 0 
Q 17.1875 0 13.234375 3.875 
Q 9.28125 7.765625 9.28125 18.015625 
L 9.28125 47.703125 
L 2.6875 47.703125 
L 2.6875 54.6875 
L 9.28125 54.6875 
L 9.28125 70.21875 
z
" id="DejaVuSans-116"/>
       <path d="M 9.421875 54.6875 
L 18.40625 54.6875 
L 18.40625 0 
L 9.421875 0 
z
M 9.421875 75.984375 
L 18.40625 75.984375 
L 18.40625 64.59375 
L 9.421875 64.59375 
z
" id="DejaVuSans-105"/>
       <path d="M 52 44.1875 
Q 55.375 50.25 60.0625 53.125 
Q 64.75 56 71.09375 56 
Q 79.640625 56 84.28125 50.015625 
Q 88.921875 44.046875 88.921875 33.015625 
L 88.921875 0 
L 79.890625 0 
L 79.890625 32.71875 
Q 79.890625 40.578125 77.09375 44.375 
Q 74.3125 48.1875 68.609375 48.1875 
Q 61.625 48.1875 57.5625 43.546875 
Q 53.515625 38.921875 53.515625 30.90625 
L 53.515625 0 
L 44.484375 0 
L 44.484375 32.71875 
Q 44.484375 40.625 41.703125 44.40625 
Q 38.921875 48.1875 33.109375 48.1875 
Q 26.21875 48.1875 22.15625 43.53125 
Q 18.109375 38.875 18.109375 30.90625 
L 18.109375 0 
L 9.078125 0 
L 9.078125 54.6875 
L 18.109375 54.6875 
L 18.109375 46.1875 
Q 21.1875 51.21875 25.484375 53.609375 
Q 29.78125 56 35.6875 56 
Q 41.65625 56 45.828125 52.96875 
Q 50 49.953125 52 44.1875 
z
" id="DejaVuSans-109"/>
       <path d="M 56.203125 29.59375 
L 56.203125 25.203125 
L 14.890625 25.203125 
Q 15.484375 15.921875 20.484375 11.0625 
Q 25.484375 6.203125 34.421875 6.203125 
Q 39.59375 6.203125 44.453125 7.46875 
Q 49.3125 8.734375 54.109375 11.28125 
L 54.109375 2.78125 
Q 49.265625 0.734375 44.1875 -0.34375 
Q 39.109375 -1.421875 33.890625 -1.421875 
Q 20.796875 -1.421875 13.15625 6.1875 
Q 5.515625 13.8125 5.515625 26.8125 
Q 5.515625 40.234375 12.765625 48.109375 
Q 20.015625 56 32.328125 56 
Q 43.359375 56 49.78125 48.890625 
Q 56.203125 41.796875 56.203125 29.59375 
z
M 47.21875 32.234375 
Q 47.125 39.59375 43.09375 43.984375 
Q 39.0625 48.390625 32.421875 48.390625 
Q 24.90625 48.390625 20.390625 44.140625 
Q 15.875 39.890625 15.1875 32.171875 
z
" id="DejaVuSans-101"/>
      </defs>
      <use xlink:href="#DejaVuSans-116"/>
      <use x="39.208984" xlink:href="#DejaVuSans-105"/>
      <use x="66.992188" xlink:href="#DejaVuSans-109"/>
      <use x="164.404297" xlink:href="#DejaVuSans-101"/>
     </g>
    </g>
   </g>
   <g id="matplotlib.axis_2">
    <g id="ytick_1">
     <g id="line2d_8">
      <defs>
       <path d="M 0 0 
L -3.5 0 
" id="m68ae3ecdd9" style="stroke:#000000;stroke-width:0.8;"/>
      </defs>
      <g>
       <use style="stroke:#000000;stroke-width:0.8;" x="135" xlink:href="#m68ae3ecdd9" y="542.522797"/>
      </g>
     </g>
     <g id="text_9">
      <!-- $\mathdefault{10^{1}}$ -->
      <g transform="translate(110.4 546.322016)scale(0.1 -0.1)">
       <use transform="translate(0 0.684375)" xlink:href="#DejaVuSans-49"/>
       <use transform="translate(63.623047 0.684375)" xlink:href="#DejaVuSans-48"/>
       <use transform="translate(128.203125 38.965625)scale(0.7)" xlink:href="#DejaVuSans-49"/>
      </g>
     </g>
    </g>
    <g id="ytick_2">
     <g id="line2d_9">
      <g>
       <use style="stroke:#000000;stroke-width:0.8;" x="135" xlink:href="#m68ae3ecdd9" y="390.333162"/>
      </g>
     </g>
     <g id="text_10">
      <!-- $\mathdefault{10^{2}}$ -->
      <g transform="translate(110.4 394.132381)scale(0.1 -0.1)">
       <use transform="translate(0 0.765625)" xlink:href="#DejaVuSans-49"/>
       <use transform="translate(63.623047 0.765625)" xlink:href="#DejaVuSans-48"/>
       <use transform="translate(128.203125 39.046875)scale(0.7)" xlink:href="#DejaVuSans-50"/>
      </g>
     </g>
    </g>
    <g id="ytick_3">
     <g id="line2d_10">
      <g>
       <use style="stroke:#000000;stroke-width:0.8;" x="135" xlink:href="#m68ae3ecdd9" y="238.143527"/>
      </g>
     </g>
     <g id="text_11">
      <!-- $\mathdefault{10^{3}}$ -->
      <g transform="translate(110.4 241.942745)scale(0.1 -0.1)">
       <use transform="translate(0 0.765625)" xlink:href="#DejaVuSans-49"/>
       <use transform="translate(63.623047 0.765625)" xlink:href="#DejaVuSans-48"/>
       <use transform="translate(128.203125 39.046875)scale(0.7)" xlink:href="#DejaVuSans-51"/>
      </g>
     </g>
    </g>
    <g id="ytick_4">
     <g id="line2d_11">
      <defs>
       <path d="M 0 0 
L -2 0 
" id="m864d288d5a" style="stroke:#000000;stroke-width:0.6;"/>
      </defs>
      <g>
       <use style="stroke:#000000;stroke-width:0.6;" x="135" xlink:href="#m864d288d5a" y="622.099523"/>
      </g>
     </g>
    </g>
    <g id="ytick_5">
     <g id="line2d_12">
      <g>
       <use style="stroke:#000000;stroke-width:0.6;" x="135" xlink:href="#m864d288d5a" y="603.085142"/>
      </g>
     </g>
    </g>
    <g id="ytick_6">
     <g id="line2d_13">
      <g>
       <use style="stroke:#000000;stroke-width:0.6;" x="135" xlink:href="#m864d288d5a" y="588.336443"/>
      </g>
     </g>
    </g>
    <g id="ytick_7">
     <g id="line2d_14">
      <g>
       <use style="stroke:#000000;stroke-width:0.6;" x="135" xlink:href="#m864d288d5a" y="576.285878"/>
      </g>
     </g>
    </g>
    <g id="ytick_8">
     <g id="line2d_15">
      <g>
       <use style="stroke:#000000;stroke-width:0.6;" x="135" xlink:href="#m864d288d5a" y="566.09727"/>
      </g>
     </g>
    </g>
    <g id="ytick_9">
     <g id="line2d_16">
      <g>
       <use style="stroke:#000000;stroke-width:0.6;" x="135" xlink:href="#m864d288d5a" y="557.271497"/>
      </g>
     </g>
    </g>
    <g id="ytick_10">
     <g id="line2d_17">
      <g>
       <use style="stroke:#000000;stroke-width:0.6;" x="135" xlink:href="#m864d288d5a" y="549.486613"/>
      </g>
     </g>
    </g>
    <g id="ytick_11">
     <g id="line2d_18">
      <g>
       <use style="stroke:#000000;stroke-width:0.6;" x="135" xlink:href="#m864d288d5a" y="496.709152"/>
      </g>
     </g>
    </g>
    <g id="ytick_12">
     <g id="line2d_19">
      <g>
       <use style="stroke:#000000;stroke-width:0.6;" x="135" xlink:href="#m864d288d5a" y="469.909888"/>
      </g>
     </g>
    </g>
    <g id="ytick_13">
     <g id="line2d_20">
      <g>
       <use style="stroke:#000000;stroke-width:0.6;" x="135" xlink:href="#m864d288d5a" y="450.895507"/>
      </g>
     </g>
    </g>
    <g id="ytick_14">
     <g id="line2d_21">
      <g>
       <use style="stroke:#000000;stroke-width:0.6;" x="135" xlink:href="#m864d288d5a" y="436.146807"/>
      </g>
     </g>
    </g>
    <g id="ytick_15">
     <g id="line2d_22">
      <g>
       <use style="stroke:#000000;stroke-width:0.6;" x="135" xlink:href="#m864d288d5a" y="424.096242"/>
      </g>
     </g>
    </g>
    <g id="ytick_16">
     <g id="line2d_23">
      <g>
       <use style="stroke:#000000;stroke-width:0.6;" x="135" xlink:href="#m864d288d5a" y="413.907635"/>
      </g>
     </g>
    </g>
    <g id="ytick_17">
     <g id="line2d_24">
      <g>
       <use style="stroke:#000000;stroke-width:0.6;" x="135" xlink:href="#m864d288d5a" y="405.081862"/>
      </g>
     </g>
    </g>
    <g id="ytick_18">
     <g id="line2d_25">
      <g>
       <use style="stroke:#000000;stroke-width:0.6;" x="135" xlink:href="#m864d288d5a" y="397.296978"/>
      </g>
     </g>
    </g>
    <g id="ytick_19">
     <g id="line2d_26">
      <g>
       <use style="stroke:#000000;stroke-width:0.6;" x="135" xlink:href="#m864d288d5a" y="344.519517"/>
      </g>
     </g>
    </g>
    <g id="ytick_20">
     <g id="line2d_27">
      <g>
       <use style="stroke:#000000;stroke-width:0.6;" x="135" xlink:href="#m864d288d5a" y="317.720252"/>
      </g>
     </g>
    </g>
    <g id="ytick_21">
     <g id="line2d_28">
      <g>
       <use style="stroke:#000000;stroke-width:0.6;" x="135" xlink:href="#m864d288d5a" y="298.705872"/>
      </g>
     </g>
    </g>
    <g id="ytick_22">
     <g id="line2d_29">
      <g>
       <use style="stroke:#000000;stroke-width:0.6;" x="135" xlink:href="#m864d288d5a" y="283.957172"/>
      </g>
     </g>
    </g>
    <g id="ytick_23">
     <g id="line2d_30">
      <g>
       <use style="stroke:#000000;stroke-width:0.6;" x="135" xlink:href="#m864d288d5a" y="271.906607"/>
      </g>
     </g>
    </g>
    <g id="ytick_24">
     <g id="line2d_31">
      <g>
       <use style="stroke:#000000;stroke-width:0.6;" x="135" xlink:href="#m864d288d5a" y="261.718"/>
      </g>
     </g>
    </g>
    <g id="ytick_25">
     <g id="line2d_32">
      <g>
       <use style="stroke:#000000;stroke-width:0.6;" x="135" xlink:href="#m864d288d5a" y="252.892226"/>
      </g>
     </g>
    </g>
    <g id="ytick_26">
     <g id="line2d_33">
      <g>
       <use style="stroke:#000000;stroke-width:0.6;" x="135" xlink:href="#m864d288d5a" y="245.107343"/>
      </g>
     </g>
    </g>
    <g id="ytick_27">
     <g id="line2d_34">
      <g>
       <use style="stroke:#000000;stroke-width:0.6;" x="135" xlink:href="#m864d288d5a" y="192.329881"/>
      </g>
     </g>
    </g>
    <g id="ytick_28">
     <g id="line2d_35">
      <g>
       <use style="stroke:#000000;stroke-width:0.6;" x="135" xlink:href="#m864d288d5a" y="165.530617"/>
      </g>
     </g>
    </g>
    <g id="ytick_29">
     <g id="line2d_36">
      <g>
       <use style="stroke:#000000;stroke-width:0.6;" x="135" xlink:href="#m864d288d5a" y="146.516236"/>
      </g>
     </g>
    </g>
    <g id="ytick_30">
     <g id="line2d_37">
      <g>
       <use style="stroke:#000000;stroke-width:0.6;" x="135" xlink:href="#m864d288d5a" y="131.767537"/>
      </g>
     </g>
    </g>
    <g id="ytick_31">
     <g id="line2d_38">
      <g>
       <use style="stroke:#000000;stroke-width:0.6;" x="135" xlink:href="#m864d288d5a" y="119.716972"/>
      </g>
     </g>
    </g>
    <g id="ytick_32">
     <g id="line2d_39">
      <g>
       <use style="stroke:#000000;stroke-width:0.6;" x="135" xlink:href="#m864d288d5a" y="109.528364"/>
      </g>
     </g>
    </g>
    <g id="ytick_33">
     <g id="line2d_40">
      <g>
       <use style="stroke:#000000;stroke-width:0.6;" x="135" xlink:href="#m864d288d5a" y="100.702591"/>
      </g>
     </g>
    </g>
    <g id="ytick_34">
     <g id="line2d_41">
      <g>
       <use style="stroke:#000000;stroke-width:0.6;" x="135" xlink:href="#m864d288d5a" y="92.917707"/>
      </g>
     </g>
    </g>
    <g id="text_12">
     <!-- rtt -->
     <g transform="translate(102.240625 375.551562)rotate(-90)scale(0.2 -0.2)">
      <defs>
       <path d="M 41.109375 46.296875 
Q 39.59375 47.171875 37.8125 47.578125 
Q 36.03125 48 33.890625 48 
Q 26.265625 48 22.1875 43.046875 
Q 18.109375 38.09375 18.109375 28.8125 
L 18.109375 0 
L 9.078125 0 
L 9.078125 54.6875 
L 18.109375 54.6875 
L 18.109375 46.1875 
Q 20.953125 51.171875 25.484375 53.578125 
Q 30.03125 56 36.53125 56 
Q 37.453125 56 38.578125 55.875 
Q 39.703125 55.765625 41.0625 55.515625 
z
" id="DejaVuSans-114"/>
      </defs>
      <use xlink:href="#DejaVuSans-114"/>
      <use x="41.113281" xlink:href="#DejaVuSans-116"/>
      <use x="80.322266" xlink:href="#DejaVuSans-116"/>
     </g>
    </g>
   </g>
   <g id="line2d_42">
    <path clip-path="url(#pca57a1c3b3)" d="M 173.045455 585.111651 
L 174.465245 517.96426 
L 176.002354 519.813195 
L 177.526714 516.165642 
L 179.050905 516.165642 
L 180.578797 519.813195 
L 182.111541 509.825791 
L 183.656841 511.457852 
L 185.209395 516.165642 
L 186.742895 509.423995 
L 188.295398 513.984087 
L 189.824869 516.610729 
L 191.354261 514.848088 
L 192.895261 511.046043 
L 194.43929 517.509996 
L 195.977372 522.19956 
L 197.495068 510.636784 
L 199.031534 513.131235 
L 200.579776 521.23465 
L 202.100478 513.131235 
L 203.635187 510.230043 
L 205.174349 509.423995 
L 206.740807 516.610729 
L 208.278788 511.046043 
L 209.824489 517.058833 
L 211.35126 512.708901 
L 212.893352 518.421668 
L 214.437009 512.708901 
L 215.980806 511.872243 
L 217.538404 514.414676 
L 219.067953 521.23465 
L 220.602147 506.294648 
L 222.175743 514.848088 
L 223.710464 519.34609 
L 225.235439 522.687349 
L 226.759248 517.509996 
L 228.291107 514.848088 
L 229.819278 513.984087 
L 231.359457 526.724947 
L 232.862184 505.534925 
L 234.412501 518.882263 
L 235.955184 515.284361 
L 237.49626 512.289248 
L 239.028272 514.414676 
L 240.557009 513.984087 
L 242.088547 520.757427 
L 243.615104 513.131235 
L 245.155393 513.556286 
L 246.705716 517.96426 
L 248.23367 512.708901 
L 249.785685 507.840803 
L 251.341077 512.708901 
L 252.869132 511.872243 
L 254.41722 511.872243 
L 255.969594 515.284361 
L 257.511389 511.457852 
L 259.045571 511.457852 
L 260.594156 509.825791 
L 262.143205 517.96426 
L 263.664663 513.131235 
L 265.217796 510.636784 
L 266.770412 513.556286 
L 268.297098 513.131235 
L 269.841446 545.014707 
L 271.318419 519.813195 
L 272.855362 523.673861 
L 274.363352 511.872243 
L 275.925472 520.757427 
L 277.444411 513.131235 
L 278.9778 515.723533 
L 280.508025 513.984087 
L 282.041295 514.848088 
L 283.588239 509.825791 
L 285.124512 509.423995 
L 286.667489 506.677809 
L 288.222727 520.757427 
L 289.742027 516.610729 
L 291.278842 511.046043 
L 292.814231 514.848088 
L 294.34324 515.284361 
L 295.867086 518.882263 
L 297.386836 513.131235 
L 298.940299 517.058833 
L 300.458858 513.131235 
L 301.986827 308.674528 
L 307.728431 254.480927 
L 319.084534 204.804815 
L 341.693035 156.812336 
L 646.469634 301.922402 
L 652.704116 302.270272 
L 658.894367 301.922402 
L 665.117061 300.889645 
L 671.413871 301.749151 
L 677.652497 301.060654 
L 683.935882 111.6 
L 772.385177 150.063199 
L 822.416855 281.11115 
L 830.45735 284.089495 
L 838.20253 285.157722 
L 845.87598 291.068029 
L 852.979164 301.749151 
L 859.227381 319.733457 
L 864.295276 335.569931 
L 868.577008 337.621829 
L 872.768947 331.647884 
L 877.223451 326.924795 
L 881.91064 337.621829 
L 886.116895 334.142335 
L 890.463321 331.106118 
" style="fill:none;stroke:#0000ff;stroke-linecap:square;stroke-width:1.5;"/>
   </g>
   <g id="line2d_43">
    <path clip-path="url(#pca57a1c3b3)" d="M 173.045455 587.287292 
L 174.444752 526.724947 
L 175.948735 540.569105 
L 177.413268 507.840803 
L 178.96708 507.840803 
L 180.518196 518.421668 
L 182.051338 523.178765 
L 183.560178 511.457852 
L 185.090327 513.131235 
L 186.64379 512.708901 
L 188.184174 512.708901 
L 189.723236 513.131235 
L 191.256904 512.708901 
L 192.794141 509.423995 
L 194.343613 513.984087 
L 195.884781 509.825791 
L 198.968613 510.636784 
L 200.526649 510.636784 
L 202.069764 509.825791 
L 203.623001 513.984087 
L 205.167606 518.882263 
L 206.697218 509.024628 
L 208.245573 519.813195 
L 209.783147 519.34609 
L 211.306953 510.230043 
L 212.85532 531.025333 
L 214.364763 525.1818 
L 215.877632 506.294648 
L 217.429146 528.840171 
L 218.940117 507.840803 
L 220.490321 517.509996 
L 222.018054 510.230043 
L 223.570648 512.708901 
L 225.101993 512.708901 
L 226.63901 514.848088 
L 228.188139 515.284361 
L 229.721023 510.230043 
L 231.263164 511.046043 
L 232.797693 518.421668 
L 235.851549 513.984087 
L 237.391069 516.165642 
L 238.919644 507.45086 
L 240.487653 520.757427 
L 242.013733 517.509996 
L 243.549994 516.165642 
L 246.597431 512.708901 
L 248.150485 511.872243 
L 249.678851 509.024628 
L 251.230444 517.509996 
L 252.763635 514.848088 
L 254.294803 513.556286 
L 255.846892 515.723533 
L 257.379623 515.284361 
L 258.905627 528.304985 
L 260.408327 512.289248 
L 261.955681 515.723533 
L 263.493818 509.423995 
L 265.041506 514.848088 
L 266.576765 513.984087 
L 268.114156 516.610729 
L 269.642305 512.708901 
L 271.179888 517.509996 
L 272.706406 511.046043 
L 274.255492 517.058833 
L 275.7925 509.423995 
L 277.344488 512.708901 
L 278.887991 507.45086 
L 280.44998 525.1818 
L 281.973749 520.757427 
L 283.503309 513.131235 
L 285.037724 506.677809 
L 286.602229 512.708901 
L 288.140944 514.414676 
L 289.674187 515.723533 
L 291.217023 520.283625 
L 292.740112 514.848088 
L 294.273998 513.984087 
L 295.812723 519.34609 
L 297.34127 513.556286 
L 298.877482 508.23306 
L 300.423216 514.414676 
L 301.966683 306.780556 
L 437.575261 291.215399 
L 444.672164 288.47007 
L 451.989059 288.611753 
L 459.312361 285.427498 
L 466.945216 282.389625 
L 474.87879 283.561786 
L 482.670278 279.238642 
L 490.910941 277.53757 
L 499.325426 276.113563 
L 507.887569 273.241907 
L 516.758996 272.016857 
L 525.804616 272.127292 
L 534.838348 268.367824 
L 544.32025 266.819858 
L 553.986444 302.270272 
L 560.189915 472.150615 
L 561.901261 470.797084 
L 563.621872 512.708901 
L 565.167738 506.294648 
L 566.735325 491.929109 
L 568.340351 481.6966 
L 570.006847 479.878544 
L 571.674335 469.909888 
L 573.397603 464.012145 
L 575.159415 463.0122 
L 576.945347 501.86203 
L 578.524453 492.857862 
L 580.135499 485.769456 
L 581.765561 475.660915 
L 583.46075 475.660915 
L 585.143617 467.31759 
L 586.884938 480.392906 
L 588.543501 524.675322 
L 590.041361 519.813195 
L 591.550713 511.046043 
L 593.096733 501.151322 
L 594.675734 494.75546 
L 596.279281 491.929109 
L 597.886593 526.724947 
L 599.411492 511.457852 
L 600.965895 502.942628 
L 602.525676 503.306789 
L 604.093122 497.040457 
L 605.674704 533.285215 
L 607.153553 526.724947 
L 608.659746 515.723533 
L 610.188495 497.040457 
L 611.78881 492.237246 
L 613.414608 491.929109 
L 615.01989 532.71296 
L 616.505119 511.457852 
L 618.045876 504.783836 
L 619.620919 500.099389 
L 621.202492 493.48436 
L 622.796192 521.715344 
L 624.318654 507.840803 
L 625.872463 503.672968 
L 627.446521 502.580462 
L 629.009501 529.923722 
L 630.492112 512.708901 
L 632.023237 507.063204 
L 633.581387 496.709152 
L 635.165062 497.70809 
L 636.757584 483.566081 
L 638.404937 526.724947 
L 639.903183 515.284361 
L 641.436212 507.063204 
L 642.999587 504.783836 
L 644.572129 530.472232 
L 646.05343 523.178765 
L 647.559161 509.825791 
L 649.110482 505.913695 
L 650.661417 491.013227 
L 652.280835 498.044453 
L 653.872099 530.472232 
L 655.364477 518.421668 
L 656.885204 511.457852 
L 658.420926 494.435386 
L 660.020583 498.044453 
L 661.633839 494.435386 
L 663.243153 534.444808 
L 664.725376 509.423995 
L 666.278934 503.306789 
L 667.845404 504.411469 
L 670.979026 491.317113 
L 672.599225 575.846706 
L 674.018939 538.671507 
L 675.500224 519.813195 
L 677.013825 517.058833 
L 678.54599 507.840803 
L 680.110795 499.407287 
L 681.701412 495.725088 
L 683.305513 486.899314 
L 684.949414 534.444808 
L 686.437314 515.284361 
L 687.966091 262.764884 
L 698.158525 263.342979 
L 708.270666 260.873622 
L 718.705097 260.039895 
L 729.282691 258.673304 
L 740.027444 257.866709 
L 750.91861 256.63125 
L 761.969283 255.590361 
L 773.179724 253.640011 
L 796.37292 251.50242 
L 808.210512 270.59775 
L 817.413834 569.487507 
L 818.829949 551.651413 
L 820.271231 556.043689 
L 821.715258 532.71296 
L 823.202182 523.673861 
L 824.719762 545.843497 
L 826.185372 546.261822 
L 827.636104 536.22326 
L 829.113153 543.253872 
L 830.579688 524.675322 
L 832.087126 523.673861 
L 833.584899 520.757427 
L 835.095701 536.22326 
L 836.583458 532.71296 
L 838.073976 535.62511 
L 839.549908 519.34609 
L 841.059223 545.220932 
L 842.525807 525.69219 
L 844.038097 532.145616 
L 845.532147 528.840171 
L 847.029457 566.571072 
L 848.461185 534.444808 
L 849.953319 532.71296 
L 851.442539 524.172695 
L 852.952687 517.509996 
L 854.49135 550.971959 
L 855.939626 543.053685 
L 857.399372 545.427803 
L 858.843696 558.691156 
L 860.276502 555.398066 
L 861.712624 540.569105 
L 863.191969 553.10917 
L 864.635962 545.496904 
L 866.086767 554.758688 
L 867.532631 538.671507 
L 868.99429 533.285215 
L 870.481416 532.71296 
L 871.96703 533.285215 
L 873.45123 543.454668 
L 874.911125 539.9305 
L 876.390372 530.472232 
L 877.879399 539.298006 
L 879.34257 531.583101 
L 880.831729 534.444808 
L 882.310743 529.923722 
L 883.808475 536.826872 
L 885.28415 535.032325 
L 886.7645 532.71296 
L 888.242473 532.145616 
L 889.722388 541.21394 
L 891.192813 546.682811 
L 892.643875 531.025333 
L 894.130284 543.454668 
L 895.602032 543.656075 
L 897.061622 535.62511 
L 898.543409 536.22326 
L 900.016415 547.035696 
L 901.475965 540.569105 
L 902.954425 544.604177 
L 905.892965 526.206551 
L 907.383109 539.298006 
L 908.850336 543.053685 
L 910.30804 535.62511 
L 911.776871 529.923722 
L 913.257645 536.22326 
L 914.735928 526.206551 
L 916.253073 530.472232 
L 919.215672 535.032325 
L 920.696174 533.862469 
L 922.186511 536.826872 
L 923.660031 536.826872 
L 925.134858 536.22326 
L 926.603419 539.9305 
L 928.068454 541.21394 
L 929.542152 538.671507 
L 931.018176 544.87758 
L 932.481347 536.22326 
L 933.954545 543.053685 
L 933.954545 543.053685 
" style="fill:none;stroke:#ff0000;stroke-linecap:square;stroke-width:1.5;"/>
   </g>
   <g id="line2d_44">
    <path clip-path="url(#pca57a1c3b3)" d="M 173.045455 587.809786 
L 174.449812 513.984087 
L 175.983648 513.556286 
L 177.540669 525.1818 
L 179.05138 511.872243 
L 180.592713 551.424151 
L 182.04723 514.414676 
L 183.587345 518.882263 
L 185.111423 524.675322 
L 186.632945 516.610729 
L 188.172747 509.825791 
L 189.716238 518.421668 
L 191.244773 519.34609 
L 192.769941 513.131235 
L 194.317512 519.813195 
L 195.828483 512.708901 
L 197.365335 514.848088 
L 198.895691 517.96426 
L 200.433954 512.708901 
L 201.980141 514.414676 
L 203.510868 507.45086 
L 205.071369 513.131235 
L 206.608569 516.610729 
L 208.122286 510.230043 
L 209.678664 516.165642 
L 211.210808 511.457852 
L 212.746257 514.414676 
L 214.285536 509.423995 
L 215.828436 512.708901 
L 217.361333 519.34609 
L 218.890033 522.687349 
L 220.419643 512.708901 
L 221.965432 513.131235 
L 223.492501 522.19956 
L 225.030035 515.723533 
L 226.55157 521.715344 
L 228.08634 511.457852 
L 229.6376 509.825791 
L 231.190151 513.984087 
L 232.737621 514.414676 
L 234.272189 515.723533 
L 235.792864 511.872243 
L 237.340101 518.421668 
L 238.868419 528.304985 
L 240.375753 513.984087 
L 241.92652 515.284361 
L 243.452989 509.423995 
L 244.994707 509.024628 
L 246.548275 512.708901 
L 248.084496 511.046043 
L 249.620016 510.636784 
L 251.160317 514.414676 
L 252.689752 512.289248 
L 254.218153 513.131235 
L 255.765586 519.34609 
L 257.307638 515.284361 
L 258.833936 514.848088 
L 260.361864 509.024628 
L 261.904431 516.165642 
L 263.425362 516.165642 
L 264.959572 511.872243 
L 266.486923 521.23465 
L 268.012847 516.165642 
L 269.563243 513.131235 
L 271.102176 515.284361 
L 272.634755 511.046043 
L 274.179054 510.636784 
L 275.728908 512.708901 
L 277.270462 516.610729 
L 278.807212 516.610729 
L 280.332894 509.825791 
L 281.88768 517.058833 
L 283.412015 503.672968 
L 284.988629 515.723533 
L 286.527085 509.423995 
L 288.084442 514.848088 
L 289.622371 506.677809 
L 291.17652 509.423995 
L 292.730896 511.872243 
L 294.2654 517.509996 
L 295.80447 520.757427 
L 297.337857 509.024628 
L 298.882245 510.636784 
L 300.433348 515.723533 
L 431.688592 413.531024 
L 433.932664 469.909888 
L 435.653287 418.299332 
L 437.832417 430.815714 
L 439.869955 431.674901 
L 571.63641 547.532921 
L 573.101135 570.08656 
L 574.526264 551.651413 
L 575.985416 593.417904 
L 577.370373 535.62511 
L 578.850183 538.671507 
L 580.327141 538.671507 
L 581.818558 572.330746 
L 583.233084 564.695908 
L 584.664109 529.379726 
L 586.151262 531.025333 
L 587.644489 535.032325 
L 589.118572 552.184748 
L 590.570558 558.102893 
L 592.019235 557.354168 
L 593.457218 574.332185 
L 594.881486 548.974529 
L 596.329561 550.150891 
L 597.767503 561.537178 
L 599.205626 583.127408 
L 600.621052 584.360562 
L 602.022378 574.118631 
L 603.436249 560.923151 
L 604.865731 561.537178 
L 606.301619 559.114573 
L 607.748858 558.860197 
L 609.179292 580.141575 
L 610.581528 573.482076 
L 611.997159 561.010521 
L 613.444538 546.191917 
L 614.903742 545.982644 
L 616.373677 556.450429 
L 617.812608 573.587743 
L 619.229984 588.601353 
L 620.635458 543.253872 
L 622.100414 551.197669 
L 623.543018 552.414644 
L 624.994854 573.905764 
L 626.426684 591.172419 
L 627.823943 543.387668 
L 629.29176 542.522797 
L 630.754622 551.122346 
L 632.204199 556.69568 
L 633.642897 566.856993 
L 635.077387 594.424814 
L 636.483415 546.261822 
L 637.951594 546.191917 
L 639.405943 559.797733 
L 640.849371 563.686802 
L 642.281895 570.488967 
L 643.706972 581.082446 
L 645.119251 539.298006 
L 646.59571 548.756273 
L 648.039021 569.487507 
L 649.452249 569.487507 
L 650.869328 575.846706 
L 652.289363 578.64066 
L 653.711101 538.050891 
L 655.180115 544.128426 
L 656.636353 558.522546 
L 658.085875 567.528989 
L 659.517502 581.796995 
L 660.935918 569.686588 
L 662.352948 547.747168 
L 663.809443 552.645343 
L 665.246706 551.04711 
L 666.689885 571.505835 
L 668.099955 563.142807 
L 669.528836 574.012111 
L 670.935645 541.865129 
L 672.397647 561.098006 
L 673.826863 561.625364 
L 675.252772 576.506563 
L 676.653713 582.761905 
L 678.055108 571.199129 
L 679.492921 553.264505 
L 680.937527 552.645343 
L 682.380095 564.973813 
L 683.798021 565.159735 
L 685.21401 602.75549 
L 686.59242 542.721381 
L 688.049879 337.920228 
L 692.224315 407.608097 
L 694.565652 469.909888 
L 696.286469 429.84727 
L 698.315543 503.672968 
L 699.883323 418.704203 
L 702.064997 447.828272 
L 833.68974 551.72734 
L 835.146207 583.617912 
L 836.548884 578.299083 
L 837.952831 595.007153 
L 839.348073 565.066709 
L 840.773419 556.859688 
L 842.211325 580.84597 
L 843.615734 563.869134 
L 845.037319 593.84756 
L 846.425434 579.908435 
L 847.827585 587.548022 
L 849.220825 565.252892 
L 850.635427 577.73368 
L 852.052184 557.354168 
L 853.489398 563.414245 
L 854.920983 575.410433 
L 856.335331 557.769079 
L 857.776151 574.332185 
L 859.188889 567.72225 
L 860.612567 558.354365 
L 862.056754 550.076752 
L 863.521284 558.102893 
L 864.959097 577.396746 
L 866.364058 588.468765 
L 867.752522 568.99241 
L 869.178359 555.80084 
L 870.621667 563.142807 
L 872.052306 560.141979 
L 873.491506 558.186611 
L 874.927446 560.141979 
L 876.361461 551.955648 
L 877.818366 550.373809 
L 879.262498 554.997731 
L 880.701509 566.381144 
L 882.119717 571.301206 
L 883.540778 544.467898 
L 885.004102 569.786355 
L 886.425086 562.24598 
L 887.856968 567.916078 
L 889.283202 547.890386 
L 890.739532 551.04711 
L 892.180902 575.193372 
L 893.598265 557.271497 
L 895.037812 562.335117 
L 896.465188 551.879458 
L 897.905508 562.603252 
L 899.342719 600.175841 
L 900.73995 614.806055 
L 902.116486 563.233162 
L 903.541551 581.319772 
L 904.949618 566.191759 
L 906.373593 603.916538 
L 907.761605 554.997731 
L 909.215446 591.172419 
L 910.612895 565.066709 
L 912.057091 573.69358 
L 913.479896 566.191759 
L 914.912843 563.142807 
L 916.338514 562.424374 
L 917.765853 553.264505 
L 919.221975 553.498195 
L 920.658763 564.419166 
L 922.089028 615.6 
L 923.471151 603.250587 
L 924.859138 609.682779 
L 926.24846 560.401345 
L 927.68403 583.372205 
L 929.099465 552.722422 
L 929.099465 552.722422 
" style="fill:none;stroke:#008000;stroke-linecap:square;stroke-width:1.5;"/>
   </g>
   <g id="patch_3">
    <path d="M 135 640.8 
L 135 86.4 
" style="fill:none;stroke:#000000;stroke-linecap:square;stroke-linejoin:miter;stroke-width:0.8;"/>
   </g>
   <g id="patch_4">
    <path d="M 972 640.8 
L 972 86.4 
" style="fill:none;stroke:#000000;stroke-linecap:square;stroke-linejoin:miter;stroke-width:0.8;"/>
   </g>
   <g id="patch_5">
    <path d="M 135 640.8 
L 972 640.8 
" style="fill:none;stroke:#000000;stroke-linecap:square;stroke-linejoin:miter;stroke-width:0.8;"/>
   </g>
   <g id="patch_6">
    <path d="M 135 86.4 
L 972 86.4 
" style="fill:none;stroke:#000000;stroke-linecap:square;stroke-linejoin:miter;stroke-width:0.8;"/>
   </g>
   <g id="legend_1">
    <g id="patch_7">
     <path d="M 891.515625 138.434375 
L 965 138.434375 
Q 967 138.434375 967 136.434375 
L 967 93.4 
Q 967 91.4 965 91.4 
L 891.515625 91.4 
Q 889.515625 91.4 889.515625 93.4 
L 889.515625 136.434375 
Q 889.515625 138.434375 891.515625 138.434375 
z
" style="fill:#ffffff;opacity:0.8;stroke:#cccccc;stroke-linejoin:miter;"/>
    </g>
    <g id="line2d_45">
     <path d="M 893.515625 99.498437 
L 913.515625 99.498437 
" style="fill:none;stroke:#0000ff;stroke-linecap:square;stroke-width:1.5;"/>
    </g>
    <g id="line2d_46"/>
    <g id="text_13">
     <!-- tail drop -->
     <g transform="translate(921.515625 102.998437)scale(0.1 -0.1)">
      <defs>
       <path d="M 34.28125 27.484375 
Q 23.390625 27.484375 19.1875 25 
Q 14.984375 22.515625 14.984375 16.5 
Q 14.984375 11.71875 18.140625 8.90625 
Q 21.296875 6.109375 26.703125 6.109375 
Q 34.1875 6.109375 38.703125 11.40625 
Q 43.21875 16.703125 43.21875 25.484375 
L 43.21875 27.484375 
z
M 52.203125 31.203125 
L 52.203125 0 
L 43.21875 0 
L 43.21875 8.296875 
Q 40.140625 3.328125 35.546875 0.953125 
Q 30.953125 -1.421875 24.3125 -1.421875 
Q 15.921875 -1.421875 10.953125 3.296875 
Q 6 8.015625 6 15.921875 
Q 6 25.140625 12.171875 29.828125 
Q 18.359375 34.515625 30.609375 34.515625 
L 43.21875 34.515625 
L 43.21875 35.40625 
Q 43.21875 41.609375 39.140625 45 
Q 35.0625 48.390625 27.6875 48.390625 
Q 23 48.390625 18.546875 47.265625 
Q 14.109375 46.140625 10.015625 43.890625 
L 10.015625 52.203125 
Q 14.9375 54.109375 19.578125 55.046875 
Q 24.21875 56 28.609375 56 
Q 40.484375 56 46.34375 49.84375 
Q 52.203125 43.703125 52.203125 31.203125 
z
" id="DejaVuSans-97"/>
       <path d="M 9.421875 75.984375 
L 18.40625 75.984375 
L 18.40625 0 
L 9.421875 0 
z
" id="DejaVuSans-108"/>
       <path id="DejaVuSans-32"/>
       <path d="M 45.40625 46.390625 
L 45.40625 75.984375 
L 54.390625 75.984375 
L 54.390625 0 
L 45.40625 0 
L 45.40625 8.203125 
Q 42.578125 3.328125 38.25 0.953125 
Q 33.9375 -1.421875 27.875 -1.421875 
Q 17.96875 -1.421875 11.734375 6.484375 
Q 5.515625 14.40625 5.515625 27.296875 
Q 5.515625 40.1875 11.734375 48.09375 
Q 17.96875 56 27.875 56 
Q 33.9375 56 38.25 53.625 
Q 42.578125 51.265625 45.40625 46.390625 
z
M 14.796875 27.296875 
Q 14.796875 17.390625 18.875 11.75 
Q 22.953125 6.109375 30.078125 6.109375 
Q 37.203125 6.109375 41.296875 11.75 
Q 45.40625 17.390625 45.40625 27.296875 
Q 45.40625 37.203125 41.296875 42.84375 
Q 37.203125 48.484375 30.078125 48.484375 
Q 22.953125 48.484375 18.875 42.84375 
Q 14.796875 37.203125 14.796875 27.296875 
z
" id="DejaVuSans-100"/>
       <path d="M 30.609375 48.390625 
Q 23.390625 48.390625 19.1875 42.75 
Q 14.984375 37.109375 14.984375 27.296875 
Q 14.984375 17.484375 19.15625 11.84375 
Q 23.34375 6.203125 30.609375 6.203125 
Q 37.796875 6.203125 41.984375 11.859375 
Q 46.1875 17.53125 46.1875 27.296875 
Q 46.1875 37.015625 41.984375 42.703125 
Q 37.796875 48.390625 30.609375 48.390625 
z
M 30.609375 56 
Q 42.328125 56 49.015625 48.375 
Q 55.71875 40.765625 55.71875 27.296875 
Q 55.71875 13.875 49.015625 6.21875 
Q 42.328125 -1.421875 30.609375 -1.421875 
Q 18.84375 -1.421875 12.171875 6.21875 
Q 5.515625 13.875 5.515625 27.296875 
Q 5.515625 40.765625 12.171875 48.375 
Q 18.84375 56 30.609375 56 
z
" id="DejaVuSans-111"/>
       <path d="M 18.109375 8.203125 
L 18.109375 -20.796875 
L 9.078125 -20.796875 
L 9.078125 54.6875 
L 18.109375 54.6875 
L 18.109375 46.390625 
Q 20.953125 51.265625 25.265625 53.625 
Q 29.59375 56 35.59375 56 
Q 45.5625 56 51.78125 48.09375 
Q 58.015625 40.1875 58.015625 27.296875 
Q 58.015625 14.40625 51.78125 6.484375 
Q 45.5625 -1.421875 35.59375 -1.421875 
Q 29.59375 -1.421875 25.265625 0.953125 
Q 20.953125 3.328125 18.109375 8.203125 
z
M 48.6875 27.296875 
Q 48.6875 37.203125 44.609375 42.84375 
Q 40.53125 48.484375 33.40625 48.484375 
Q 26.265625 48.484375 22.1875 42.84375 
Q 18.109375 37.203125 18.109375 27.296875 
Q 18.109375 17.390625 22.1875 11.75 
Q 26.265625 6.109375 33.40625 6.109375 
Q 40.53125 6.109375 44.609375 11.75 
Q 48.6875 17.390625 48.6875 27.296875 
z
" id="DejaVuSans-112"/>
      </defs>
      <use xlink:href="#DejaVuSans-116"/>
      <use x="39.208984" xlink:href="#DejaVuSans-97"/>
      <use x="100.488281" xlink:href="#DejaVuSans-105"/>
      <use x="128.271484" xlink:href="#DejaVuSans-108"/>
      <use x="156.054688" xlink:href="#DejaVuSans-32"/>
      <use x="187.841797" xlink:href="#DejaVuSans-100"/>
      <use x="251.318359" xlink:href="#DejaVuSans-114"/>
      <use x="290.181641" xlink:href="#DejaVuSans-111"/>
      <use x="351.363281" xlink:href="#DejaVuSans-112"/>
     </g>
    </g>
    <g id="line2d_47">
     <path d="M 893.515625 114.176562 
L 913.515625 114.176562 
" style="fill:none;stroke:#ff0000;stroke-linecap:square;stroke-width:1.5;"/>
    </g>
    <g id="line2d_48"/>
    <g id="text_14">
     <!-- RED -->
     <g transform="translate(921.515625 117.676562)scale(0.1 -0.1)">
      <defs>
       <path d="M 44.390625 34.1875 
Q 47.5625 33.109375 50.5625 29.59375 
Q 53.5625 26.078125 56.59375 19.921875 
L 66.609375 0 
L 56 0 
L 46.6875 18.703125 
Q 43.0625 26.03125 39.671875 28.421875 
Q 36.28125 30.8125 30.421875 30.8125 
L 19.671875 30.8125 
L 19.671875 0 
L 9.8125 0 
L 9.8125 72.90625 
L 32.078125 72.90625 
Q 44.578125 72.90625 50.734375 67.671875 
Q 56.890625 62.453125 56.890625 51.90625 
Q 56.890625 45.015625 53.6875 40.46875 
Q 50.484375 35.9375 44.390625 34.1875 
z
M 19.671875 64.796875 
L 19.671875 38.921875 
L 32.078125 38.921875 
Q 39.203125 38.921875 42.84375 42.21875 
Q 46.484375 45.515625 46.484375 51.90625 
Q 46.484375 58.296875 42.84375 61.546875 
Q 39.203125 64.796875 32.078125 64.796875 
z
" id="DejaVuSans-82"/>
       <path d="M 9.8125 72.90625 
L 55.90625 72.90625 
L 55.90625 64.59375 
L 19.671875 64.59375 
L 19.671875 43.015625 
L 54.390625 43.015625 
L 54.390625 34.71875 
L 19.671875 34.71875 
L 19.671875 8.296875 
L 56.78125 8.296875 
L 56.78125 0 
L 9.8125 0 
z
" id="DejaVuSans-69"/>
       <path d="M 19.671875 64.796875 
L 19.671875 8.109375 
L 31.59375 8.109375 
Q 46.6875 8.109375 53.6875 14.9375 
Q 60.6875 21.78125 60.6875 36.53125 
Q 60.6875 51.171875 53.6875 57.984375 
Q 46.6875 64.796875 31.59375 64.796875 
z
M 9.8125 72.90625 
L 30.078125 72.90625 
Q 51.265625 72.90625 61.171875 64.09375 
Q 71.09375 55.28125 71.09375 36.53125 
Q 71.09375 17.671875 61.125 8.828125 
Q 51.171875 0 30.078125 0 
L 9.8125 0 
z
" id="DejaVuSans-68"/>
      </defs>
      <use xlink:href="#DejaVuSans-82"/>
      <use x="69.482422" xlink:href="#DejaVuSans-69"/>
      <use x="132.666016" xlink:href="#DejaVuSans-68"/>
     </g>
    </g>
    <g id="line2d_49">
     <path d="M 893.515625 128.854687 
L 913.515625 128.854687 
" style="fill:none;stroke:#008000;stroke-linecap:square;stroke-width:1.5;"/>
    </g>
    <g id="line2d_50"/>
    <g id="text_15">
     <!-- CoDel -->
     <g transform="translate(921.515625 132.354687)scale(0.1 -0.1)">
      <defs>
       <path d="M 64.40625 67.28125 
L 64.40625 56.890625 
Q 59.421875 61.53125 53.78125 63.8125 
Q 48.140625 66.109375 41.796875 66.109375 
Q 29.296875 66.109375 22.65625 58.46875 
Q 16.015625 50.828125 16.015625 36.375 
Q 16.015625 21.96875 22.65625 14.328125 
Q 29.296875 6.6875 41.796875 6.6875 
Q 48.140625 6.6875 53.78125 8.984375 
Q 59.421875 11.28125 64.40625 15.921875 
L 64.40625 5.609375 
Q 59.234375 2.09375 53.4375 0.328125 
Q 47.65625 -1.421875 41.21875 -1.421875 
Q 24.65625 -1.421875 15.125 8.703125 
Q 5.609375 18.84375 5.609375 36.375 
Q 5.609375 53.953125 15.125 64.078125 
Q 24.65625 74.21875 41.21875 74.21875 
Q 47.75 74.21875 53.53125 72.484375 
Q 59.328125 70.75 64.40625 67.28125 
z
" id="DejaVuSans-67"/>
      </defs>
      <use xlink:href="#DejaVuSans-67"/>
      <use x="69.824219" xlink:href="#DejaVuSans-111"/>
      <use x="131.005859" xlink:href="#DejaVuSans-68"/>
      <use x="208.007812" xlink:href="#DejaVuSans-101"/>
      <use x="269.53125" xlink:href="#DejaVuSans-108"/>
     </g>
    </g>
   </g>
  </g>
 </g>
 <defs>
  <clipPath id="pca57a1c3b3">
   <rect height="554.4" width="837" x="135" y="86.4"/>
  </clipPath>
 </defs>
</svg>
