<?xml version="1.0" encoding="utf-8" standalone="no"?>
<!DOCTYPE svg PUBLIC "-//W3C//DTD SVG 1.1//EN"
  "http://www.w3.org/Graphics/SVG/1.1/DTD/svg11.dtd">
<!-- Created with matplotlib (https://matplotlib.org/) -->
<svg height="720pt" version="1.1" viewBox="0 0 1080 720" width="1080pt" xmlns="http://www.w3.org/2000/svg" xmlns:xlink="http://www.w3.org/1999/xlink">
 <metadata>
  <rdf:RDF xmlns:cc="http://creativecommons.org/ns#" xmlns:dc="http://purl.org/dc/elements/1.1/" xmlns:rdf="http://www.w3.org/1999/02/22-rdf-syntax-ns#">
   <cc:Work>
    <dc:type rdf:resource="http://purl.org/dc/dcmitype/StillImage"/>
    <dc:date>2021-07-03T15:19:46.206663</dc:date>
    <dc:format>image/svg+xml</dc:format>
    <dc:creator>
     <cc:Agent>
      <dc:title>Matplotlib v3.3.2, https://matplotlib.org/</dc:title>
     </cc:Agent>
    </dc:creator>
   </cc:Work>
  </rdf:RDF>
 </metadata>
 <defs>
  <style type="text/css">*{stroke-linecap:butt;stroke-linejoin:round;}</style>
 </defs>
 <g id="figure_1">
  <g id="patch_1">
   <path d="M 0 720 
L 1080 720 
L 1080 0 
L 0 0 
z
" style="fill:#ffffff;"/>
  </g>
  <g id="axes_1">
   <g id="patch_2">
    <path d="M 135 640.8 
L 972 640.8 
L 972 86.4 
L 135 86.4 
z
" style="fill:#ffffff;"/>
   </g>
   <g id="matplotlib.axis_1">
    <g id="xtick_1">
     <g id="line2d_1">
      <defs>
       <path d="M 0 0 
L 0 3.5 
" id="mdd3d784aa1" style="stroke:#000000;stroke-width:0.8;"/>
      </defs>
      <g>
       <use style="stroke:#000000;stroke-width:0.8;" x="169.681261" xlink:href="#mdd3d784aa1" y="640.8"/>
      </g>
     </g>
     <g id="text_1">
      <!-- 0 -->
      <g transform="translate(166.500011 655.398438)scale(0.1 -0.1)">
       <defs>
        <path d="M 31.78125 66.40625 
Q 24.171875 66.40625 20.328125 58.90625 
Q 16.5 51.421875 16.5 36.375 
Q 16.5 21.390625 20.328125 13.890625 
Q 24.171875 6.390625 31.78125 6.390625 
Q 39.453125 6.390625 43.28125 13.890625 
Q 47.125 21.390625 47.125 36.375 
Q 47.125 51.421875 43.28125 58.90625 
Q 39.453125 66.40625 31.78125 66.40625 
z
M 31.78125 74.21875 
Q 44.046875 74.21875 50.515625 64.515625 
Q 56.984375 54.828125 56.984375 36.375 
Q 56.984375 17.96875 50.515625 8.265625 
Q 44.046875 -1.421875 31.78125 -1.421875 
Q 19.53125 -1.421875 13.0625 8.265625 
Q 6.59375 17.96875 6.59375 36.375 
Q 6.59375 54.828125 13.0625 64.515625 
Q 19.53125 74.21875 31.78125 74.21875 
z
" id="DejaVuSans-48"/>
       </defs>
       <use xlink:href="#DejaVuSans-48"/>
      </g>
     </g>
    </g>
    <g id="xtick_2">
     <g id="line2d_2">
      <g>
       <use style="stroke:#000000;stroke-width:0.8;" x="291.915574" xlink:href="#mdd3d784aa1" y="640.8"/>
      </g>
     </g>
     <g id="text_2">
      <!-- 2 -->
      <g transform="translate(288.734324 655.398438)scale(0.1 -0.1)">
       <defs>
        <path d="M 19.1875 8.296875 
L 53.609375 8.296875 
L 53.609375 0 
L 7.328125 0 
L 7.328125 8.296875 
Q 12.9375 14.109375 22.625 23.890625 
Q 32.328125 33.6875 34.8125 36.53125 
Q 39.546875 41.84375 41.421875 45.53125 
Q 43.3125 49.21875 43.3125 52.78125 
Q 43.3125 58.59375 39.234375 62.25 
Q 35.15625 65.921875 28.609375 65.921875 
Q 23.96875 65.921875 18.8125 64.3125 
Q 13.671875 62.703125 7.8125 59.421875 
L 7.8125 69.390625 
Q 13.765625 71.78125 18.9375 73 
Q 24.125 74.21875 28.421875 74.21875 
Q 39.75 74.21875 46.484375 68.546875 
Q 53.21875 62.890625 53.21875 53.421875 
Q 53.21875 48.921875 51.53125 44.890625 
Q 49.859375 40.875 45.40625 35.40625 
Q 44.1875 33.984375 37.640625 27.21875 
Q 31.109375 20.453125 19.1875 8.296875 
z
" id="DejaVuSans-50"/>
       </defs>
       <use xlink:href="#DejaVuSans-50"/>
      </g>
     </g>
    </g>
    <g id="xtick_3">
     <g id="line2d_3">
      <g>
       <use style="stroke:#000000;stroke-width:0.8;" x="414.149888" xlink:href="#mdd3d784aa1" y="640.8"/>
      </g>
     </g>
     <g id="text_3">
      <!-- 4 -->
      <g transform="translate(410.968638 655.398438)scale(0.1 -0.1)">
       <defs>
        <path d="M 37.796875 64.3125 
L 12.890625 25.390625 
L 37.796875 25.390625 
z
M 35.203125 72.90625 
L 47.609375 72.90625 
L 47.609375 25.390625 
L 58.015625 25.390625 
L 58.015625 17.1875 
L 47.609375 17.1875 
L 47.609375 0 
L 37.796875 0 
L 37.796875 17.1875 
L 4.890625 17.1875 
L 4.890625 26.703125 
z
" id="DejaVuSans-52"/>
       </defs>
       <use xlink:href="#DejaVuSans-52"/>
      </g>
     </g>
    </g>
    <g id="xtick_4">
     <g id="line2d_4">
      <g>
       <use style="stroke:#000000;stroke-width:0.8;" x="536.384201" xlink:href="#mdd3d784aa1" y="640.8"/>
      </g>
     </g>
     <g id="text_4">
      <!-- 6 -->
      <g transform="translate(533.202951 655.398438)scale(0.1 -0.1)">
       <defs>
        <path d="M 33.015625 40.375 
Q 26.375 40.375 22.484375 35.828125 
Q 18.609375 31.296875 18.609375 23.390625 
Q 18.609375 15.53125 22.484375 10.953125 
Q 26.375 6.390625 33.015625 6.390625 
Q 39.65625 6.390625 43.53125 10.953125 
Q 47.40625 15.53125 47.40625 23.390625 
Q 47.40625 31.296875 43.53125 35.828125 
Q 39.65625 40.375 33.015625 40.375 
z
M 52.59375 71.296875 
L 52.59375 62.3125 
Q 48.875 64.0625 45.09375 64.984375 
Q 41.3125 65.921875 37.59375 65.921875 
Q 27.828125 65.921875 22.671875 59.328125 
Q 17.53125 52.734375 16.796875 39.40625 
Q 19.671875 43.65625 24.015625 45.921875 
Q 28.375 48.1875 33.59375 48.1875 
Q 44.578125 48.1875 50.953125 41.515625 
Q 57.328125 34.859375 57.328125 23.390625 
Q 57.328125 12.15625 50.6875 5.359375 
Q 44.046875 -1.421875 33.015625 -1.421875 
Q 20.359375 -1.421875 13.671875 8.265625 
Q 6.984375 17.96875 6.984375 36.375 
Q 6.984375 53.65625 15.1875 63.9375 
Q 23.390625 74.21875 37.203125 74.21875 
Q 40.921875 74.21875 44.703125 73.484375 
Q 48.484375 72.75 52.59375 71.296875 
z
" id="DejaVuSans-54"/>
       </defs>
       <use xlink:href="#DejaVuSans-54"/>
      </g>
     </g>
    </g>
    <g id="xtick_5">
     <g id="line2d_5">
      <g>
       <use style="stroke:#000000;stroke-width:0.8;" x="658.618515" xlink:href="#mdd3d784aa1" y="640.8"/>
      </g>
     </g>
     <g id="text_5">
      <!-- 8 -->
      <g transform="translate(655.437265 655.398438)scale(0.1 -0.1)">
       <defs>
        <path d="M 31.78125 34.625 
Q 24.75 34.625 20.71875 30.859375 
Q 16.703125 27.09375 16.703125 20.515625 
Q 16.703125 13.921875 20.71875 10.15625 
Q 24.75 6.390625 31.78125 6.390625 
Q 38.8125 6.390625 42.859375 10.171875 
Q 46.921875 13.96875 46.921875 20.515625 
Q 46.921875 27.09375 42.890625 30.859375 
Q 38.875 34.625 31.78125 34.625 
z
M 21.921875 38.8125 
Q 15.578125 40.375 12.03125 44.71875 
Q 8.5 49.078125 8.5 55.328125 
Q 8.5 64.0625 14.71875 69.140625 
Q 20.953125 74.21875 31.78125 74.21875 
Q 42.671875 74.21875 48.875 69.140625 
Q 55.078125 64.0625 55.078125 55.328125 
Q 55.078125 49.078125 51.53125 44.71875 
Q 48 40.375 41.703125 38.8125 
Q 48.828125 37.15625 52.796875 32.3125 
Q 56.78125 27.484375 56.78125 20.515625 
Q 56.78125 9.90625 50.3125 4.234375 
Q 43.84375 -1.421875 31.78125 -1.421875 
Q 19.734375 -1.421875 13.25 4.234375 
Q 6.78125 9.90625 6.78125 20.515625 
Q 6.78125 27.484375 10.78125 32.3125 
Q 14.796875 37.15625 21.921875 38.8125 
z
M 18.3125 54.390625 
Q 18.3125 48.734375 21.84375 45.5625 
Q 25.390625 42.390625 31.78125 42.390625 
Q 38.140625 42.390625 41.71875 45.5625 
Q 45.3125 48.734375 45.3125 54.390625 
Q 45.3125 60.0625 41.71875 63.234375 
Q 38.140625 66.40625 31.78125 66.40625 
Q 25.390625 66.40625 21.84375 63.234375 
Q 18.3125 60.0625 18.3125 54.390625 
z
" id="DejaVuSans-56"/>
       </defs>
       <use xlink:href="#DejaVuSans-56"/>
      </g>
     </g>
    </g>
    <g id="xtick_6">
     <g id="line2d_6">
      <g>
       <use style="stroke:#000000;stroke-width:0.8;" x="780.852828" xlink:href="#mdd3d784aa1" y="640.8"/>
      </g>
     </g>
     <g id="text_6">
      <!-- 10 -->
      <g transform="translate(774.490328 655.398438)scale(0.1 -0.1)">
       <defs>
        <path d="M 12.40625 8.296875 
L 28.515625 8.296875 
L 28.515625 63.921875 
L 10.984375 60.40625 
L 10.984375 69.390625 
L 28.421875 72.90625 
L 38.28125 72.90625 
L 38.28125 8.296875 
L 54.390625 8.296875 
L 54.390625 0 
L 12.40625 0 
z
" id="DejaVuSans-49"/>
       </defs>
       <use xlink:href="#DejaVuSans-49"/>
       <use x="63.623047" xlink:href="#DejaVuSans-48"/>
      </g>
     </g>
    </g>
    <g id="xtick_7">
     <g id="line2d_7">
      <g>
       <use style="stroke:#000000;stroke-width:0.8;" x="903.087142" xlink:href="#mdd3d784aa1" y="640.8"/>
      </g>
     </g>
     <g id="text_7">
      <!-- 12 -->
      <g transform="translate(896.724642 655.398438)scale(0.1 -0.1)">
       <use xlink:href="#DejaVuSans-49"/>
       <use x="63.623047" xlink:href="#DejaVuSans-50"/>
      </g>
     </g>
    </g>
    <g id="text_8">
     <!-- time -->
     <g transform="translate(530.907812 676.675)scale(0.2 -0.2)">
      <defs>
       <path d="M 18.3125 70.21875 
L 18.3125 54.6875 
L 36.8125 54.6875 
L 36.8125 47.703125 
L 18.3125 47.703125 
L 18.3125 18.015625 
Q 18.3125 11.328125 20.140625 9.421875 
Q 21.96875 7.515625 27.59375 7.515625 
L 36.8125 7.515625 
L 36.8125 0 
L 27.59375 0 
Q 17.1875 0 13.234375 3.875 
Q 9.28125 7.765625 9.28125 18.015625 
L 9.28125 47.703125 
L 2.6875 47.703125 
L 2.6875 54.6875 
L 9.28125 54.6875 
L 9.28125 70.21875 
z
" id="DejaVuSans-116"/>
       <path d="M 9.421875 54.6875 
L 18.40625 54.6875 
L 18.40625 0 
L 9.421875 0 
z
M 9.421875 75.984375 
L 18.40625 75.984375 
L 18.40625 64.59375 
L 9.421875 64.59375 
z
" id="DejaVuSans-105"/>
       <path d="M 52 44.1875 
Q 55.375 50.25 60.0625 53.125 
Q 64.75 56 71.09375 56 
Q 79.640625 56 84.28125 50.015625 
Q 88.921875 44.046875 88.921875 33.015625 
L 88.921875 0 
L 79.890625 0 
L 79.890625 32.71875 
Q 79.890625 40.578125 77.09375 44.375 
Q 74.3125 48.1875 68.609375 48.1875 
Q 61.625 48.1875 57.5625 43.546875 
Q 53.515625 38.921875 53.515625 30.90625 
L 53.515625 0 
L 44.484375 0 
L 44.484375 32.71875 
Q 44.484375 40.625 41.703125 44.40625 
Q 38.921875 48.1875 33.109375 48.1875 
Q 26.21875 48.1875 22.15625 43.53125 
Q 18.109375 38.875 18.109375 30.90625 
L 18.109375 0 
L 9.078125 0 
L 9.078125 54.6875 
L 18.109375 54.6875 
L 18.109375 46.1875 
Q 21.1875 51.21875 25.484375 53.609375 
Q 29.78125 56 35.6875 56 
Q 41.65625 56 45.828125 52.96875 
Q 50 49.953125 52 44.1875 
z
" id="DejaVuSans-109"/>
       <path d="M 56.203125 29.59375 
L 56.203125 25.203125 
L 14.890625 25.203125 
Q 15.484375 15.921875 20.484375 11.0625 
Q 25.484375 6.203125 34.421875 6.203125 
Q 39.59375 6.203125 44.453125 7.46875 
Q 49.3125 8.734375 54.109375 11.28125 
L 54.109375 2.78125 
Q 49.265625 0.734375 44.1875 -0.34375 
Q 39.109375 -1.421875 33.890625 -1.421875 
Q 20.796875 -1.421875 13.15625 6.1875 
Q 5.515625 13.8125 5.515625 26.8125 
Q 5.515625 40.234375 12.765625 48.109375 
Q 20.015625 56 32.328125 56 
Q 43.359375 56 49.78125 48.890625 
Q 56.203125 41.796875 56.203125 29.59375 
z
M 47.21875 32.234375 
Q 47.125 39.59375 43.09375 43.984375 
Q 39.0625 48.390625 32.421875 48.390625 
Q 24.90625 48.390625 20.390625 44.140625 
Q 15.875 39.890625 15.1875 32.171875 
z
" id="DejaVuSans-101"/>
      </defs>
      <use xlink:href="#DejaVuSans-116"/>
      <use x="39.208984" xlink:href="#DejaVuSans-105"/>
      <use x="66.992188" xlink:href="#DejaVuSans-109"/>
      <use x="164.404297" xlink:href="#DejaVuSans-101"/>
     </g>
    </g>
   </g>
   <g id="matplotlib.axis_2">
    <g id="ytick_1">
     <g id="line2d_8">
      <defs>
       <path d="M 0 0 
L -3.5 0 
" id="mc52b9bd213" style="stroke:#000000;stroke-width:0.8;"/>
      </defs>
      <g>
       <use style="stroke:#000000;stroke-width:0.8;" x="135" xlink:href="#mc52b9bd213" y="634.266667"/>
      </g>
     </g>
     <g id="text_9">
      <!-- 0 -->
      <g transform="translate(121.6375 638.065885)scale(0.1 -0.1)">
       <use xlink:href="#DejaVuSans-48"/>
      </g>
     </g>
    </g>
    <g id="ytick_2">
     <g id="line2d_9">
      <g>
       <use style="stroke:#000000;stroke-width:0.8;" x="135" xlink:href="#mc52b9bd213" y="570.339726"/>
      </g>
     </g>
     <g id="text_10">
      <!-- 5000 -->
      <g transform="translate(102.55 574.138945)scale(0.1 -0.1)">
       <defs>
        <path d="M 10.796875 72.90625 
L 49.515625 72.90625 
L 49.515625 64.59375 
L 19.828125 64.59375 
L 19.828125 46.734375 
Q 21.96875 47.46875 24.109375 47.828125 
Q 26.265625 48.1875 28.421875 48.1875 
Q 40.625 48.1875 47.75 41.5 
Q 54.890625 34.8125 54.890625 23.390625 
Q 54.890625 11.625 47.5625 5.09375 
Q 40.234375 -1.421875 26.90625 -1.421875 
Q 22.3125 -1.421875 17.546875 -0.640625 
Q 12.796875 0.140625 7.71875 1.703125 
L 7.71875 11.625 
Q 12.109375 9.234375 16.796875 8.0625 
Q 21.484375 6.890625 26.703125 6.890625 
Q 35.15625 6.890625 40.078125 11.328125 
Q 45.015625 15.765625 45.015625 23.390625 
Q 45.015625 31 40.078125 35.4375 
Q 35.15625 39.890625 26.703125 39.890625 
Q 22.75 39.890625 18.8125 39.015625 
Q 14.890625 38.140625 10.796875 36.28125 
z
" id="DejaVuSans-53"/>
       </defs>
       <use xlink:href="#DejaVuSans-53"/>
       <use x="63.623047" xlink:href="#DejaVuSans-48"/>
       <use x="127.246094" xlink:href="#DejaVuSans-48"/>
       <use x="190.869141" xlink:href="#DejaVuSans-48"/>
      </g>
     </g>
    </g>
    <g id="ytick_3">
     <g id="line2d_10">
      <g>
       <use style="stroke:#000000;stroke-width:0.8;" x="135" xlink:href="#mc52b9bd213" y="506.412785"/>
      </g>
     </g>
     <g id="text_11">
      <!-- 10000 -->
      <g transform="translate(96.1875 510.212004)scale(0.1 -0.1)">
       <use xlink:href="#DejaVuSans-49"/>
       <use x="63.623047" xlink:href="#DejaVuSans-48"/>
       <use x="127.246094" xlink:href="#DejaVuSans-48"/>
       <use x="190.869141" xlink:href="#DejaVuSans-48"/>
       <use x="254.492188" xlink:href="#DejaVuSans-48"/>
      </g>
     </g>
    </g>
    <g id="ytick_4">
     <g id="line2d_11">
      <g>
       <use style="stroke:#000000;stroke-width:0.8;" x="135" xlink:href="#mc52b9bd213" y="442.485845"/>
      </g>
     </g>
     <g id="text_12">
      <!-- 15000 -->
      <g transform="translate(96.1875 446.285063)scale(0.1 -0.1)">
       <use xlink:href="#DejaVuSans-49"/>
       <use x="63.623047" xlink:href="#DejaVuSans-53"/>
       <use x="127.246094" xlink:href="#DejaVuSans-48"/>
       <use x="190.869141" xlink:href="#DejaVuSans-48"/>
       <use x="254.492188" xlink:href="#DejaVuSans-48"/>
      </g>
     </g>
    </g>
    <g id="ytick_5">
     <g id="line2d_12">
      <g>
       <use style="stroke:#000000;stroke-width:0.8;" x="135" xlink:href="#mc52b9bd213" y="378.558904"/>
      </g>
     </g>
     <g id="text_13">
      <!-- 20000 -->
      <g transform="translate(96.1875 382.358123)scale(0.1 -0.1)">
       <use xlink:href="#DejaVuSans-50"/>
       <use x="63.623047" xlink:href="#DejaVuSans-48"/>
       <use x="127.246094" xlink:href="#DejaVuSans-48"/>
       <use x="190.869141" xlink:href="#DejaVuSans-48"/>
       <use x="254.492188" xlink:href="#DejaVuSans-48"/>
      </g>
     </g>
    </g>
    <g id="ytick_6">
     <g id="line2d_13">
      <g>
       <use style="stroke:#000000;stroke-width:0.8;" x="135" xlink:href="#mc52b9bd213" y="314.631963"/>
      </g>
     </g>
     <g id="text_14">
      <!-- 25000 -->
      <g transform="translate(96.1875 318.431182)scale(0.1 -0.1)">
       <use xlink:href="#DejaVuSans-50"/>
       <use x="63.623047" xlink:href="#DejaVuSans-53"/>
       <use x="127.246094" xlink:href="#DejaVuSans-48"/>
       <use x="190.869141" xlink:href="#DejaVuSans-48"/>
       <use x="254.492188" xlink:href="#DejaVuSans-48"/>
      </g>
     </g>
    </g>
    <g id="ytick_7">
     <g id="line2d_14">
      <g>
       <use style="stroke:#000000;stroke-width:0.8;" x="135" xlink:href="#mc52b9bd213" y="250.705023"/>
      </g>
     </g>
     <g id="text_15">
      <!-- 30000 -->
      <g transform="translate(96.1875 254.504242)scale(0.1 -0.1)">
       <defs>
        <path d="M 40.578125 39.3125 
Q 47.65625 37.796875 51.625 33 
Q 55.609375 28.21875 55.609375 21.1875 
Q 55.609375 10.40625 48.1875 4.484375 
Q 40.765625 -1.421875 27.09375 -1.421875 
Q 22.515625 -1.421875 17.65625 -0.515625 
Q 12.796875 0.390625 7.625 2.203125 
L 7.625 11.71875 
Q 11.71875 9.328125 16.59375 8.109375 
Q 21.484375 6.890625 26.8125 6.890625 
Q 36.078125 6.890625 40.9375 10.546875 
Q 45.796875 14.203125 45.796875 21.1875 
Q 45.796875 27.640625 41.28125 31.265625 
Q 36.765625 34.90625 28.71875 34.90625 
L 20.21875 34.90625 
L 20.21875 43.015625 
L 29.109375 43.015625 
Q 36.375 43.015625 40.234375 45.921875 
Q 44.09375 48.828125 44.09375 54.296875 
Q 44.09375 59.90625 40.109375 62.90625 
Q 36.140625 65.921875 28.71875 65.921875 
Q 24.65625 65.921875 20.015625 65.03125 
Q 15.375 64.15625 9.8125 62.3125 
L 9.8125 71.09375 
Q 15.4375 72.65625 20.34375 73.4375 
Q 25.25 74.21875 29.59375 74.21875 
Q 40.828125 74.21875 47.359375 69.109375 
Q 53.90625 64.015625 53.90625 55.328125 
Q 53.90625 49.265625 50.4375 45.09375 
Q 46.96875 40.921875 40.578125 39.3125 
z
" id="DejaVuSans-51"/>
       </defs>
       <use xlink:href="#DejaVuSans-51"/>
       <use x="63.623047" xlink:href="#DejaVuSans-48"/>
       <use x="127.246094" xlink:href="#DejaVuSans-48"/>
       <use x="190.869141" xlink:href="#DejaVuSans-48"/>
       <use x="254.492188" xlink:href="#DejaVuSans-48"/>
      </g>
     </g>
    </g>
    <g id="ytick_8">
     <g id="line2d_15">
      <g>
       <use style="stroke:#000000;stroke-width:0.8;" x="135" xlink:href="#mc52b9bd213" y="186.778082"/>
      </g>
     </g>
     <g id="text_16">
      <!-- 35000 -->
      <g transform="translate(96.1875 190.577301)scale(0.1 -0.1)">
       <use xlink:href="#DejaVuSans-51"/>
       <use x="63.623047" xlink:href="#DejaVuSans-53"/>
       <use x="127.246094" xlink:href="#DejaVuSans-48"/>
       <use x="190.869141" xlink:href="#DejaVuSans-48"/>
       <use x="254.492188" xlink:href="#DejaVuSans-48"/>
      </g>
     </g>
    </g>
    <g id="ytick_9">
     <g id="line2d_16">
      <g>
       <use style="stroke:#000000;stroke-width:0.8;" x="135" xlink:href="#mc52b9bd213" y="122.851142"/>
      </g>
     </g>
     <g id="text_17">
      <!-- 40000 -->
      <g transform="translate(96.1875 126.65036)scale(0.1 -0.1)">
       <use xlink:href="#DejaVuSans-52"/>
       <use x="63.623047" xlink:href="#DejaVuSans-48"/>
       <use x="127.246094" xlink:href="#DejaVuSans-48"/>
       <use x="190.869141" xlink:href="#DejaVuSans-48"/>
       <use x="254.492188" xlink:href="#DejaVuSans-48"/>
      </g>
     </g>
    </g>
    <g id="text_18">
     <!-- cwnd (bytes) -->
     <g transform="translate(88.028125 428.49375)rotate(-90)scale(0.2 -0.2)">
      <defs>
       <path d="M 48.78125 52.59375 
L 48.78125 44.1875 
Q 44.96875 46.296875 41.140625 47.34375 
Q 37.3125 48.390625 33.40625 48.390625 
Q 24.65625 48.390625 19.8125 42.84375 
Q 14.984375 37.3125 14.984375 27.296875 
Q 14.984375 17.28125 19.8125 11.734375 
Q 24.65625 6.203125 33.40625 6.203125 
Q 37.3125 6.203125 41.140625 7.25 
Q 44.96875 8.296875 48.78125 10.40625 
L 48.78125 2.09375 
Q 45.015625 0.34375 40.984375 -0.53125 
Q 36.96875 -1.421875 32.421875 -1.421875 
Q 20.0625 -1.421875 12.78125 6.34375 
Q 5.515625 14.109375 5.515625 27.296875 
Q 5.515625 40.671875 12.859375 48.328125 
Q 20.21875 56 33.015625 56 
Q 37.15625 56 41.109375 55.140625 
Q 45.0625 54.296875 48.78125 52.59375 
z
" id="DejaVuSans-99"/>
       <path d="M 4.203125 54.6875 
L 13.1875 54.6875 
L 24.421875 12.015625 
L 35.59375 54.6875 
L 46.1875 54.6875 
L 57.421875 12.015625 
L 68.609375 54.6875 
L 77.59375 54.6875 
L 63.28125 0 
L 52.6875 0 
L 40.921875 44.828125 
L 29.109375 0 
L 18.5 0 
z
" id="DejaVuSans-119"/>
       <path d="M 54.890625 33.015625 
L 54.890625 0 
L 45.90625 0 
L 45.90625 32.71875 
Q 45.90625 40.484375 42.875 44.328125 
Q 39.84375 48.1875 33.796875 48.1875 
Q 26.515625 48.1875 22.3125 43.546875 
Q 18.109375 38.921875 18.109375 30.90625 
L 18.109375 0 
L 9.078125 0 
L 9.078125 54.6875 
L 18.109375 54.6875 
L 18.109375 46.1875 
Q 21.34375 51.125 25.703125 53.5625 
Q 30.078125 56 35.796875 56 
Q 45.21875 56 50.046875 50.171875 
Q 54.890625 44.34375 54.890625 33.015625 
z
" id="DejaVuSans-110"/>
       <path d="M 45.40625 46.390625 
L 45.40625 75.984375 
L 54.390625 75.984375 
L 54.390625 0 
L 45.40625 0 
L 45.40625 8.203125 
Q 42.578125 3.328125 38.25 0.953125 
Q 33.9375 -1.421875 27.875 -1.421875 
Q 17.96875 -1.421875 11.734375 6.484375 
Q 5.515625 14.40625 5.515625 27.296875 
Q 5.515625 40.1875 11.734375 48.09375 
Q 17.96875 56 27.875 56 
Q 33.9375 56 38.25 53.625 
Q 42.578125 51.265625 45.40625 46.390625 
z
M 14.796875 27.296875 
Q 14.796875 17.390625 18.875 11.75 
Q 22.953125 6.109375 30.078125 6.109375 
Q 37.203125 6.109375 41.296875 11.75 
Q 45.40625 17.390625 45.40625 27.296875 
Q 45.40625 37.203125 41.296875 42.84375 
Q 37.203125 48.484375 30.078125 48.484375 
Q 22.953125 48.484375 18.875 42.84375 
Q 14.796875 37.203125 14.796875 27.296875 
z
" id="DejaVuSans-100"/>
       <path id="DejaVuSans-32"/>
       <path d="M 31 75.875 
Q 24.46875 64.65625 21.28125 53.65625 
Q 18.109375 42.671875 18.109375 31.390625 
Q 18.109375 20.125 21.3125 9.0625 
Q 24.515625 -2 31 -13.1875 
L 23.1875 -13.1875 
Q 15.875 -1.703125 12.234375 9.375 
Q 8.59375 20.453125 8.59375 31.390625 
Q 8.59375 42.28125 12.203125 53.3125 
Q 15.828125 64.359375 23.1875 75.875 
z
" id="DejaVuSans-40"/>
       <path d="M 48.6875 27.296875 
Q 48.6875 37.203125 44.609375 42.84375 
Q 40.53125 48.484375 33.40625 48.484375 
Q 26.265625 48.484375 22.1875 42.84375 
Q 18.109375 37.203125 18.109375 27.296875 
Q 18.109375 17.390625 22.1875 11.75 
Q 26.265625 6.109375 33.40625 6.109375 
Q 40.53125 6.109375 44.609375 11.75 
Q 48.6875 17.390625 48.6875 27.296875 
z
M 18.109375 46.390625 
Q 20.953125 51.265625 25.265625 53.625 
Q 29.59375 56 35.59375 56 
Q 45.5625 56 51.78125 48.09375 
Q 58.015625 40.1875 58.015625 27.296875 
Q 58.015625 14.40625 51.78125 6.484375 
Q 45.5625 -1.421875 35.59375 -1.421875 
Q 29.59375 -1.421875 25.265625 0.953125 
Q 20.953125 3.328125 18.109375 8.203125 
L 18.109375 0 
L 9.078125 0 
L 9.078125 75.984375 
L 18.109375 75.984375 
z
" id="DejaVuSans-98"/>
       <path d="M 32.171875 -5.078125 
Q 28.375 -14.84375 24.75 -17.8125 
Q 21.140625 -20.796875 15.09375 -20.796875 
L 7.90625 -20.796875 
L 7.90625 -13.28125 
L 13.1875 -13.28125 
Q 16.890625 -13.28125 18.9375 -11.515625 
Q 21 -9.765625 23.484375 -3.21875 
L 25.09375 0.875 
L 2.984375 54.6875 
L 12.5 54.6875 
L 29.59375 11.921875 
L 46.6875 54.6875 
L 56.203125 54.6875 
z
" id="DejaVuSans-121"/>
       <path d="M 44.28125 53.078125 
L 44.28125 44.578125 
Q 40.484375 46.53125 36.375 47.5 
Q 32.28125 48.484375 27.875 48.484375 
Q 21.1875 48.484375 17.84375 46.4375 
Q 14.5 44.390625 14.5 40.28125 
Q 14.5 37.15625 16.890625 35.375 
Q 19.28125 33.59375 26.515625 31.984375 
L 29.59375 31.296875 
Q 39.15625 29.25 43.1875 25.515625 
Q 47.21875 21.78125 47.21875 15.09375 
Q 47.21875 7.46875 41.1875 3.015625 
Q 35.15625 -1.421875 24.609375 -1.421875 
Q 20.21875 -1.421875 15.453125 -0.5625 
Q 10.6875 0.296875 5.421875 2 
L 5.421875 11.28125 
Q 10.40625 8.6875 15.234375 7.390625 
Q 20.0625 6.109375 24.8125 6.109375 
Q 31.15625 6.109375 34.5625 8.28125 
Q 37.984375 10.453125 37.984375 14.40625 
Q 37.984375 18.0625 35.515625 20.015625 
Q 33.0625 21.96875 24.703125 23.78125 
L 21.578125 24.515625 
Q 13.234375 26.265625 9.515625 29.90625 
Q 5.8125 33.546875 5.8125 39.890625 
Q 5.8125 47.609375 11.28125 51.796875 
Q 16.75 56 26.8125 56 
Q 31.78125 56 36.171875 55.265625 
Q 40.578125 54.546875 44.28125 53.078125 
z
" id="DejaVuSans-115"/>
       <path d="M 8.015625 75.875 
L 15.828125 75.875 
Q 23.140625 64.359375 26.78125 53.3125 
Q 30.421875 42.28125 30.421875 31.390625 
Q 30.421875 20.453125 26.78125 9.375 
Q 23.140625 -1.703125 15.828125 -13.1875 
L 8.015625 -13.1875 
Q 14.5 -2 17.703125 9.0625 
Q 20.90625 20.125 20.90625 31.390625 
Q 20.90625 42.671875 17.703125 53.65625 
Q 14.5 64.65625 8.015625 75.875 
z
" id="DejaVuSans-41"/>
      </defs>
      <use xlink:href="#DejaVuSans-99"/>
      <use x="54.980469" xlink:href="#DejaVuSans-119"/>
      <use x="136.767578" xlink:href="#DejaVuSans-110"/>
      <use x="200.146484" xlink:href="#DejaVuSans-100"/>
      <use x="263.623047" xlink:href="#DejaVuSans-32"/>
      <use x="295.410156" xlink:href="#DejaVuSans-40"/>
      <use x="334.423828" xlink:href="#DejaVuSans-98"/>
      <use x="397.900391" xlink:href="#DejaVuSans-121"/>
      <use x="457.080078" xlink:href="#DejaVuSans-116"/>
      <use x="496.289062" xlink:href="#DejaVuSans-101"/>
      <use x="557.8125" xlink:href="#DejaVuSans-115"/>
      <use x="609.912109" xlink:href="#DejaVuSans-41"/>
     </g>
    </g>
   </g>
   <g id="line2d_17">
    <path clip-path="url(#pbbaeedb16e)" d="M 173.045455 596.933333 
L 174.494726 578.266667 
L 174.500593 559.6 
L 175.785765 540.933333 
L 175.787231 503.6 
L 177.144216 484.933333 
L 177.14666 447.6 
L 178.425476 447.6 
L 178.425903 503.6 
L 181.02436 503.6 
L 182.316622 484.933333 
L 183.606805 484.933333 
L 183.607172 522.266667 
L 186.266623 522.266667 
L 186.269374 503.6 
L 187.634181 503.6 
L 187.634303 484.933333 
L 190.311724 484.933333 
L 190.311907 466.266667 
L 191.623665 466.266667 
L 192.966897 447.6 
L 194.312636 447.6 
L 194.312758 428.933333 
L 196.942874 428.933333 
L 196.94318 410.266667 
L 198.284212 410.266667 
L 198.284334 391.6 
L 200.962855 391.6 
L 200.963344 372.933333 
L 203.65696 372.933333 
L 203.660016 354.266667 
L 204.986075 354.266667 
L 204.986686 335.6 
L 207.645833 335.6 
L 207.6473 316.933333 
L 208.970242 316.933333 
L 208.970608 298.266667 
L 211.659213 298.266667 
L 211.659763 428.933333 
L 213.006663 428.933333 
L 214.350935 410.266667 
L 215.69044 410.266667 
L 215.690684 391.6 
L 218.320678 391.6 
L 218.383323 372.933333 
L 219.664949 372.933333 
L 219.667394 354.266667 
L 221.015027 354.266667 
L 222.306066 335.6 
L 223.649666 335.6 
L 223.649971 316.933333 
L 226.351594 316.933333 
L 226.352144 298.266667 
L 227.610363 298.266667 
L 227.610485 279.6 
L 230.293773 279.6 
L 230.29414 260.933333 
L 231.580473 260.933333 
L 231.592024 242.266667 
L 234.292974 242.266667 
L 234.295602 223.6 
L 235.621967 223.6 
L 235.622395 204.933333 
L 238.2629 204.933333 
L 238.277691 186.266667 
L 240.868569 186.266667 
L 240.870586 167.6 
L 240.870586 167.6 
L 242.231054 167.6 
L 242.23246 148.933333 
L 244.893928 148.933333 
L 244.894601 130.266667 
L 247.515732 130.266667 
L 247.517749 111.6 
L 248.811233 111.6 
L 248.812516 223.6 
L 250.141509 223.6 
L 250.141814 204.933333 
L 251.491037 204.933333 
L 251.491159 260.933333 
L 252.809395 260.933333 
L 254.101045 242.266667 
L 255.411335 242.266667 
L 255.422825 354.266667 
L 256.705613 354.266667 
L 256.705736 372.933333 
L 257.986751 372.933333 
L 259.271495 354.266667 
L 260.619801 354.266667 
L 260.62029 335.6 
L 263.183054 335.6 
L 263.18391 316.933333 
L 264.580131 316.933333 
L 264.580192 298.266667 
L 265.830588 298.266667 
L 265.830711 354.266667 
L 267.092535 354.266667 
L 267.09443 410.266667 
L 268.437663 410.266667 
L 268.437968 391.6 
L 269.781201 391.6 
L 271.128896 372.933333 
L 272.451471 372.933333 
L 272.451593 354.266667 
L 273.779975 354.266667 
L 273.780769 410.266667 
L 276.437104 410.266667 
L 276.437104 410.266667 
L 277.709625 391.6 
L 279.032444 391.6 
L 279.032567 372.933333 
L 280.383622 372.933333 
L 280.384356 447.6 
L 284.41931 447.6 
L 284.419861 428.933333 
L 285.768961 428.933333 
L 287.11855 410.266667 
L 288.464166 410.266667 
L 288.465083 484.933333 
L 291.144092 484.933333 
L 291.144092 466.266667 
L 293.806539 466.266667 
L 293.807395 447.6 
L 295.112918 447.6 
L 295.113041 428.933333 
L 299.114931 428.933333 
L 299.117864 410.266667 
L 301.838739 410.266667 
L 301.839228 391.6 
L 304.488107 391.6 
L 304.490735 372.933333 
L 305.863243 372.933333 
L 305.863365 354.266667 
L 308.56511 354.266667 
L 308.565599 335.6 
L 311.279812 335.6 
L 311.280545 316.933333 
L 312.624084 316.933333 
L 312.624695 298.266667 
L 315.201028 298.266667 
L 315.20225 279.6 
L 316.513396 279.6 
L 316.513763 260.933333 
L 319.123343 260.933333 
L 319.12426 242.266667 
L 321.843118 242.266667 
L 321.844463 223.6 
L 323.201936 223.6 
L 323.202914 298.266667 
L 324.532884 298.266667 
L 324.533129 279.6 
L 327.159638 279.6 
L 327.160494 260.933333 
L 329.793788 260.933333 
L 329.796477 242.266667 
L 329.796783 316.933333 
L 332.493944 316.933333 
L 333.7947 298.266667 
L 335.073393 298.266667 
L 335.085739 279.6 
L 336.409048 279.6 
L 336.409964 354.266667 
L 337.750447 354.266667 
L 337.750753 335.6 
L 340.394925 335.6 
L 340.395231 372.933333 
L 341.686942 372.933333 
L 341.690548 354.266667 
L 344.379886 354.266667 
L 344.403172 335.6 
L 345.772685 335.6 
L 345.773357 316.933333 
L 347.112923 316.933333 
L 348.452672 298.266667 
L 348.453161 354.266667 
L 351.100268 354.266667 
L 351.100573 335.6 
L 353.765587 335.6 
L 353.766809 316.933333 
L 355.085228 316.933333 
L 355.08529 298.266667 
L 357.791007 298.266667 
L 357.792107 279.6 
L 359.123728 279.6 
L 359.123972 354.266667 
L 360.46036 354.266667 
L 360.460605 335.6 
L 363.097138 335.6 
L 363.097504 372.933333 
L 364.401683 372.933333 
L 364.406695 410.266667 
L 365.761601 410.266667 
L 367.113329 391.6 
L 368.410235 391.6 
L 368.410663 372.933333 
L 371.061864 372.933333 
L 371.06272 354.266667 
L 372.442807 354.266667 
L 372.442868 335.6 
L 374.980391 335.6 
L 374.980697 316.933333 
L 374.980697 316.933333 
L 377.574509 316.933333 
L 377.576159 298.266667 
L 377.576159 298.266667 
L 378.862675 298.266667 
L 378.862981 279.6 
L 380.183906 279.6 
L 380.1847 372.933333 
L 381.531722 372.933333 
L 381.531845 391.6 
L 385.567349 391.6 
L 385.568144 372.933333 
L 386.897931 372.933333 
L 386.898053 354.266667 
L 388.182125 354.266667 
L 388.18243 428.933333 
L 390.784677 428.933333 
L 392.139766 410.266667 
L 393.439545 410.266667 
L 393.439973 391.6 
L 396.047964 391.6 
L 396.048331 372.933333 
L 397.392297 372.933333 
L 397.392541 410.266667 
L 398.67808 410.266667 
L 398.678202 391.6 
L 401.347432 391.6 
L 401.347921 372.933333 
L 403.975531 372.933333 
L 403.976693 354.266667 
L 405.289795 354.266667 
L 405.2901 335.6 
L 407.905731 335.6 
L 407.906159 316.933333 
L 409.207466 316.933333 
L 410.545687 298.266667 
L 411.876024 298.266667 
L 411.876757 279.6 
L 414.574285 279.6 
L 414.60026 260.933333 
L 415.948199 260.933333 
L 415.948566 242.266667 
L 418.613579 242.266667 
L 418.614618 354.266667 
L 419.953756 354.266667 
L 419.954734 335.6 
L 422.652568 335.6 
L 422.653546 316.933333 
L 423.929122 316.933333 
L 425.285128 298.266667 
L 426.61901 298.266667 
L 426.619377 279.6 
L 429.301137 279.6 
L 429.302053 260.933333 
L 430.615644 260.933333 
L 430.615644 260.933333 
L 431.952338 242.266667 
L 433.22608 242.266667 
L 433.226875 223.6 
L 434.569619 223.6 
L 434.571147 354.266667 
L 440.254248 615.6 
L 442.880758 615.6 
L 444.224846 596.933333 
L 445.574985 596.933333 
L 445.577919 578.266667 
L 446.916751 578.266667 
L 448.265485 559.6 
L 449.548578 559.6 
L 449.548762 540.933333 
L 452.232783 540.933333 
L 452.234005 522.266667 
L 456.082002 522.266667 
L 456.082063 503.6 
L 458.756978 503.6 
L 458.759606 484.933333 
L 460.059874 484.933333 
L 460.059874 466.266667 
L 462.721831 466.266667 
L 462.72232 447.6 
L 464.023566 447.6 
L 465.2684 428.933333 
L 466.610777 428.933333 
L 466.611022 410.266667 
L 467.895276 410.266667 
L 467.895521 466.266667 
L 469.237287 484.933333 
L 477.123356 615.6 
L 479.756283 615.6 
L 481.055817 596.933333 
L 482.395811 596.933333 
L 482.397094 578.266667 
L 486.399596 578.266667 
L 489.422817 615.6 
L 496.896834 615.6 
L 498.197407 596.933333 
L 499.478851 596.933333 
L 499.480195 578.266667 
L 500.74257 578.266667 
L 502.036787 559.6 
L 503.339255 559.6 
L 503.339438 540.933333 
L 506.025904 540.933333 
L 506.028471 522.266667 
L 507.38301 522.266667 
L 508.721965 503.6 
L 510.040018 503.6 
L 510.040629 540.933333 
L 514.05572 540.933333 
L 514.057921 522.266667 
L 516.699037 522.266667 
L 516.699649 540.933333 
L 519.295294 540.933333 
L 519.295355 522.266667 
L 521.969292 522.266667 
L 521.972715 503.6 
L 523.293701 503.6 
L 523.293823 484.933333 
L 525.9273 484.933333 
L 525.927728 466.266667 
L 527.27035 466.266667 
L 528.6156 447.6 
L 529.939092 447.6 
L 529.939214 428.933333 
L 532.574097 428.933333 
L 532.574463 410.266667 
L 535.219492 410.266667 
L 535.219675 466.266667 
L 536.507414 466.266667 
L 536.510469 447.6 
L 539.164665 447.6 
L 539.164971 428.933333 
L 541.778707 428.933333 
L 541.782313 410.266667 
L 541.782435 428.933333 
L 544.447571 428.933333 
L 544.447755 410.266667 
L 547.088749 410.266667 
L 547.089421 391.6 
L 548.410652 391.6 
L 548.410774 372.933333 
L 549.757919 372.933333 
L 549.758102 391.6 
L 552.384917 391.6 
L 552.385651 372.933333 
L 553.681762 372.933333 
L 553.681946 354.266667 
L 556.296232 354.266667 
L 556.296782 428.933333 
L 557.610984 428.933333 
L 557.611168 410.266667 
L 560.294883 410.266667 
L 560.295433 391.6 
L 561.598634 391.6 
L 562.849214 372.933333 
L 562.849214 372.933333 
L 564.141414 372.933333 
L 564.151865 354.266667 
L 566.851471 354.266667 
L 566.852632 335.6 
L 568.186453 335.6 
L 568.186942 316.933333 
L 570.801839 316.933333 
L 570.802939 298.266667 
L 572.10339 298.266667 
L 572.105346 279.6 
L 574.75563 279.6 
L 574.75673 260.933333 
L 577.375662 260.933333 
L 577.399253 242.266667 
L 577.399497 279.6 
L 578.719811 298.266667 
L 578.722134 372.933333 
L 581.353105 372.933333 
L 581.35335 354.266667 
L 584.077586 354.266667 
L 584.079236 335.6 
L 585.430353 335.6 
L 585.430475 316.933333 
L 588.059185 316.933333 
L 588.063402 298.266667 
L 590.718943 298.266667 
L 590.737095 279.6 
L 592.036995 279.6 
L 592.038095 260.933333 
L 593.394896 260.933333 
L 593.395019 242.266667 
L 594.736601 242.266667 
L 594.736724 279.6 
L 597.370384 279.6 
L 597.381569 260.933333 
L 598.667596 260.933333 
L 598.667718 242.266667 
L 598.667718 242.266667 
L 599.969269 242.266667 
L 599.969636 335.6 
L 602.605496 335.6 
L 602.605619 316.933333 
L 605.24588 316.933333 
L 605.246185 298.266667 
L 605.246185 298.266667 
L 606.540586 298.266667 
L 606.541075 354.266667 
L 607.877035 354.266667 
L 607.877035 354.266667 
L 609.203949 335.6 
L 610.54706 335.6 
L 610.547671 391.6 
L 611.856678 391.6 
L 611.8568 372.933333 
L 614.545833 372.933333 
L 614.546016 391.6 
L 615.889005 391.6 
L 615.88931 428.933333 
L 618.519854 428.933333 
L 618.520037 447.6 
L 619.85887 447.6 
L 619.85942 428.933333 
L 622.496381 428.933333 
L 622.496992 410.266667 
L 625.098077 410.266667 
L 625.098382 391.6 
L 627.79426 391.6 
L 627.794749 372.933333 
L 630.431466 372.933333 
L 630.432994 354.266667 
L 631.724643 354.266667 
L 631.724888 335.6 
L 633.007493 335.6 
L 633.00792 391.6 
L 634.356104 391.6 
L 634.356165 410.266667 
L 634.356165 410.266667 
L 638.357689 410.266667 
L 638.414222 484.933333 
L 639.700677 484.933333 
L 639.701899 466.266667 
L 642.44172 466.266667 
L 642.442454 447.6 
L 643.789659 447.6 
L 645.107956 428.933333 
L 646.416475 428.933333 
L 646.416536 410.266667 
L 646.416536 410.266667 
L 649.090656 410.266667 
L 649.09145 391.6 
L 650.342457 391.6 
L 650.342457 372.933333 
L 653.019878 372.933333 
L 653.02055 354.266667 
L 655.651216 354.266667 
L 655.655861 335.6 
L 656.953378 335.6 
L 656.953989 316.933333 
L 659.594006 316.933333 
L 659.594923 391.6 
L 660.90558 391.6 
L 660.905641 410.266667 
L 662.223083 410.266667 
L 663.50801 391.6 
L 664.787192 391.6 
L 664.78762 372.933333 
L 667.38956 372.933333 
L 667.396589 354.266667 
L 668.711219 354.266667 
L 668.711341 335.6 
L 671.347874 335.6 
L 671.350074 316.933333 
L 671.350258 335.6 
L 672.681512 335.6 
L 672.682062 372.933333 
L 676.730034 372.933333 
L 676.731196 354.266667 
L 678.030485 354.266667 
L 678.030669 335.6 
L 680.65235 335.6 
L 680.653206 316.933333 
L 683.239439 316.933333 
L 683.240539 298.266667 
L 684.606508 298.266667 
L 684.606997 279.6 
L 687.207287 279.6 
L 687.20851 260.933333 
L 688.554126 260.933333 
L 688.554309 242.266667 
L 691.200377 242.266667 
L 691.201294 354.266667 
L 692.524541 354.266667 
L 692.525275 335.6 
L 695.202939 335.6 
L 695.203367 316.933333 
L 697.851024 316.933333 
L 697.853407 298.266667 
L 699.180688 298.266667 
L 699.180933 279.6 
L 700.476739 279.6 
L 700.476983 354.266667 
L 703.039137 354.266667 
L 703.045004 335.6 
L 704.342277 335.6 
L 705.678481 316.933333 
L 707.045855 316.933333 
L 707.047017 410.266667 
L 709.627322 410.266667 
L 709.628239 391.6 
L 710.954175 391.6 
L 710.954298 372.933333 
L 713.541998 372.933333 
L 713.542304 354.266667 
L 714.868851 354.266667 
L 716.174925 335.6 
L 717.449646 335.6 
L 717.449829 316.933333 
L 720.081106 316.933333 
L 720.082023 298.266667 
L 721.43314 298.266667 
L 721.433323 279.6 
L 724.114716 279.6 
L 724.125106 260.933333 
L 725.458071 260.933333 
L 725.460821 242.266667 
L 728.06044 242.266667 
L 728.075413 223.6 
L 729.383015 223.6 
L 729.389371 372.933333 
L 735.100831 615.6 
L 737.771222 615.6 
L 737.774645 596.933333 
L 739.058228 596.933333 
L 739.060428 578.266667 
L 740.403905 578.266667 
L 741.71059 559.6 
L 742.975043 559.6 
L 742.975226 540.933333 
L 745.578328 540.933333 
L 745.580712 522.266667 
L 746.844981 522.266667 
L 748.136203 503.6 
L 749.475891 503.6 
L 749.476014 484.933333 
L 752.163518 484.933333 
L 752.165046 466.266667 
L 753.484077 466.266667 
L 753.484199 447.6 
L 756.156791 447.6 
L 756.157341 428.933333 
L 758.821438 428.933333 
L 758.822905 410.266667 
L 760.169499 410.266667 
L 760.169499 391.6 
L 760.16956 391.6 
L 762.834146 391.6 
L 762.834574 372.933333 
L 762.834574 372.933333 
L 764.132213 372.933333 
L 764.132519 354.266667 
L 765.443176 354.266667 
L 765.44391 428.933333 
L 768.081971 428.933333 
L 768.082154 410.266667 
L 769.416464 410.266667 
L 769.416586 447.6 
L 772.01486 447.6 
L 772.014982 428.933333 
L 774.674801 428.933333 
L 774.675106 410.266667 
L 775.952944 410.266667 
L 775.953005 391.6 
L 777.275825 391.6 
L 777.275947 410.266667 
L 779.912419 410.266667 
L 779.91303 447.6 
L 786.608598 447.6 
L 786.60872 484.933333 
L 789.276667 484.933333 
L 790.588242 466.266667 
L 791.897493 466.266667 
L 791.89786 447.6 
L 794.55939 447.6 
L 794.559634 428.933333 
L 795.909285 428.933333 
L 797.207474 410.266667 
L 798.563786 410.266667 
L 798.56403 391.6 
L 801.149347 391.6 
L 801.149653 372.933333 
L 801.149653 372.933333 
L 802.490136 372.933333 
L 802.490197 354.266667 
L 805.055956 354.266667 
L 805.056262 335.6 
L 807.680388 335.6 
L 807.680693 391.6 
L 810.274506 391.6 
L 810.274628 447.6 
L 811.592314 447.6 
L 811.592375 466.266667 
L 812.911894 466.266667 
L 814.274135 447.6 
L 815.571652 447.6 
L 815.571896 428.933333 
L 818.241616 428.933333 
L 818.242227 410.266667 
L 819.593894 410.266667 
L 819.594016 391.6 
L 822.218265 391.6 
L 822.243384 372.933333 
L 822.243384 372.933333 
L 823.510281 372.933333 
L 823.511626 466.266667 
L 826.202737 466.266667 
L 827.544564 447.6 
L 828.84202 447.6 
L 828.842203 503.6 
L 831.433999 503.6 
L 831.434304 484.933333 
L 834.120587 484.933333 
L 834.124559 466.266667 
L 835.401052 466.266667 
L 835.401052 447.6 
L 837.964245 447.6 
L 837.968767 428.933333 
L 839.291831 428.933333 
L 839.292015 466.266667 
L 844.683709 466.266667 
L 844.684259 447.6 
L 847.297384 447.6 
L 847.311075 428.933333 
L 848.63475 428.933333 
L 848.637684 410.266667 
L 849.97016 410.266667 
L 849.970893 466.266667 
L 852.659682 466.266667 
L 854.009087 447.6 
L 855.297743 447.6 
L 855.306116 428.933333 
L 856.621601 428.933333 
L 857.967646 410.266667 
L 859.323957 410.266667 
L 859.324446 466.266667 
L 860.66988 466.266667 
L 860.670185 484.933333 
L 870.178915 615.6 
L 872.795523 615.6 
L 874.147741 596.933333 
L 875.52361 596.933333 
L 875.52691 578.266667 
L 876.796558 578.266667 
L 878.139241 559.6 
L 883.462484 559.6 
L 884.732438 540.933333 
L 886.085021 540.933333 
L 886.085082 522.266667 
L 888.714037 522.266667 
L 888.717887 503.6 
L 890.056231 503.6 
L 890.056292 484.933333 
L 892.697959 484.933333 
L 892.698509 466.266667 
L 894.040947 466.266667 
L 895.365967 447.6 
L 898.008367 447.6 
L 898.00849 428.933333 
L 899.371525 428.933333 
L 899.372197 484.933333 
L 903.366998 484.933333 
L 903.389122 466.266667 
L 904.714325 466.266667 
L 904.714386 447.6 
L 904.714386 447.6 
L 907.35752 447.6 
L 907.357703 428.933333 
L 908.709859 428.933333 
L 908.740173 484.933333 
L 911.337225 484.933333 
L 911.337347 466.266667 
L 913.994049 466.266667 
L 913.994721 447.6 
L 915.326708 447.6 
L 916.665602 428.933333 
L 918.011585 428.933333 
L 918.01238 484.933333 
L 920.669937 484.933333 
L 920.669998 466.266667 
L 920.669998 466.266667 
L 923.368015 466.266667 
L 923.369421 447.6 
L 926.052586 447.6 
L 926.052953 484.933333 
L 928.630019 484.933333 
L 929.954733 466.266667 
L 931.274253 466.266667 
L 931.274558 447.6 
L 933.954545 447.6 
L 933.954545 447.6 
" style="fill:none;stroke:#ff7f50;stroke-linecap:square;stroke-width:1.5;"/>
   </g>
   <g id="patch_3">
    <path d="M 135 640.8 
L 135 86.4 
" style="fill:none;stroke:#000000;stroke-linecap:square;stroke-linejoin:miter;stroke-width:0.8;"/>
   </g>
   <g id="patch_4">
    <path d="M 972 640.8 
L 972 86.4 
" style="fill:none;stroke:#000000;stroke-linecap:square;stroke-linejoin:miter;stroke-width:0.8;"/>
   </g>
   <g id="patch_5">
    <path d="M 135 640.8 
L 972 640.8 
" style="fill:none;stroke:#000000;stroke-linecap:square;stroke-linejoin:miter;stroke-width:0.8;"/>
   </g>
   <g id="patch_6">
    <path d="M 135 86.4 
L 972 86.4 
" style="fill:none;stroke:#000000;stroke-linecap:square;stroke-linejoin:miter;stroke-width:0.8;"/>
   </g>
   <g id="legend_1">
    <g id="patch_7">
     <path d="M 863.045313 109.078125 
L 965 109.078125 
Q 967 109.078125 967 107.078125 
L 967 93.4 
Q 967 91.4 965 91.4 
L 863.045313 91.4 
Q 861.045313 91.4 861.045313 93.4 
L 861.045313 107.078125 
Q 861.045313 109.078125 863.045313 109.078125 
z
" style="fill:#ffffff;opacity:0.8;stroke:#cccccc;stroke-linejoin:miter;"/>
    </g>
    <g id="line2d_18">
     <path d="M 865.045313 99.498438 
L 885.045313 99.498438 
" style="fill:none;stroke:#ff7f50;stroke-linecap:square;stroke-width:1.5;"/>
    </g>
    <g id="line2d_19"/>
    <g id="text_19">
     <!-- cwnd loss = 2 -->
     <g transform="translate(893.045313 102.998438)scale(0.1 -0.1)">
      <defs>
       <path d="M 9.421875 75.984375 
L 18.40625 75.984375 
L 18.40625 0 
L 9.421875 0 
z
" id="DejaVuSans-108"/>
       <path d="M 30.609375 48.390625 
Q 23.390625 48.390625 19.1875 42.75 
Q 14.984375 37.109375 14.984375 27.296875 
Q 14.984375 17.484375 19.15625 11.84375 
Q 23.34375 6.203125 30.609375 6.203125 
Q 37.796875 6.203125 41.984375 11.859375 
Q 46.1875 17.53125 46.1875 27.296875 
Q 46.1875 37.015625 41.984375 42.703125 
Q 37.796875 48.390625 30.609375 48.390625 
z
M 30.609375 56 
Q 42.328125 56 49.015625 48.375 
Q 55.71875 40.765625 55.71875 27.296875 
Q 55.71875 13.875 49.015625 6.21875 
Q 42.328125 -1.421875 30.609375 -1.421875 
Q 18.84375 -1.421875 12.171875 6.21875 
Q 5.515625 13.875 5.515625 27.296875 
Q 5.515625 40.765625 12.171875 48.375 
Q 18.84375 56 30.609375 56 
z
" id="DejaVuSans-111"/>
       <path d="M 10.59375 45.40625 
L 73.1875 45.40625 
L 73.1875 37.203125 
L 10.59375 37.203125 
z
M 10.59375 25.484375 
L 73.1875 25.484375 
L 73.1875 17.1875 
L 10.59375 17.1875 
z
" id="DejaVuSans-61"/>
      </defs>
      <use xlink:href="#DejaVuSans-99"/>
      <use x="54.980469" xlink:href="#DejaVuSans-119"/>
      <use x="136.767578" xlink:href="#DejaVuSans-110"/>
      <use x="200.146484" xlink:href="#DejaVuSans-100"/>
      <use x="263.623047" xlink:href="#DejaVuSans-32"/>
      <use x="295.410156" xlink:href="#DejaVuSans-108"/>
      <use x="323.193359" xlink:href="#DejaVuSans-111"/>
      <use x="384.375" xlink:href="#DejaVuSans-115"/>
      <use x="436.474609" xlink:href="#DejaVuSans-115"/>
      <use x="488.574219" xlink:href="#DejaVuSans-32"/>
      <use x="520.361328" xlink:href="#DejaVuSans-61"/>
      <use x="604.150391" xlink:href="#DejaVuSans-32"/>
      <use x="635.9375" xlink:href="#DejaVuSans-50"/>
     </g>
    </g>
   </g>
  </g>
 </g>
 <defs>
  <clipPath id="pbbaeedb16e">
   <rect height="554.4" width="837" x="135" y="86.4"/>
  </clipPath>
 </defs>
</svg>
