<?xml version="1.0" encoding="utf-8" standalone="no"?>
<!DOCTYPE svg PUBLIC "-//W3C//DTD SVG 1.1//EN"
  "http://www.w3.org/Graphics/SVG/1.1/DTD/svg11.dtd">
<!-- Created with matplotlib (https://matplotlib.org/) -->
<svg height="720pt" version="1.1" viewBox="0 0 1080 720" width="1080pt" xmlns="http://www.w3.org/2000/svg" xmlns:xlink="http://www.w3.org/1999/xlink">
 <metadata>
  <rdf:RDF xmlns:cc="http://creativecommons.org/ns#" xmlns:dc="http://purl.org/dc/elements/1.1/" xmlns:rdf="http://www.w3.org/1999/02/22-rdf-syntax-ns#">
   <cc:Work>
    <dc:type rdf:resource="http://purl.org/dc/dcmitype/StillImage"/>
    <dc:date>2021-07-03T15:26:52.721456</dc:date>
    <dc:format>image/svg+xml</dc:format>
    <dc:creator>
     <cc:Agent>
      <dc:title>Matplotlib v3.3.2, https://matplotlib.org/</dc:title>
     </cc:Agent>
    </dc:creator>
   </cc:Work>
  </rdf:RDF>
 </metadata>
 <defs>
  <style type="text/css">*{stroke-linecap:butt;stroke-linejoin:round;}</style>
 </defs>
 <g id="figure_1">
  <g id="patch_1">
   <path d="M 0 720 
L 1080 720 
L 1080 0 
L 0 0 
z
" style="fill:#ffffff;"/>
  </g>
  <g id="axes_1">
   <g id="patch_2">
    <path d="M 135 640.8 
L 972 640.8 
L 972 86.4 
L 135 86.4 
z
" style="fill:#ffffff;"/>
   </g>
   <g id="matplotlib.axis_1">
    <g id="xtick_1">
     <g id="line2d_1">
      <defs>
       <path d="M 0 0 
L 0 3.5 
" id="m3535485286" style="stroke:#000000;stroke-width:0.8;"/>
      </defs>
      <g>
       <use style="stroke:#000000;stroke-width:0.8;" x="170.491064" xlink:href="#m3535485286" y="640.8"/>
      </g>
     </g>
     <g id="text_1">
      <!-- 0 -->
      <g transform="translate(167.309814 655.398438)scale(0.1 -0.1)">
       <defs>
        <path d="M 31.78125 66.40625 
Q 24.171875 66.40625 20.328125 58.90625 
Q 16.5 51.421875 16.5 36.375 
Q 16.5 21.390625 20.328125 13.890625 
Q 24.171875 6.390625 31.78125 6.390625 
Q 39.453125 6.390625 43.28125 13.890625 
Q 47.125 21.390625 47.125 36.375 
Q 47.125 51.421875 43.28125 58.90625 
Q 39.453125 66.40625 31.78125 66.40625 
z
M 31.78125 74.21875 
Q 44.046875 74.21875 50.515625 64.515625 
Q 56.984375 54.828125 56.984375 36.375 
Q 56.984375 17.96875 50.515625 8.265625 
Q 44.046875 -1.421875 31.78125 -1.421875 
Q 19.53125 -1.421875 13.0625 8.265625 
Q 6.59375 17.96875 6.59375 36.375 
Q 6.59375 54.828125 13.0625 64.515625 
Q 19.53125 74.21875 31.78125 74.21875 
z
" id="DejaVuSans-48"/>
       </defs>
       <use xlink:href="#DejaVuSans-48"/>
      </g>
     </g>
    </g>
    <g id="xtick_2">
     <g id="line2d_2">
      <g>
       <use style="stroke:#000000;stroke-width:0.8;" x="297.509433" xlink:href="#m3535485286" y="640.8"/>
      </g>
     </g>
     <g id="text_2">
      <!-- 10 -->
      <g transform="translate(291.146933 655.398438)scale(0.1 -0.1)">
       <defs>
        <path d="M 12.40625 8.296875 
L 28.515625 8.296875 
L 28.515625 63.921875 
L 10.984375 60.40625 
L 10.984375 69.390625 
L 28.421875 72.90625 
L 38.28125 72.90625 
L 38.28125 8.296875 
L 54.390625 8.296875 
L 54.390625 0 
L 12.40625 0 
z
" id="DejaVuSans-49"/>
       </defs>
       <use xlink:href="#DejaVuSans-49"/>
       <use x="63.623047" xlink:href="#DejaVuSans-48"/>
      </g>
     </g>
    </g>
    <g id="xtick_3">
     <g id="line2d_3">
      <g>
       <use style="stroke:#000000;stroke-width:0.8;" x="424.527803" xlink:href="#m3535485286" y="640.8"/>
      </g>
     </g>
     <g id="text_3">
      <!-- 20 -->
      <g transform="translate(418.165303 655.398438)scale(0.1 -0.1)">
       <defs>
        <path d="M 19.1875 8.296875 
L 53.609375 8.296875 
L 53.609375 0 
L 7.328125 0 
L 7.328125 8.296875 
Q 12.9375 14.109375 22.625 23.890625 
Q 32.328125 33.6875 34.8125 36.53125 
Q 39.546875 41.84375 41.421875 45.53125 
Q 43.3125 49.21875 43.3125 52.78125 
Q 43.3125 58.59375 39.234375 62.25 
Q 35.15625 65.921875 28.609375 65.921875 
Q 23.96875 65.921875 18.8125 64.3125 
Q 13.671875 62.703125 7.8125 59.421875 
L 7.8125 69.390625 
Q 13.765625 71.78125 18.9375 73 
Q 24.125 74.21875 28.421875 74.21875 
Q 39.75 74.21875 46.484375 68.546875 
Q 53.21875 62.890625 53.21875 53.421875 
Q 53.21875 48.921875 51.53125 44.890625 
Q 49.859375 40.875 45.40625 35.40625 
Q 44.1875 33.984375 37.640625 27.21875 
Q 31.109375 20.453125 19.1875 8.296875 
z
" id="DejaVuSans-50"/>
       </defs>
       <use xlink:href="#DejaVuSans-50"/>
       <use x="63.623047" xlink:href="#DejaVuSans-48"/>
      </g>
     </g>
    </g>
    <g id="xtick_4">
     <g id="line2d_4">
      <g>
       <use style="stroke:#000000;stroke-width:0.8;" x="551.546172" xlink:href="#m3535485286" y="640.8"/>
      </g>
     </g>
     <g id="text_4">
      <!-- 30 -->
      <g transform="translate(545.183672 655.398438)scale(0.1 -0.1)">
       <defs>
        <path d="M 40.578125 39.3125 
Q 47.65625 37.796875 51.625 33 
Q 55.609375 28.21875 55.609375 21.1875 
Q 55.609375 10.40625 48.1875 4.484375 
Q 40.765625 -1.421875 27.09375 -1.421875 
Q 22.515625 -1.421875 17.65625 -0.515625 
Q 12.796875 0.390625 7.625 2.203125 
L 7.625 11.71875 
Q 11.71875 9.328125 16.59375 8.109375 
Q 21.484375 6.890625 26.8125 6.890625 
Q 36.078125 6.890625 40.9375 10.546875 
Q 45.796875 14.203125 45.796875 21.1875 
Q 45.796875 27.640625 41.28125 31.265625 
Q 36.765625 34.90625 28.71875 34.90625 
L 20.21875 34.90625 
L 20.21875 43.015625 
L 29.109375 43.015625 
Q 36.375 43.015625 40.234375 45.921875 
Q 44.09375 48.828125 44.09375 54.296875 
Q 44.09375 59.90625 40.109375 62.90625 
Q 36.140625 65.921875 28.71875 65.921875 
Q 24.65625 65.921875 20.015625 65.03125 
Q 15.375 64.15625 9.8125 62.3125 
L 9.8125 71.09375 
Q 15.4375 72.65625 20.34375 73.4375 
Q 25.25 74.21875 29.59375 74.21875 
Q 40.828125 74.21875 47.359375 69.109375 
Q 53.90625 64.015625 53.90625 55.328125 
Q 53.90625 49.265625 50.4375 45.09375 
Q 46.96875 40.921875 40.578125 39.3125 
z
" id="DejaVuSans-51"/>
       </defs>
       <use xlink:href="#DejaVuSans-51"/>
       <use x="63.623047" xlink:href="#DejaVuSans-48"/>
      </g>
     </g>
    </g>
    <g id="xtick_5">
     <g id="line2d_5">
      <g>
       <use style="stroke:#000000;stroke-width:0.8;" x="678.564541" xlink:href="#m3535485286" y="640.8"/>
      </g>
     </g>
     <g id="text_5">
      <!-- 40 -->
      <g transform="translate(672.202041 655.398438)scale(0.1 -0.1)">
       <defs>
        <path d="M 37.796875 64.3125 
L 12.890625 25.390625 
L 37.796875 25.390625 
z
M 35.203125 72.90625 
L 47.609375 72.90625 
L 47.609375 25.390625 
L 58.015625 25.390625 
L 58.015625 17.1875 
L 47.609375 17.1875 
L 47.609375 0 
L 37.796875 0 
L 37.796875 17.1875 
L 4.890625 17.1875 
L 4.890625 26.703125 
z
" id="DejaVuSans-52"/>
       </defs>
       <use xlink:href="#DejaVuSans-52"/>
       <use x="63.623047" xlink:href="#DejaVuSans-48"/>
      </g>
     </g>
    </g>
    <g id="xtick_6">
     <g id="line2d_6">
      <g>
       <use style="stroke:#000000;stroke-width:0.8;" x="805.58291" xlink:href="#m3535485286" y="640.8"/>
      </g>
     </g>
     <g id="text_6">
      <!-- 50 -->
      <g transform="translate(799.22041 655.398438)scale(0.1 -0.1)">
       <defs>
        <path d="M 10.796875 72.90625 
L 49.515625 72.90625 
L 49.515625 64.59375 
L 19.828125 64.59375 
L 19.828125 46.734375 
Q 21.96875 47.46875 24.109375 47.828125 
Q 26.265625 48.1875 28.421875 48.1875 
Q 40.625 48.1875 47.75 41.5 
Q 54.890625 34.8125 54.890625 23.390625 
Q 54.890625 11.625 47.5625 5.09375 
Q 40.234375 -1.421875 26.90625 -1.421875 
Q 22.3125 -1.421875 17.546875 -0.640625 
Q 12.796875 0.140625 7.71875 1.703125 
L 7.71875 11.625 
Q 12.109375 9.234375 16.796875 8.0625 
Q 21.484375 6.890625 26.703125 6.890625 
Q 35.15625 6.890625 40.078125 11.328125 
Q 45.015625 15.765625 45.015625 23.390625 
Q 45.015625 31 40.078125 35.4375 
Q 35.15625 39.890625 26.703125 39.890625 
Q 22.75 39.890625 18.8125 39.015625 
Q 14.890625 38.140625 10.796875 36.28125 
z
" id="DejaVuSans-53"/>
       </defs>
       <use xlink:href="#DejaVuSans-53"/>
       <use x="63.623047" xlink:href="#DejaVuSans-48"/>
      </g>
     </g>
    </g>
    <g id="xtick_7">
     <g id="line2d_7">
      <g>
       <use style="stroke:#000000;stroke-width:0.8;" x="932.601279" xlink:href="#m3535485286" y="640.8"/>
      </g>
     </g>
     <g id="text_7">
      <!-- 60 -->
      <g transform="translate(926.238779 655.398438)scale(0.1 -0.1)">
       <defs>
        <path d="M 33.015625 40.375 
Q 26.375 40.375 22.484375 35.828125 
Q 18.609375 31.296875 18.609375 23.390625 
Q 18.609375 15.53125 22.484375 10.953125 
Q 26.375 6.390625 33.015625 6.390625 
Q 39.65625 6.390625 43.53125 10.953125 
Q 47.40625 15.53125 47.40625 23.390625 
Q 47.40625 31.296875 43.53125 35.828125 
Q 39.65625 40.375 33.015625 40.375 
z
M 52.59375 71.296875 
L 52.59375 62.3125 
Q 48.875 64.0625 45.09375 64.984375 
Q 41.3125 65.921875 37.59375 65.921875 
Q 27.828125 65.921875 22.671875 59.328125 
Q 17.53125 52.734375 16.796875 39.40625 
Q 19.671875 43.65625 24.015625 45.921875 
Q 28.375 48.1875 33.59375 48.1875 
Q 44.578125 48.1875 50.953125 41.515625 
Q 57.328125 34.859375 57.328125 23.390625 
Q 57.328125 12.15625 50.6875 5.359375 
Q 44.046875 -1.421875 33.015625 -1.421875 
Q 20.359375 -1.421875 13.671875 8.265625 
Q 6.984375 17.96875 6.984375 36.375 
Q 6.984375 53.65625 15.1875 63.9375 
Q 23.390625 74.21875 37.203125 74.21875 
Q 40.921875 74.21875 44.703125 73.484375 
Q 48.484375 72.75 52.59375 71.296875 
z
" id="DejaVuSans-54"/>
       </defs>
       <use xlink:href="#DejaVuSans-54"/>
       <use x="63.623047" xlink:href="#DejaVuSans-48"/>
      </g>
     </g>
    </g>
    <g id="text_8">
     <!-- time -->
     <g transform="translate(530.907812 676.675)scale(0.2 -0.2)">
      <defs>
       <path d="M 18.3125 70.21875 
L 18.3125 54.6875 
L 36.8125 54.6875 
L 36.8125 47.703125 
L 18.3125 47.703125 
L 18.3125 18.015625 
Q 18.3125 11.328125 20.140625 9.421875 
Q 21.96875 7.515625 27.59375 7.515625 
L 36.8125 7.515625 
L 36.8125 0 
L 27.59375 0 
Q 17.1875 0 13.234375 3.875 
Q 9.28125 7.765625 9.28125 18.015625 
L 9.28125 47.703125 
L 2.6875 47.703125 
L 2.6875 54.6875 
L 9.28125 54.6875 
L 9.28125 70.21875 
z
" id="DejaVuSans-116"/>
       <path d="M 9.421875 54.6875 
L 18.40625 54.6875 
L 18.40625 0 
L 9.421875 0 
z
M 9.421875 75.984375 
L 18.40625 75.984375 
L 18.40625 64.59375 
L 9.421875 64.59375 
z
" id="DejaVuSans-105"/>
       <path d="M 52 44.1875 
Q 55.375 50.25 60.0625 53.125 
Q 64.75 56 71.09375 56 
Q 79.640625 56 84.28125 50.015625 
Q 88.921875 44.046875 88.921875 33.015625 
L 88.921875 0 
L 79.890625 0 
L 79.890625 32.71875 
Q 79.890625 40.578125 77.09375 44.375 
Q 74.3125 48.1875 68.609375 48.1875 
Q 61.625 48.1875 57.5625 43.546875 
Q 53.515625 38.921875 53.515625 30.90625 
L 53.515625 0 
L 44.484375 0 
L 44.484375 32.71875 
Q 44.484375 40.625 41.703125 44.40625 
Q 38.921875 48.1875 33.109375 48.1875 
Q 26.21875 48.1875 22.15625 43.53125 
Q 18.109375 38.875 18.109375 30.90625 
L 18.109375 0 
L 9.078125 0 
L 9.078125 54.6875 
L 18.109375 54.6875 
L 18.109375 46.1875 
Q 21.1875 51.21875 25.484375 53.609375 
Q 29.78125 56 35.6875 56 
Q 41.65625 56 45.828125 52.96875 
Q 50 49.953125 52 44.1875 
z
" id="DejaVuSans-109"/>
       <path d="M 56.203125 29.59375 
L 56.203125 25.203125 
L 14.890625 25.203125 
Q 15.484375 15.921875 20.484375 11.0625 
Q 25.484375 6.203125 34.421875 6.203125 
Q 39.59375 6.203125 44.453125 7.46875 
Q 49.3125 8.734375 54.109375 11.28125 
L 54.109375 2.78125 
Q 49.265625 0.734375 44.1875 -0.34375 
Q 39.109375 -1.421875 33.890625 -1.421875 
Q 20.796875 -1.421875 13.15625 6.1875 
Q 5.515625 13.8125 5.515625 26.8125 
Q 5.515625 40.234375 12.765625 48.109375 
Q 20.015625 56 32.328125 56 
Q 43.359375 56 49.78125 48.890625 
Q 56.203125 41.796875 56.203125 29.59375 
z
M 47.21875 32.234375 
Q 47.125 39.59375 43.09375 43.984375 
Q 39.0625 48.390625 32.421875 48.390625 
Q 24.90625 48.390625 20.390625 44.140625 
Q 15.875 39.890625 15.1875 32.171875 
z
" id="DejaVuSans-101"/>
      </defs>
      <use xlink:href="#DejaVuSans-116"/>
      <use x="39.208984" xlink:href="#DejaVuSans-105"/>
      <use x="66.992188" xlink:href="#DejaVuSans-109"/>
      <use x="164.404297" xlink:href="#DejaVuSans-101"/>
     </g>
    </g>
   </g>
   <g id="matplotlib.axis_2">
    <g id="ytick_1">
     <g id="line2d_8">
      <defs>
       <path d="M 0 0 
L -3.5 0 
" id="m74920ec03c" style="stroke:#000000;stroke-width:0.8;"/>
      </defs>
      <g>
       <use style="stroke:#000000;stroke-width:0.8;" x="135" xlink:href="#m74920ec03c" y="589.956164"/>
      </g>
     </g>
     <g id="text_9">
      <!-- 2500 -->
      <g transform="translate(102.55 593.755383)scale(0.1 -0.1)">
       <use xlink:href="#DejaVuSans-50"/>
       <use x="63.623047" xlink:href="#DejaVuSans-53"/>
       <use x="127.246094" xlink:href="#DejaVuSans-48"/>
       <use x="190.869141" xlink:href="#DejaVuSans-48"/>
      </g>
     </g>
    </g>
    <g id="ytick_2">
     <g id="line2d_9">
      <g>
       <use style="stroke:#000000;stroke-width:0.8;" x="135" xlink:href="#m74920ec03c" y="528.312329"/>
      </g>
     </g>
     <g id="text_10">
      <!-- 5000 -->
      <g transform="translate(102.55 532.111548)scale(0.1 -0.1)">
       <use xlink:href="#DejaVuSans-53"/>
       <use x="63.623047" xlink:href="#DejaVuSans-48"/>
       <use x="127.246094" xlink:href="#DejaVuSans-48"/>
       <use x="190.869141" xlink:href="#DejaVuSans-48"/>
      </g>
     </g>
    </g>
    <g id="ytick_3">
     <g id="line2d_10">
      <g>
       <use style="stroke:#000000;stroke-width:0.8;" x="135" xlink:href="#m74920ec03c" y="466.668493"/>
      </g>
     </g>
     <g id="text_11">
      <!-- 7500 -->
      <g transform="translate(102.55 470.467712)scale(0.1 -0.1)">
       <defs>
        <path d="M 8.203125 72.90625 
L 55.078125 72.90625 
L 55.078125 68.703125 
L 28.609375 0 
L 18.3125 0 
L 43.21875 64.59375 
L 8.203125 64.59375 
z
" id="DejaVuSans-55"/>
       </defs>
       <use xlink:href="#DejaVuSans-55"/>
       <use x="63.623047" xlink:href="#DejaVuSans-53"/>
       <use x="127.246094" xlink:href="#DejaVuSans-48"/>
       <use x="190.869141" xlink:href="#DejaVuSans-48"/>
      </g>
     </g>
    </g>
    <g id="ytick_4">
     <g id="line2d_11">
      <g>
       <use style="stroke:#000000;stroke-width:0.8;" x="135" xlink:href="#m74920ec03c" y="405.024658"/>
      </g>
     </g>
     <g id="text_12">
      <!-- 10000 -->
      <g transform="translate(96.1875 408.823876)scale(0.1 -0.1)">
       <use xlink:href="#DejaVuSans-49"/>
       <use x="63.623047" xlink:href="#DejaVuSans-48"/>
       <use x="127.246094" xlink:href="#DejaVuSans-48"/>
       <use x="190.869141" xlink:href="#DejaVuSans-48"/>
       <use x="254.492188" xlink:href="#DejaVuSans-48"/>
      </g>
     </g>
    </g>
    <g id="ytick_5">
     <g id="line2d_12">
      <g>
       <use style="stroke:#000000;stroke-width:0.8;" x="135" xlink:href="#m74920ec03c" y="343.380822"/>
      </g>
     </g>
     <g id="text_13">
      <!-- 12500 -->
      <g transform="translate(96.1875 347.180041)scale(0.1 -0.1)">
       <use xlink:href="#DejaVuSans-49"/>
       <use x="63.623047" xlink:href="#DejaVuSans-50"/>
       <use x="127.246094" xlink:href="#DejaVuSans-53"/>
       <use x="190.869141" xlink:href="#DejaVuSans-48"/>
       <use x="254.492188" xlink:href="#DejaVuSans-48"/>
      </g>
     </g>
    </g>
    <g id="ytick_6">
     <g id="line2d_13">
      <g>
       <use style="stroke:#000000;stroke-width:0.8;" x="135" xlink:href="#m74920ec03c" y="281.736986"/>
      </g>
     </g>
     <g id="text_14">
      <!-- 15000 -->
      <g transform="translate(96.1875 285.536205)scale(0.1 -0.1)">
       <use xlink:href="#DejaVuSans-49"/>
       <use x="63.623047" xlink:href="#DejaVuSans-53"/>
       <use x="127.246094" xlink:href="#DejaVuSans-48"/>
       <use x="190.869141" xlink:href="#DejaVuSans-48"/>
       <use x="254.492188" xlink:href="#DejaVuSans-48"/>
      </g>
     </g>
    </g>
    <g id="ytick_7">
     <g id="line2d_14">
      <g>
       <use style="stroke:#000000;stroke-width:0.8;" x="135" xlink:href="#m74920ec03c" y="220.093151"/>
      </g>
     </g>
     <g id="text_15">
      <!-- 17500 -->
      <g transform="translate(96.1875 223.892369)scale(0.1 -0.1)">
       <use xlink:href="#DejaVuSans-49"/>
       <use x="63.623047" xlink:href="#DejaVuSans-55"/>
       <use x="127.246094" xlink:href="#DejaVuSans-53"/>
       <use x="190.869141" xlink:href="#DejaVuSans-48"/>
       <use x="254.492188" xlink:href="#DejaVuSans-48"/>
      </g>
     </g>
    </g>
    <g id="ytick_8">
     <g id="line2d_15">
      <g>
       <use style="stroke:#000000;stroke-width:0.8;" x="135" xlink:href="#m74920ec03c" y="158.449315"/>
      </g>
     </g>
     <g id="text_16">
      <!-- 20000 -->
      <g transform="translate(96.1875 162.248534)scale(0.1 -0.1)">
       <use xlink:href="#DejaVuSans-50"/>
       <use x="63.623047" xlink:href="#DejaVuSans-48"/>
       <use x="127.246094" xlink:href="#DejaVuSans-48"/>
       <use x="190.869141" xlink:href="#DejaVuSans-48"/>
       <use x="254.492188" xlink:href="#DejaVuSans-48"/>
      </g>
     </g>
    </g>
    <g id="ytick_9">
     <g id="line2d_16">
      <g>
       <use style="stroke:#000000;stroke-width:0.8;" x="135" xlink:href="#m74920ec03c" y="96.805479"/>
      </g>
     </g>
     <g id="text_17">
      <!-- 22500 -->
      <g transform="translate(96.1875 100.604698)scale(0.1 -0.1)">
       <use xlink:href="#DejaVuSans-50"/>
       <use x="63.623047" xlink:href="#DejaVuSans-50"/>
       <use x="127.246094" xlink:href="#DejaVuSans-53"/>
       <use x="190.869141" xlink:href="#DejaVuSans-48"/>
       <use x="254.492188" xlink:href="#DejaVuSans-48"/>
      </g>
     </g>
    </g>
    <g id="text_18">
     <!-- cwnd (bytes) -->
     <g transform="translate(88.028125 428.49375)rotate(-90)scale(0.2 -0.2)">
      <defs>
       <path d="M 48.78125 52.59375 
L 48.78125 44.1875 
Q 44.96875 46.296875 41.140625 47.34375 
Q 37.3125 48.390625 33.40625 48.390625 
Q 24.65625 48.390625 19.8125 42.84375 
Q 14.984375 37.3125 14.984375 27.296875 
Q 14.984375 17.28125 19.8125 11.734375 
Q 24.65625 6.203125 33.40625 6.203125 
Q 37.3125 6.203125 41.140625 7.25 
Q 44.96875 8.296875 48.78125 10.40625 
L 48.78125 2.09375 
Q 45.015625 0.34375 40.984375 -0.53125 
Q 36.96875 -1.421875 32.421875 -1.421875 
Q 20.0625 -1.421875 12.78125 6.34375 
Q 5.515625 14.109375 5.515625 27.296875 
Q 5.515625 40.671875 12.859375 48.328125 
Q 20.21875 56 33.015625 56 
Q 37.15625 56 41.109375 55.140625 
Q 45.0625 54.296875 48.78125 52.59375 
z
" id="DejaVuSans-99"/>
       <path d="M 4.203125 54.6875 
L 13.1875 54.6875 
L 24.421875 12.015625 
L 35.59375 54.6875 
L 46.1875 54.6875 
L 57.421875 12.015625 
L 68.609375 54.6875 
L 77.59375 54.6875 
L 63.28125 0 
L 52.6875 0 
L 40.921875 44.828125 
L 29.109375 0 
L 18.5 0 
z
" id="DejaVuSans-119"/>
       <path d="M 54.890625 33.015625 
L 54.890625 0 
L 45.90625 0 
L 45.90625 32.71875 
Q 45.90625 40.484375 42.875 44.328125 
Q 39.84375 48.1875 33.796875 48.1875 
Q 26.515625 48.1875 22.3125 43.546875 
Q 18.109375 38.921875 18.109375 30.90625 
L 18.109375 0 
L 9.078125 0 
L 9.078125 54.6875 
L 18.109375 54.6875 
L 18.109375 46.1875 
Q 21.34375 51.125 25.703125 53.5625 
Q 30.078125 56 35.796875 56 
Q 45.21875 56 50.046875 50.171875 
Q 54.890625 44.34375 54.890625 33.015625 
z
" id="DejaVuSans-110"/>
       <path d="M 45.40625 46.390625 
L 45.40625 75.984375 
L 54.390625 75.984375 
L 54.390625 0 
L 45.40625 0 
L 45.40625 8.203125 
Q 42.578125 3.328125 38.25 0.953125 
Q 33.9375 -1.421875 27.875 -1.421875 
Q 17.96875 -1.421875 11.734375 6.484375 
Q 5.515625 14.40625 5.515625 27.296875 
Q 5.515625 40.1875 11.734375 48.09375 
Q 17.96875 56 27.875 56 
Q 33.9375 56 38.25 53.625 
Q 42.578125 51.265625 45.40625 46.390625 
z
M 14.796875 27.296875 
Q 14.796875 17.390625 18.875 11.75 
Q 22.953125 6.109375 30.078125 6.109375 
Q 37.203125 6.109375 41.296875 11.75 
Q 45.40625 17.390625 45.40625 27.296875 
Q 45.40625 37.203125 41.296875 42.84375 
Q 37.203125 48.484375 30.078125 48.484375 
Q 22.953125 48.484375 18.875 42.84375 
Q 14.796875 37.203125 14.796875 27.296875 
z
" id="DejaVuSans-100"/>
       <path id="DejaVuSans-32"/>
       <path d="M 31 75.875 
Q 24.46875 64.65625 21.28125 53.65625 
Q 18.109375 42.671875 18.109375 31.390625 
Q 18.109375 20.125 21.3125 9.0625 
Q 24.515625 -2 31 -13.1875 
L 23.1875 -13.1875 
Q 15.875 -1.703125 12.234375 9.375 
Q 8.59375 20.453125 8.59375 31.390625 
Q 8.59375 42.28125 12.203125 53.3125 
Q 15.828125 64.359375 23.1875 75.875 
z
" id="DejaVuSans-40"/>
       <path d="M 48.6875 27.296875 
Q 48.6875 37.203125 44.609375 42.84375 
Q 40.53125 48.484375 33.40625 48.484375 
Q 26.265625 48.484375 22.1875 42.84375 
Q 18.109375 37.203125 18.109375 27.296875 
Q 18.109375 17.390625 22.1875 11.75 
Q 26.265625 6.109375 33.40625 6.109375 
Q 40.53125 6.109375 44.609375 11.75 
Q 48.6875 17.390625 48.6875 27.296875 
z
M 18.109375 46.390625 
Q 20.953125 51.265625 25.265625 53.625 
Q 29.59375 56 35.59375 56 
Q 45.5625 56 51.78125 48.09375 
Q 58.015625 40.1875 58.015625 27.296875 
Q 58.015625 14.40625 51.78125 6.484375 
Q 45.5625 -1.421875 35.59375 -1.421875 
Q 29.59375 -1.421875 25.265625 0.953125 
Q 20.953125 3.328125 18.109375 8.203125 
L 18.109375 0 
L 9.078125 0 
L 9.078125 75.984375 
L 18.109375 75.984375 
z
" id="DejaVuSans-98"/>
       <path d="M 32.171875 -5.078125 
Q 28.375 -14.84375 24.75 -17.8125 
Q 21.140625 -20.796875 15.09375 -20.796875 
L 7.90625 -20.796875 
L 7.90625 -13.28125 
L 13.1875 -13.28125 
Q 16.890625 -13.28125 18.9375 -11.515625 
Q 21 -9.765625 23.484375 -3.21875 
L 25.09375 0.875 
L 2.984375 54.6875 
L 12.5 54.6875 
L 29.59375 11.921875 
L 46.6875 54.6875 
L 56.203125 54.6875 
z
" id="DejaVuSans-121"/>
       <path d="M 44.28125 53.078125 
L 44.28125 44.578125 
Q 40.484375 46.53125 36.375 47.5 
Q 32.28125 48.484375 27.875 48.484375 
Q 21.1875 48.484375 17.84375 46.4375 
Q 14.5 44.390625 14.5 40.28125 
Q 14.5 37.15625 16.890625 35.375 
Q 19.28125 33.59375 26.515625 31.984375 
L 29.59375 31.296875 
Q 39.15625 29.25 43.1875 25.515625 
Q 47.21875 21.78125 47.21875 15.09375 
Q 47.21875 7.46875 41.1875 3.015625 
Q 35.15625 -1.421875 24.609375 -1.421875 
Q 20.21875 -1.421875 15.453125 -0.5625 
Q 10.6875 0.296875 5.421875 2 
L 5.421875 11.28125 
Q 10.40625 8.6875 15.234375 7.390625 
Q 20.0625 6.109375 24.8125 6.109375 
Q 31.15625 6.109375 34.5625 8.28125 
Q 37.984375 10.453125 37.984375 14.40625 
Q 37.984375 18.0625 35.515625 20.015625 
Q 33.0625 21.96875 24.703125 23.78125 
L 21.578125 24.515625 
Q 13.234375 26.265625 9.515625 29.90625 
Q 5.8125 33.546875 5.8125 39.890625 
Q 5.8125 47.609375 11.28125 51.796875 
Q 16.75 56 26.8125 56 
Q 31.78125 56 36.171875 55.265625 
Q 40.578125 54.546875 44.28125 53.078125 
z
" id="DejaVuSans-115"/>
       <path d="M 8.015625 75.875 
L 15.828125 75.875 
Q 23.140625 64.359375 26.78125 53.3125 
Q 30.421875 42.28125 30.421875 31.390625 
Q 30.421875 20.453125 26.78125 9.375 
Q 23.140625 -1.703125 15.828125 -13.1875 
L 8.015625 -13.1875 
Q 14.5 -2 17.703125 9.0625 
Q 20.90625 20.125 20.90625 31.390625 
Q 20.90625 42.671875 17.703125 53.65625 
Q 14.5 64.65625 8.015625 75.875 
z
" id="DejaVuSans-41"/>
      </defs>
      <use xlink:href="#DejaVuSans-99"/>
      <use x="54.980469" xlink:href="#DejaVuSans-119"/>
      <use x="136.767578" xlink:href="#DejaVuSans-110"/>
      <use x="200.146484" xlink:href="#DejaVuSans-100"/>
      <use x="263.623047" xlink:href="#DejaVuSans-32"/>
      <use x="295.410156" xlink:href="#DejaVuSans-40"/>
      <use x="334.423828" xlink:href="#DejaVuSans-98"/>
      <use x="397.900391" xlink:href="#DejaVuSans-121"/>
      <use x="457.080078" xlink:href="#DejaVuSans-116"/>
      <use x="496.289062" xlink:href="#DejaVuSans-101"/>
      <use x="557.8125" xlink:href="#DejaVuSans-115"/>
      <use x="609.912109" xlink:href="#DejaVuSans-41"/>
     </g>
    </g>
   </g>
   <g id="line2d_17">
    <path clip-path="url(#p734bab347a)" d="M 173.045455 615.6 
L 177.994078 615.6 
L 178.282092 579.6 
L 178.553911 579.6 
L 178.55433 543.6 
L 178.81802 543.6 
L 179.086093 507.6 
L 179.348411 507.6 
L 179.349173 471.6 
L 180.45892 471.6 
L 180.730396 435.6 
L 183.804901 435.6 
L 183.805028 471.6 
L 184.553674 615.6 
L 185.095128 615.6 
L 185.374289 579.6 
L 185.653603 579.6 
L 185.65406 543.6 
L 185.936943 543.6 
L 186.206095 507.6 
L 186.490209 507.6 
L 186.49026 471.6 
L 187.045775 471.6 
L 187.046042 435.6 
L 188.152626 435.6 
L 188.425423 399.6 
L 188.705448 399.6 
L 188.705486 363.6 
L 189.265916 363.6 
L 189.266666 327.6 
L 189.815169 327.6 
L 189.828125 363.6 
L 190.084639 363.6 
L 190.084664 399.6 
L 191.20226 399.6 
L 192.216693 615.6 
L 192.779638 615.6 
L 193.044459 579.6 
L 193.321168 579.6 
L 193.321321 543.6 
L 193.588758 543.6 
L 193.861746 507.6 
L 194.1444 507.6 
L 194.14445 471.6 
L 195.239819 471.6 
L 195.240555 435.6 
L 196.049624 435.6 
L 196.049751 471.6 
L 196.330843 471.6 
L 196.609902 435.6 
L 196.887577 435.6 
L 196.887603 399.6 
L 197.439726 399.6 
L 197.439764 435.6 
L 199.660198 435.6 
L 199.660744 399.6 
L 200.483518 399.6 
L 200.483569 363.6 
L 201.029253 363.6 
L 201.029329 327.6 
L 201.309074 327.6 
L 201.58492 291.6 
L 201.863026 291.6 
L 202.146938 255.6 
L 202.42145 255.6 
L 202.42145 255.6 
L 202.421488 219.6 
L 202.98042 219.6 
L 202.981068 183.6 
L 203.264153 183.6 
L 203.264306 291.6 
L 204.101636 291.6 
L 204.101687 363.6 
L 204.380556 363.6 
L 204.380988 327.6 
L 204.932895 327.6 
L 204.933746 291.6 
L 205.212717 291.6 
L 205.488512 255.6 
L 206.027844 255.6 
L 206.028403 399.6 
L 206.293465 399.6 
L 206.574023 363.6 
L 207.133705 363.6 
L 207.13373 399.6 
L 208.819823 615.6 
L 209.101156 615.6 
L 209.383263 579.6 
L 209.64487 579.6 
L 209.64529 543.6 
L 209.915775 543.6 
L 210.194504 507.6 
L 210.476485 507.6 
L 210.476536 471.6 
L 210.755786 471.6 
L 211.035722 435.6 
L 211.850608 435.6 
L 211.851395 399.6 
L 212.962704 399.6 
L 212.963009 363.6 
L 214.344144 363.6 
L 214.344169 327.6 
L 214.894565 327.6 
L 214.894603 363.6 
L 215.719181 363.6 
L 215.719232 435.6 
L 215.990683 435.6 
L 215.991394 399.6 
L 216.552294 399.6 
L 216.552574 363.6 
L 216.831659 363.6 
L 216.831697 399.6 
L 217.75418 615.6 
L 219.307361 615.6 
L 219.584337 579.6 
L 219.866343 579.6 
L 219.866864 543.6 
L 220.144831 543.6 
L 220.412624 507.6 
L 220.971302 507.6 
L 221.590859 615.6 
L 221.873297 615.6 
L 222.139477 579.6 
L 222.41437 579.6 
L 222.414878 543.6 
L 222.685402 543.6 
L 223.226614 471.6 
L 223.778255 471.6 
L 223.77875 435.6 
L 224.049693 435.6 
L 224.049744 399.6 
L 224.602299 399.6 
L 224.870575 435.6 
L 224.870702 471.6 
L 225.421886 615.6 
L 227.250137 615.6 
L 227.525932 579.6 
L 227.803442 579.6 
L 227.803886 543.6 
L 228.350383 543.6 
L 230.540459 615.6 
L 230.819696 615.6 
L 231.098438 579.6 
L 231.370562 579.6 
L 231.636678 543.6 
L 233.095815 615.6 
L 233.362896 615.6 
L 233.631908 579.6 
L 234.189138 579.6 
L 235.651577 615.6 
L 235.919331 615.6 
L 236.193805 579.6 
L 236.466107 579.6 
L 236.466336 543.6 
L 237.835327 543.6 
L 238.114221 507.6 
L 238.393382 507.6 
L 238.393852 471.6 
L 238.937427 471.6 
L 238.937682 435.6 
L 239.476659 435.6 
L 240.767241 615.6 
L 241.039124 615.6 
L 241.319441 579.6 
L 241.8683 579.6 
L 243.32261 615.6 
L 246.160073 615.6 
L 246.441762 579.6 
L 246.98615 579.6 
L 248.442022 615.6 
L 251.28092 615.6 
L 251.564209 579.6 
L 251.831507 579.6 
L 251.831964 543.6 
L 253.218789 543.6 
L 253.502332 507.6 
L 253.789241 507.6 
L 253.789266 471.6 
L 255.148299 471.6 
L 255.419674 435.6 
L 255.690744 435.6 
L 255.690769 399.6 
L 256.226622 399.6 
L 256.226888 363.6 
L 256.78469 363.6 
L 256.784804 435.6 
L 257.599233 435.6 
L 257.59936 399.6 
L 257.882916 399.6 
L 257.882941 363.6 
L 258.704979 363.6 
L 258.705106 399.6 
L 259.804907 399.6 
L 259.804958 363.6 
L 260.348508 363.6 
L 260.348533 399.6 
L 261.160358 399.6 
L 261.160472 363.6 
L 261.441005 363.6 
L 261.441031 399.6 
L 261.989864 399.6 
L 262.269089 363.6 
L 262.544045 363.6 
L 262.551501 327.6 
L 262.815827 327.6 
L 262.815839 291.6 
L 263.34684 291.6 
L 263.346878 327.6 
L 263.60475 327.6 
L 263.87516 291.6 
L 264.417325 291.6 
L 264.417363 327.6 
L 264.963695 327.6 
L 264.96372 291.6 
L 265.510001 291.6 
L 265.510026 327.6 
L 266.349808 327.6 
L 266.349833 363.6 
L 266.62841 363.6 
L 266.628588 327.6 
L 267.174525 327.6 
L 267.174665 363.6 
L 267.442331 363.6 
L 268.859196 615.6 
L 269.140376 615.6 
L 269.422509 579.6 
L 269.70195 579.6 
L 269.969781 543.6 
L 270.78313 543.6 
L 271.407108 615.6 
L 271.673669 615.6 
L 272.219619 543.6 
L 272.48792 543.6 
L 272.765772 507.6 
L 273.040081 507.6 
L 273.040208 471.6 
L 273.596511 471.6 
L 273.876027 507.6 
L 275.246314 615.6 
L 275.803938 615.6 
L 276.083149 579.6 
L 276.351145 579.6 
L 276.35159 543.6 
L 276.615814 543.6 
L 276.901491 507.6 
L 277.165435 507.6 
L 277.165676 471.6 
L 277.721242 471.6 
L 277.721496 435.6 
L 278.814019 435.6 
L 278.814286 399.6 
L 279.083399 399.6 
L 279.083438 363.6 
L 279.643182 363.6 
L 279.643258 327.6 
L 279.920057 327.6 
L 280.190923 291.6 
L 280.190923 291.6 
L 280.477693 291.6 
L 280.477718 363.6 
L 281.029334 363.6 
L 281.029346 327.6 
L 281.591161 327.6 
L 281.591237 291.6 
L 281.871796 291.6 
L 281.871872 363.6 
L 282.428797 363.6 
L 282.705366 327.6 
L 282.985912 327.6 
L 282.985988 291.6 
L 283.797902 291.6 
L 283.803021 363.6 
L 285.458845 615.6 
L 286.018666 615.6 
L 286.556538 543.6 
L 286.838608 543.6 
L 287.109271 507.6 
L 289.286264 615.6 
L 292.114366 615.6 
L 292.396309 579.6 
L 292.674428 579.6 
L 292.674682 543.6 
L 292.953704 543.6 
L 293.217572 507.6 
L 293.483955 507.6 
L 293.484005 471.6 
L 294.03665 471.6 
L 295.669992 615.6 
L 296.218457 615.6 
L 296.495382 579.6 
L 296.781212 579.6 
L 296.781834 543.6 
L 297.057159 543.6 
L 297.336663 507.6 
L 297.620435 507.6 
L 297.620473 471.6 
L 298.162587 471.6 
L 298.164378 435.6 
L 298.442714 435.6 
L 298.723513 399.6 
L 299.005977 399.6 
L 299.00604 363.6 
L 299.558176 363.6 
L 299.558481 327.6 
L 299.827379 327.6 
L 299.827417 291.6 
L 300.094727 291.6 
L 300.094753 327.6 
L 300.643967 327.6 
L 300.644044 291.6 
L 301.176314 291.6 
L 301.176339 327.6 
L 302.065824 615.6 
L 302.343473 615.6 
L 302.889766 543.6 
L 303.170782 543.6 
L 303.452356 507.6 
L 304.279982 507.6 
L 304.557721 471.6 
L 304.837911 471.6 
L 304.837949 435.6 
L 305.383429 435.6 
L 305.383925 399.6 
L 305.662603 399.6 
L 305.662616 363.6 
L 308.148365 363.6 
L 308.148403 399.6 
L 308.428974 399.6 
L 308.429698 363.6 
L 308.980107 363.6 
L 308.980259 435.6 
L 309.725235 615.6 
L 312.559738 615.6 
L 313.120918 543.6 
L 313.388584 543.6 
L 314.843059 615.6 
L 317.68258 615.6 
L 317.969298 579.6 
L 318.24301 579.6 
L 318.243302 543.6 
L 319.643388 543.6 
L 319.922485 507.6 
L 320.19245 507.6 
L 320.19292 471.6 
L 322.4163 471.6 
L 322.416377 507.6 
L 322.696401 507.6 
L 325.07985 615.6 
L 327.916932 615.6 
L 328.187075 579.6 
L 328.462895 579.6 
L 328.463378 543.6 
L 328.744 543.6 
L 329.0107 507.6 
L 329.28962 507.6 
L 329.289645 471.6 
L 329.847281 471.6 
L 329.847574 435.6 
L 330.688346 435.6 
L 331.4603 615.6 
L 333.01357 615.6 
L 333.280575 579.6 
L 333.557729 579.6 
L 333.558199 543.6 
L 333.840231 543.6 
L 335.295861 615.6 
L 335.576508 615.6 
L 335.856025 579.6 
L 336.122878 579.6 
L 336.123119 543.6 
L 336.401366 543.6 
L 336.668612 507.6 
L 337.217179 507.6 
L 339.137837 615.6 
L 339.676534 615.6 
L 339.957385 579.6 
L 340.50378 579.6 
L 341.69384 615.6 
L 341.965875 615.6 
L 342.238584 579.6 
L 342.517935 579.6 
L 342.798252 543.6 
L 344.255229 615.6 
L 344.533501 615.6 
L 344.812281 579.6 
L 345.092407 579.6 
L 345.361496 543.6 
L 345.640758 543.6 
L 345.641012 507.6 
L 345.915537 507.6 
L 346.470315 435.6 
L 347.858664 435.6 
L 347.858753 471.6 
L 348.400829 471.6 
L 348.675595 435.6 
L 348.950145 435.6 
L 348.950158 399.6 
L 349.490202 399.6 
L 349.490304 435.6 
L 350.315606 435.6 
L 350.592887 399.6 
L 350.872416 399.6 
L 350.872454 435.6 
L 351.149596 471.6 
L 351.928244 615.6 
L 352.199606 615.6 
L 352.473572 579.6 
L 352.742787 579.6 
L 352.743422 543.6 
L 354.123337 543.6 
L 354.123578 507.6 
L 354.955079 507.6 
L 355.757809 615.6 
L 362.420469 615.6 
L 362.694918 579.6 
L 362.96205 579.6 
L 363.239128 543.6 
L 363.519775 543.6 
L 363.520042 507.6 
L 364.056402 507.6 
L 365.976501 615.6 
L 371.35282 615.6 
L 371.617463 579.6 
L 371.892368 579.6 
L 371.89247 543.6 
L 372.173282 543.6 
L 372.45017 507.6 
L 372.726968 507.6 
L 372.726981 471.6 
L 373.286903 471.6 
L 374.927472 615.6 
L 375.207053 615.6 
L 375.485007 579.6 
L 375.765349 579.6 
L 375.765476 543.6 
L 376.045475 543.6 
L 376.324509 507.6 
L 376.604229 507.6 
L 376.883377 471.6 
L 377.16311 471.6 
L 377.163123 435.6 
L 377.723566 435.6 
L 377.723883 399.6 
L 378.002333 399.6 
L 378.002358 363.6 
L 378.561214 363.6 
L 378.56129 327.6 
L 378.840565 327.6 
L 379.127868 291.6 
L 379.401339 291.6 
L 379.40144 399.6 
L 379.959216 399.6 
L 379.959788 363.6 
L 380.238276 363.6 
L 380.238288 327.6 
L 380.518173 327.6 
L 380.518186 363.6 
L 381.078731 363.6 
L 381.078756 327.6 
L 381.636849 327.6 
L 381.636964 291.6 
L 381.904401 291.6 
L 382.169564 255.6 
L 382.728572 255.6 
L 382.72861 363.6 
L 383.871636 615.6 
L 385.43414 615.6 
L 385.713656 579.6 
L 385.993681 579.6 
L 385.994151 543.6 
L 386.263443 543.6 
L 386.529559 507.6 
L 387.63721 507.6 
L 389.009326 615.6 
L 389.28474 615.6 
L 389.56446 579.6 
L 389.843532 579.6 
L 389.844065 543.6 
L 390.117599 543.6 
L 390.40306 507.6 
L 390.68198 507.6 
L 390.682005 471.6 
L 391.240187 471.6 
L 392.857296 615.6 
L 393.135048 615.6 
L 393.41323 579.6 
L 393.692671 579.6 
L 394.251628 507.6 
L 396.17085 507.6 
L 396.171574 471.6 
L 397.567049 471.6 
L 397.567366 435.6 
L 398.954051 435.6 
L 398.954089 399.6 
L 399.515764 399.6 
L 399.515879 471.6 
L 400.067596 471.6 
L 400.067621 435.6 
L 400.630706 435.6 
L 400.631456 399.6 
L 400.900633 399.6 
L 400.900646 363.6 
L 402.274045 363.6 
L 402.274095 399.6 
L 403.10712 399.6 
L 403.107425 363.6 
L 403.388174 363.6 
L 403.388212 327.6 
L 404.226164 327.6 
L 404.22619 363.6 
L 404.784525 363.6 
L 404.78455 327.6 
L 405.343545 327.6 
L 405.343672 399.6 
L 405.903137 399.6 
L 406.182832 363.6 
L 407.021775 363.6 
L 407.021826 399.6 
L 407.299946 399.6 
L 407.300288 363.6 
L 407.850253 363.6 
L 407.850342 327.6 
L 408.393205 327.6 
L 408.393332 399.6 
L 409.218266 399.6 
L 409.218304 363.6 
L 409.498684 363.6 
L 409.772079 327.6 
L 410.03286 327.6 
L 410.032936 291.6 
L 410.578849 291.6 
L 410.578925 363.6 
L 410.857768 399.6 
L 412.069307 615.6 
L 412.623489 615.6 
L 413.182001 543.6 
L 413.461353 543.6 
L 414.630785 615.6 
L 416.192895 615.6 
L 416.461692 579.6 
L 416.742656 579.6 
L 416.742872 543.6 
L 417.020979 543.6 
L 417.300584 507.6 
L 418.478896 615.6 
L 427.70946 615.6 
L 427.982499 579.6 
L 428.264531 579.6 
L 428.264645 543.6 
L 428.545584 543.6 
L 428.829889 507.6 
L 430.007527 615.6 
L 431.547752 615.6 
L 431.824017 579.6 
L 432.095506 579.6 
L 432.095633 543.6 
L 433.833422 615.6 
L 434.103933 615.6 
L 434.371612 579.6 
L 434.647369 579.6 
L 434.647585 543.6 
L 436.390607 615.6 
L 436.661499 615.6 
L 436.931464 579.6 
L 437.207335 579.6 
L 437.207526 543.6 
L 438.949354 615.6 
L 439.229874 615.6 
L 439.507879 579.6 
L 439.788145 579.6 
L 439.788361 543.6 
L 440.068017 543.6 
L 440.347572 507.6 
L 440.629121 507.6 
L 440.629172 471.6 
L 441.184407 471.6 
L 441.184572 435.6 
L 441.465867 435.6 
L 441.746705 399.6 
L 442.010179 399.6 
L 442.010192 363.6 
L 442.554224 363.6 
L 442.554262 327.6 
L 442.831442 327.6 
L 443.099412 291.6 
L 443.099412 291.6 
L 443.366723 291.6 
L 443.366773 255.6 
L 443.645515 255.6 
L 443.645566 327.6 
L 443.915213 327.6 
L 443.915239 363.6 
L 444.747349 363.6 
L 444.74745 327.6 
L 444.74745 327.6 
L 445.030168 327.6 
L 445.030193 399.6 
L 445.851913 399.6 
L 446.612588 615.6 
L 450.705399 615.6 
L 450.986885 579.6 
L 451.265309 579.6 
L 451.267608 543.6 
L 451.545727 543.6 
L 451.812009 507.6 
L 452.083536 507.6 
L 452.083612 471.6 
L 452.64323 471.6 
L 452.643369 507.6 
L 454.259119 615.6 
L 454.531739 615.6 
L 454.807026 579.6 
L 456.813738 615.6 
L 457.095833 615.6 
L 457.630784 543.6 
L 457.909932 543.6 
L 458.191354 507.6 
L 458.47181 507.6 
L 458.471861 471.6 
L 458.751441 471.6 
L 460.643253 615.6 
L 460.922096 615.6 
L 461.20188 579.6 
L 461.475846 579.6 
L 463.197186 615.6 
L 463.474213 615.6 
L 463.748916 579.6 
L 464.296847 579.6 
L 465.747308 615.6 
L 466.027828 615.6 
L 466.312997 579.6 
L 466.590367 579.6 
L 466.590621 543.6 
L 466.851695 543.6 
L 467.129662 507.6 
L 467.404238 507.6 
L 467.40425 471.6 
L 468.222172 471.6 
L 469.570472 615.6 
L 470.11801 615.6 
L 470.384381 579.6 
L 470.650294 579.6 
L 470.650446 543.6 
L 471.194186 543.6 
L 472.124761 615.6 
L 473.682082 615.6 
L 473.953584 579.6 
L 474.233025 579.6 
L 474.233152 543.6 
L 474.507422 543.6 
L 474.774999 507.6 
L 475.046806 507.6 
L 475.046831 471.6 
L 475.591715 471.6 
L 475.592032 435.6 
L 476.147776 435.6 
L 476.148258 399.6 
L 476.706695 399.6 
L 476.707012 363.6 
L 476.989006 363.6 
L 476.989044 327.6 
L 477.550147 327.6 
L 477.550224 291.6 
L 477.828749 291.6 
L 477.828775 363.6 
L 478.375386 363.6 
L 478.375424 399.6 
L 479.210633 399.6 
L 479.210646 435.6 
L 479.484383 435.6 
L 479.757816 399.6 
L 480.046516 399.6 
L 480.046528 363.6 
L 480.592872 363.6 
L 480.592949 399.6 
L 481.681547 399.6 
L 481.681585 435.6 
L 481.962321 471.6 
L 483.634988 615.6 
L 489.011142 615.6 
L 489.287546 579.6 
L 489.564396 579.6 
L 489.56451 543.6 
L 489.84531 543.6 
L 490.124039 507.6 
L 490.401409 507.6 
L 490.401879 471.6 
L 490.962677 471.6 
L 490.962957 435.6 
L 491.235005 435.6 
L 491.504055 399.6 
L 491.777145 399.6 
L 491.777157 363.6 
L 492.602535 363.6 
L 493.856867 615.6 
L 494.126451 615.6 
L 494.402729 579.6 
L 494.681864 579.6 
L 496.413302 615.6 
L 496.693924 615.6 
L 496.96239 579.6 
L 497.502587 579.6 
L 498.970106 615.6 
L 499.251096 615.6 
L 499.51678 579.6 
L 499.797389 579.6 
L 499.797885 543.6 
L 500.073515 543.6 
L 500.357655 507.6 
L 500.634491 507.6 
L 500.634745 471.6 
L 502.27976 471.6 
L 502.279862 507.6 
L 504.085656 615.6 
L 504.636446 615.6 
L 505.177786 543.6 
L 505.458166 543.6 
L 505.730392 507.6 
L 507.116607 507.6 
L 507.394104 471.6 
L 507.673773 471.6 
L 507.673786 435.6 
L 508.224169 435.6 
L 508.224258 471.6 
L 508.764391 471.6 
L 509.039957 435.6 
L 509.319728 435.6 
L 509.31974 471.6 
L 510.432701 471.6 
L 510.712281 435.6 
L 511.271556 435.6 
L 511.27167 471.6 
L 511.538421 471.6 
L 513.037378 615.6 
L 515.874816 615.6 
L 516.154142 579.6 
L 516.427917 579.6 
L 516.428133 543.6 
L 516.706367 543.6 
L 516.976675 507.6 
L 517.249472 507.6 
L 517.24951 471.6 
L 518.624776 471.6 
L 519.422642 615.6 
L 527.356666 615.6 
L 527.628524 579.6 
L 528.443677 579.6 
L 529.643289 615.6 
L 529.919935 615.6 
L 530.19822 579.6 
L 530.475056 579.6 
L 530.475171 543.6 
L 530.742138 543.6 
L 531.023179 507.6 
L 531.300879 507.6 
L 531.300904 471.6 
L 532.135415 471.6 
L 533.474341 615.6 
L 533.744649 615.6 
L 534.020241 579.6 
L 534.287856 579.6 
L 534.287983 543.6 
L 534.55622 543.6 
L 534.829487 507.6 
L 535.095832 507.6 
L 535.09587 471.6 
L 535.655564 471.6 
L 535.655666 507.6 
L 536.208221 507.6 
L 536.482187 471.6 
L 536.75896 471.6 
L 536.758998 435.6 
L 537.585367 435.6 
L 537.585418 471.6 
L 538.132905 471.6 
L 538.401904 435.6 
L 539.205473 435.6 
L 539.207899 399.6 
L 541.156857 399.6 
L 541.425856 363.6 
L 541.955599 363.6 
L 541.955675 435.6 
L 542.231483 435.6 
L 542.511114 399.6 
L 542.785016 399.6 
L 542.785042 363.6 
L 544.438122 363.6 
L 544.716178 327.6 
L 545.262891 327.6 
L 545.262903 291.6 
L 545.820577 291.6 
L 545.820615 327.6 
L 546.098036 327.6 
L 546.098074 291.6 
L 546.646502 291.6 
L 546.646578 399.6 
L 546.923935 399.6 
L 547.204824 363.6 
L 548.306187 363.6 
L 548.3062 399.6 
L 548.587406 399.6 
L 548.587698 363.6 
L 549.137662 363.6 
L 549.137789 399.6 
L 550.101668 615.6 
L 551.649984 615.6 
L 551.927227 579.6 
L 552.764125 579.6 
L 553.933291 615.6 
L 554.203002 615.6 
L 554.4829 579.6 
L 554.762848 579.6 
L 554.763064 543.6 
L 555.025929 543.6 
L 555.305903 507.6 
L 555.582536 507.6 
L 556.488888 615.6 
L 563.145362 615.6 
L 563.429324 579.6 
L 563.701296 579.6 
L 563.701576 543.6 
L 563.981092 543.6 
L 565.422738 615.6 
L 565.700057 615.6 
L 566.242819 543.6 
L 566.521498 543.6 
L 566.800697 507.6 
L 568.208784 507.6 
L 569.248417 615.6 
L 572.087049 615.6 
L 572.357484 579.6 
L 572.630967 579.6 
L 572.631119 543.6 
L 572.914701 543.6 
L 573.180194 507.6 
L 573.449245 507.6 
L 573.725344 471.6 
L 574.005471 471.6 
L 574.005484 435.6 
L 575.402597 435.6 
L 575.402609 399.6 
L 576.243789 399.6 
L 576.91282 615.6 
L 577.460967 615.6 
L 577.467992 579.6 
L 577.739773 579.6 
L 577.7399 543.6 
L 578.020242 543.6 
L 578.296761 507.6 
L 579.126051 507.6 
L 579.402329 471.6 
L 579.68163 471.6 
L 579.681642 435.6 
L 580.520637 435.6 
L 580.520675 399.6 
L 581.06613 399.6 
L 581.066473 363.6 
L 581.607685 363.6 
L 581.607762 435.6 
L 581.887913 435.6 
L 582.161638 399.6 
L 583.830113 399.6 
L 583.830151 363.6 
L 583.830151 363.6 
L 584.378159 363.6 
L 584.378235 399.6 
L 584.936926 399.6 
L 584.936951 363.6 
L 586.312039 363.6 
L 586.31223 327.6 
L 586.581801 327.6 
L 586.581839 363.6 
L 586.858447 363.6 
L 588.418499 615.6 
L 588.96262 615.6 
L 589.233576 579.6 
L 589.501826 579.6 
L 589.501991 543.6 
L 589.770661 543.6 
L 590.050977 507.6 
L 590.331434 507.6 
L 590.331472 471.6 
L 590.905697 471.6 
L 590.905773 507.6 
L 591.734517 507.6 
L 593.523329 615.6 
L 593.791579 615.6 
L 594.060045 579.6 
L 594.331623 579.6 
L 594.331877 543.6 
L 594.611343 543.6 
L 594.886071 507.6 
L 595.155871 507.6 
L 595.155973 471.6 
L 595.702088 471.6 
L 595.702329 435.6 
L 597.059292 435.6 
L 597.05947 399.6 
L 597.336942 399.6 
L 597.336954 435.6 
L 598.625429 615.6 
L 598.890986 615.6 
L 599.167162 579.6 
L 599.447377 579.6 
L 599.447809 543.6 
L 599.726411 543.6 
L 599.997062 507.6 
L 600.264448 507.6 
L 600.264474 471.6 
L 600.812926 471.6 
L 600.813041 435.6 
L 601.350481 435.6 
L 601.350773 399.6 
L 601.628753 399.6 
L 601.628791 435.6 
L 602.176862 435.6 
L 602.459262 399.6 
L 602.741116 399.6 
L 602.741154 435.6 
L 603.283738 435.6 
L 603.283764 399.6 
L 603.84897 399.6 
L 603.849021 435.6 
L 604.126747 471.6 
L 605.038535 615.6 
L 607.880622 615.6 
L 608.161765 579.6 
L 608.433901 579.6 
L 608.434384 543.6 
L 608.704501 543.6 
L 608.968026 507.6 
L 609.785135 507.6 
L 611.433034 615.6 
L 611.972519 615.6 
L 612.251908 579.6 
L 612.532225 579.6 
L 612.532708 543.6 
L 612.799802 543.6 
L 613.066909 507.6 
L 613.894154 507.6 
L 615.260783 615.6 
L 615.541697 615.6 
L 615.820921 579.6 
L 616.09001 579.6 
L 616.090264 543.6 
L 616.372334 543.6 
L 616.662545 507.6 
L 617.759438 507.6 
L 617.759463 471.6 
L 618.867228 471.6 
L 618.867673 435.6 
L 619.407323 435.6 
L 619.407463 399.6 
L 619.689151 399.6 
L 619.68919 435.6 
L 620.519852 435.6 
L 620.519928 471.6 
L 621.325326 471.6 
L 621.328133 435.6 
L 621.885528 435.6 
L 621.885566 471.6 
L 622.150806 471.6 
L 622.430564 435.6 
L 623.79676 435.6 
L 623.79751 399.6 
L 624.069329 399.6 
L 624.069367 363.6 
L 624.611748 363.6 
L 624.611825 327.6 
L 624.87902 327.6 
L 624.879059 363.6 
L 626.79715 363.6 
L 626.797176 327.6 
L 627.078585 327.6 
L 627.07861 291.6 
L 627.906135 291.6 
L 627.906237 399.6 
L 628.172797 399.6 
L 628.447817 363.6 
L 630.108494 363.6 
L 630.108506 399.6 
L 630.930988 399.6 
L 630.931014 363.6 
L 631.466828 363.6 
L 631.466892 399.6 
L 632.025747 399.6 
L 632.026331 363.6 
L 632.296715 363.6 
L 632.578976 327.6 
L 633.129295 327.6 
L 633.129486 435.6 
L 634.44438 615.6 
L 637.27285 615.6 
L 637.557143 579.6 
L 637.833129 579.6 
L 637.833611 543.6 
L 638.108644 543.6 
L 638.387373 507.6 
L 638.663625 507.6 
L 638.942786 471.6 
L 640.044556 471.6 
L 640.833125 615.6 
L 641.104931 615.6 
L 641.373423 579.6 
L 641.921481 579.6 
L 643.382599 615.6 
L 643.663411 615.6 
L 643.925057 579.6 
L 644.191224 579.6 
L 644.191681 543.6 
L 645.036239 543.6 
L 645.948739 615.6 
L 646.235305 615.6 
L 646.508382 579.6 
L 646.785459 579.6 
L 648.515005 615.6 
L 648.778276 615.6 
L 649.323667 543.6 
L 649.607947 543.6 
L 649.895047 507.6 
L 650.17295 507.6 
L 650.172976 471.6 
L 651.25883 471.6 
L 651.259072 435.6 
L 651.806076 435.6 
L 651.806356 399.6 
L 652.073793 399.6 
L 652.073806 363.6 
L 652.619184 363.6 
L 652.619273 327.6 
L 652.899336 327.6 
L 653.160016 291.6 
L 653.432559 291.6 
L 653.700212 255.6 
L 653.973899 255.6 
L 653.973962 327.6 
L 654.253009 327.6 
L 654.903902 615.6 
L 665.429292 615.6 
L 665.711222 579.6 
L 666.553074 579.6 
L 667.710237 615.6 
L 670.544817 615.6 
L 670.821692 579.6 
L 671.104879 579.6 
L 671.105044 543.6 
L 671.664979 543.6 
L 672.816833 615.6 
L 674.375729 615.6 
L 674.649746 579.6 
L 674.925782 579.6 
L 674.92596 543.6 
L 675.205654 543.6 
L 675.489629 507.6 
L 675.765335 507.6 
L 675.765361 471.6 
L 676.312785 471.6 
L 676.313013 435.6 
L 676.860462 435.6 
L 676.860564 471.6 
L 677.413538 471.6 
L 677.413577 435.6 
L 677.955094 435.6 
L 677.955272 399.6 
L 678.223433 399.6 
L 678.223458 363.6 
L 679.318357 363.6 
L 679.318598 327.6 
L 680.400655 327.6 
L 680.403195 363.6 
L 680.678508 363.6 
L 680.67852 399.6 
L 681.238786 399.6 
L 681.238824 435.6 
L 681.512142 435.6 
L 681.512243 399.6 
L 682.050827 399.6 
L 682.050839 435.6 
L 683.137405 435.6 
L 684.33167 615.6 
L 689.718633 615.6 
L 689.986909 579.6 
L 690.265536 579.6 
L 690.266172 543.6 
L 690.534854 543.6 
L 690.802087 507.6 
L 691.081502 507.6 
L 691.081541 471.6 
L 691.621267 471.6 
L 691.621953 435.6 
L 691.89837 435.6 
L 691.89837 435.6 
L 692.171942 399.6 
L 692.727508 399.6 
L 692.727546 435.6 
L 693.006339 435.6 
L 693.006822 399.6 
L 693.566782 399.6 
L 693.57058 363.6 
L 693.845625 363.6 
L 693.845651 327.6 
L 694.127009 327.6 
L 694.398257 291.6 
L 694.673404 291.6 
L 694.961647 255.6 
L 695.232412 255.6 
L 695.232552 219.6 
L 695.510824 219.6 
L 695.510849 183.6 
L 696.06531 183.6 
L 696.065348 147.6 
L 696.065348 147.6 
L 696.602318 147.6 
L 696.602648 111.6 
L 696.882152 111.6 
L 696.882241 219.6 
L 697.431722 219.6 
L 697.432053 183.6 
L 697.712369 183.6 
L 697.712471 291.6 
L 698.258726 291.6 
L 698.25879 255.6 
L 698.540402 255.6 
L 698.54044 363.6 
L 699.382953 363.6 
L 699.383029 435.6 
L 702.976049 435.6 
L 702.97615 471.6 
L 703.246331 471.6 
L 703.515928 435.6 
L 706.58506 435.6 
L 706.585098 399.6 
L 707.146417 399.6 
L 707.146481 435.6 
L 708.629014 615.6 
L 711.457154 615.6 
L 711.723385 579.6 
L 712.000983 579.6 
L 712.00125 543.6 
L 712.28069 543.6 
L 712.546629 507.6 
L 714.17235 507.6 
L 715.011357 615.6 
L 715.29932 615.6 
L 715.565944 579.6 
L 716.120545 579.6 
L 717.581104 615.6 
L 717.849239 615.6 
L 718.408831 543.6 
L 718.671582 543.6 
L 718.964816 507.6 
L 719.241475 507.6 
L 719.2415 471.6 
L 719.801918 471.6 
L 719.802413 435.6 
L 720.067399 435.6 
L 720.343601 399.6 
L 720.612473 399.6 
L 720.612511 363.6 
L 721.701503 363.6 
L 721.701592 435.6 
L 721.979051 435.6 
L 721.979203 399.6 
L 722.52998 399.6 
L 722.530552 363.6 
L 722.806588 363.6 
L 722.806639 327.6 
L 723.085533 327.6 
L 723.085584 363.6 
L 723.362103 363.6 
L 725.268839 615.6 
L 725.528529 615.6 
L 725.803981 579.6 
L 726.347619 579.6 
L 727.834115 615.6 
L 728.101324 615.6 
L 728.3854 579.6 
L 728.666009 579.6 
L 728.666657 543.6 
L 730.566699 543.6 
L 731.669651 615.6 
L 737.351729 615.6 
L 737.630991 579.6 
L 737.913264 579.6 
L 737.913912 543.6 
L 738.181006 543.6 
L 738.456763 507.6 
L 739.837491 507.6 
L 740.613497 615.6 
L 747.263518 615.6 
L 747.803105 543.6 
L 748.068218 543.6 
L 748.337903 507.6 
L 748.616442 507.6 
L 749.558918 615.6 
L 749.84001 615.6 
L 750.113747 579.6 
L 750.39292 579.6 
L 750.3932 543.6 
L 750.661958 543.6 
L 750.941094 507.6 
L 751.206016 507.6 
L 751.210169 471.6 
L 752.030873 471.6 
L 752.302019 435.6 
L 752.575655 435.6 
L 752.575668 399.6 
L 753.133012 399.6 
L 753.133316 363.6 
L 753.133316 363.6 
L 754.50293 363.6 
L 754.502994 327.6 
L 754.784568 327.6 
L 755.065672 291.6 
L 755.343195 291.6 
L 755.343207 255.6 
L 755.626522 255.6 
L 755.626573 291.6 
L 756.445841 291.6 
L 756.446057 399.6 
L 756.717419 399.6 
L 756.992592 363.6 
L 757.263903 363.6 
L 757.537386 399.6 
L 757.537551 435.6 
L 758.501811 615.6 
L 761.333406 615.6 
L 761.613418 579.6 
L 761.888591 579.6 
L 761.88929 543.6 
L 763.265635 543.6 
L 763.544847 507.6 
L 763.826218 507.6 
L 764.100044 471.6 
L 764.657134 471.6 
L 764.657236 507.6 
L 767.368697 507.6 
L 767.644619 471.6 
L 768.200045 471.6 
L 770.032894 615.6 
L 770.304587 615.6 
L 770.581677 579.6 
L 770.856418 579.6 
L 770.856647 543.6 
L 771.687055 543.6 
L 772.583893 615.6 
L 774.144085 615.6 
L 774.415333 579.6 
L 774.694138 579.6 
L 774.694291 543.6 
L 774.965716 543.6 
L 775.238374 507.6 
L 777.438561 507.6 
L 777.715397 615.6 
L 777.969663 615.6 
L 777.995333 579.6 
L 778.239831 579.6 
L 778.523717 543.6 
L 778.79626 543.6 
L 778.799766 507.6 
L 779.905219 507.6 
L 780.182119 471.6 
L 780.460315 471.6 
L 780.460328 435.6 
L 781.2704 435.6 
L 781.270502 471.6 
L 782.099881 471.6 
L 782.100033 435.6 
L 782.655307 435.6 
L 784.089319 615.6 
L 784.632195 615.6 
L 784.911991 579.6 
L 785.464597 579.6 
L 786.642807 615.6 
L 786.909381 615.6 
L 787.180565 579.6 
L 787.453095 579.6 
L 787.453184 543.6 
L 788.282919 543.6 
L 789.19533 615.6 
L 789.471392 615.6 
L 789.733291 579.6 
L 790.008387 579.6 
L 790.008553 543.6 
L 790.281934 543.6 
L 790.546628 507.6 
L 790.827554 507.6 
L 793.027894 615.6 
L 793.30285 615.6 
L 793.586698 579.6 
L 793.858581 579.6 
L 793.858759 543.6 
L 795.250588 543.6 
L 795.250779 507.6 
L 795.523296 507.6 
L 795.80275 471.6 
L 796.362075 471.6 
L 796.868688 615.6 
L 802.267159 615.6 
L 802.533555 579.6 
L 802.813097 579.6 
L 802.813236 543.6 
L 803.092893 543.6 
L 804.54249 615.6 
L 804.824344 615.6 
L 805.100964 579.6 
L 805.647054 579.6 
L 807.103129 615.6 
L 812.491223 615.6 
L 812.770206 579.6 
L 813.047487 579.6 
L 813.051387 543.6 
L 813.328782 543.6 
L 813.32882 507.6 
L 813.593158 507.6 
L 813.873208 471.6 
L 814.146311 471.6 
L 814.146412 435.6 
L 814.700263 435.6 
L 814.700276 471.6 
L 815.246252 471.6 
L 815.246391 435.6 
L 816.072633 435.6 
L 816.072773 399.6 
L 816.62153 399.6 
L 816.621543 435.6 
L 816.901669 435.6 
L 817.163657 399.6 
L 817.425493 399.6 
L 817.430193 363.6 
L 817.696283 363.6 
L 817.973399 327.6 
L 818.25002 327.6 
L 818.250058 291.6 
L 818.525561 291.6 
L 818.797164 255.6 
L 819.081 255.6 
L 819.081216 363.6 
L 819.915421 363.6 
L 819.915548 435.6 
L 821.166273 615.6 
L 824.004854 615.6 
L 824.564433 543.6 
L 824.8345 543.6 
L 825.096831 507.6 
L 826.440152 507.6 
L 826.713686 471.6 
L 826.997419 471.6 
L 826.997445 435.6 
L 828.374972 435.6 
L 828.375073 471.6 
L 828.916032 471.6 
L 829.192386 435.6 
L 829.466339 435.6 
L 831.400448 615.6 
L 831.671543 615.6 
L 831.952724 579.6 
L 832.219475 579.6 
L 832.219703 543.6 
L 832.489097 543.6 
L 832.774774 507.6 
L 833.052563 507.6 
L 833.052741 471.6 
L 833.602946 471.6 
L 833.6032 435.6 
L 835.243452 615.6 
L 835.52241 615.6 
L 835.80213 579.6 
L 836.081633 579.6 
L 836.081735 543.6 
L 837.458665 543.6 
L 837.738779 507.6 
L 838.011131 507.6 
L 838.011322 471.6 
L 838.563039 471.6 
L 838.563128 507.6 
L 839.122936 507.6 
L 839.403037 471.6 
L 839.671389 471.6 
L 839.94336 435.6 
L 840.225633 435.6 
L 840.226357 399.6 
L 840.782367 399.6 
L 840.782863 363.6 
L 841.625655 363.6 
L 841.62568 399.6 
L 841.897258 399.6 
L 841.89816 363.6 
L 842.440846 363.6 
L 842.441011 435.6 
L 842.986695 435.6 
L 842.986784 399.6 
L 843.257638 399.6 
L 843.529102 363.6 
L 845.188203 363.6 
L 845.1888 327.6 
L 845.737608 327.6 
L 845.737684 399.6 
L 846.012146 399.6 
L 846.291484 363.6 
L 846.571928 363.6 
L 846.571979 327.6 
L 847.125309 327.6 
L 847.125436 399.6 
L 847.406312 399.6 
L 848.014755 615.6 
L 848.293522 615.6 
L 848.848974 543.6 
L 849.128452 543.6 
L 849.402723 507.6 
L 849.963471 507.6 
L 850.24267 543.6 
L 851.84911 615.6 
L 854.675243 615.6 
L 854.955026 579.6 
L 855.234771 579.6 
L 855.513208 543.6 
L 855.789664 543.6 
L 855.789905 507.6 
L 856.069879 507.6 
L 856.340085 471.6 
L 856.6226 471.6 
L 856.89292 435.6 
L 857.441385 435.6 
L 858.247444 615.6 
L 858.529031 615.6 
L 858.809297 579.6 
L 859.649955 579.6 
L 860.813494 615.6 
L 861.093862 615.6 
L 861.653988 543.6 
L 863.380002 615.6 
L 868.764336 615.6 
L 869.030122 579.6 
L 869.853328 579.6 
L 871.061591 615.6 
L 871.342212 615.6 
L 871.875804 543.6 
L 872.701245 543.6 
L 873.617988 615.6 
L 873.900019 615.6 
L 874.166567 579.6 
L 874.987665 579.6 
L 876.173584 615.6 
L 876.454689 615.6 
L 876.732872 579.6 
L 877.011474 579.6 
L 877.011741 543.6 
L 877.292959 543.6 
L 877.57259 507.6 
L 879.800797 507.6 
L 879.801293 471.6 
L 880.890183 471.6 
L 881.156604 435.6 
L 881.708219 435.6 
L 881.992347 471.6 
L 882.826857 471.6 
L 882.827937 435.6 
L 883.10048 435.6 
L 883.370953 471.6 
L 883.371055 507.6 
L 885.107485 615.6 
L 885.657513 615.6 
L 885.937537 579.6 
L 886.756514 579.6 
L 887.675365 615.6 
L 887.949699 615.6 
L 888.496665 543.6 
L 888.758793 543.6 
L 889.022814 507.6 
L 890.146634 507.6 
L 890.427916 471.6 
L 890.705286 471.6 
L 890.705312 435.6 
L 891.535173 435.6 
L 891.535211 399.6 
L 892.093699 399.6 
L 892.093711 435.6 
L 894.048664 615.6 
L 909.678083 615.6 
L 909.945876 579.6 
L 910.216146 579.6 
L 910.216324 543.6 
L 910.495129 543.6 
L 910.767545 507.6 
L 911.869049 507.6 
L 912.138899 471.6 
L 912.955208 471.6 
L 913.234966 615.6 
L 913.486577 615.6 
L 913.510456 579.6 
L 913.755475 579.6 
L 913.791205 543.6 
L 914.861614 543.6 
L 915.139187 507.6 
L 916.241681 507.6 
L 918.337231 615.6 
L 918.618157 615.6 
L 918.896594 579.6 
L 919.445771 579.6 
L 920.895622 615.6 
L 926.557021 615.6 
L 926.839662 579.6 
L 927.114848 579.6 
L 927.115076 543.6 
L 927.391646 543.6 
L 927.666692 507.6 
L 927.939489 507.6 
L 927.939514 471.6 
L 928.751975 471.6 
L 928.752076 507.6 
L 929.033676 507.6 
L 929.29668 471.6 
L 930.383919 471.6 
L 930.383932 435.6 
L 930.936716 435.6 
L 930.936995 399.6 
L 931.215382 399.6 
L 931.486096 363.6 
L 932.039223 363.6 
L 932.039312 435.6 
L 933.684263 615.6 
L 933.954545 615.6 
L 933.954545 615.6 
" style="fill:none;stroke:#ff7f50;stroke-linecap:square;stroke-width:1.5;"/>
   </g>
   <g id="patch_3">
    <path d="M 135 640.8 
L 135 86.4 
" style="fill:none;stroke:#000000;stroke-linecap:square;stroke-linejoin:miter;stroke-width:0.8;"/>
   </g>
   <g id="patch_4">
    <path d="M 972 640.8 
L 972 86.4 
" style="fill:none;stroke:#000000;stroke-linecap:square;stroke-linejoin:miter;stroke-width:0.8;"/>
   </g>
   <g id="patch_5">
    <path d="M 135 640.8 
L 972 640.8 
" style="fill:none;stroke:#000000;stroke-linecap:square;stroke-linejoin:miter;stroke-width:0.8;"/>
   </g>
   <g id="patch_6">
    <path d="M 135 86.4 
L 972 86.4 
" style="fill:none;stroke:#000000;stroke-linecap:square;stroke-linejoin:miter;stroke-width:0.8;"/>
   </g>
   <g id="legend_1">
    <g id="patch_7">
     <path d="M 863.045313 109.078125 
L 965 109.078125 
Q 967 109.078125 967 107.078125 
L 967 93.4 
Q 967 91.4 965 91.4 
L 863.045313 91.4 
Q 861.045313 91.4 861.045313 93.4 
L 861.045313 107.078125 
Q 861.045313 109.078125 863.045313 109.078125 
z
" style="fill:#ffffff;opacity:0.8;stroke:#cccccc;stroke-linejoin:miter;"/>
    </g>
    <g id="line2d_18">
     <path d="M 865.045313 99.498438 
L 885.045313 99.498438 
" style="fill:none;stroke:#ff7f50;stroke-linecap:square;stroke-width:1.5;"/>
    </g>
    <g id="line2d_19"/>
    <g id="text_19">
     <!-- cwnd loss = 2 -->
     <g transform="translate(893.045313 102.998438)scale(0.1 -0.1)">
      <defs>
       <path d="M 9.421875 75.984375 
L 18.40625 75.984375 
L 18.40625 0 
L 9.421875 0 
z
" id="DejaVuSans-108"/>
       <path d="M 30.609375 48.390625 
Q 23.390625 48.390625 19.1875 42.75 
Q 14.984375 37.109375 14.984375 27.296875 
Q 14.984375 17.484375 19.15625 11.84375 
Q 23.34375 6.203125 30.609375 6.203125 
Q 37.796875 6.203125 41.984375 11.859375 
Q 46.1875 17.53125 46.1875 27.296875 
Q 46.1875 37.015625 41.984375 42.703125 
Q 37.796875 48.390625 30.609375 48.390625 
z
M 30.609375 56 
Q 42.328125 56 49.015625 48.375 
Q 55.71875 40.765625 55.71875 27.296875 
Q 55.71875 13.875 49.015625 6.21875 
Q 42.328125 -1.421875 30.609375 -1.421875 
Q 18.84375 -1.421875 12.171875 6.21875 
Q 5.515625 13.875 5.515625 27.296875 
Q 5.515625 40.765625 12.171875 48.375 
Q 18.84375 56 30.609375 56 
z
" id="DejaVuSans-111"/>
       <path d="M 10.59375 45.40625 
L 73.1875 45.40625 
L 73.1875 37.203125 
L 10.59375 37.203125 
z
M 10.59375 25.484375 
L 73.1875 25.484375 
L 73.1875 17.1875 
L 10.59375 17.1875 
z
" id="DejaVuSans-61"/>
      </defs>
      <use xlink:href="#DejaVuSans-99"/>
      <use x="54.980469" xlink:href="#DejaVuSans-119"/>
      <use x="136.767578" xlink:href="#DejaVuSans-110"/>
      <use x="200.146484" xlink:href="#DejaVuSans-100"/>
      <use x="263.623047" xlink:href="#DejaVuSans-32"/>
      <use x="295.410156" xlink:href="#DejaVuSans-108"/>
      <use x="323.193359" xlink:href="#DejaVuSans-111"/>
      <use x="384.375" xlink:href="#DejaVuSans-115"/>
      <use x="436.474609" xlink:href="#DejaVuSans-115"/>
      <use x="488.574219" xlink:href="#DejaVuSans-32"/>
      <use x="520.361328" xlink:href="#DejaVuSans-61"/>
      <use x="604.150391" xlink:href="#DejaVuSans-32"/>
      <use x="635.9375" xlink:href="#DejaVuSans-50"/>
     </g>
    </g>
   </g>
  </g>
 </g>
 <defs>
  <clipPath id="p734bab347a">
   <rect height="554.4" width="837" x="135" y="86.4"/>
  </clipPath>
 </defs>
</svg>
